{
.appVersion = "3246";
.formatVersion = 3;
DisplayStrings = (
"—1 'f_f' 'f_f_i' 'f_f_l' 
can be mapped to 
/backslash uFB00 /backslash uFB03 /backslash uFB04

ffffff",
"fffffl
fffffffifffí",
"ȇ/n.sups ⁰⁴⁵⁶⁷⁸⁹

/gtilde.sc/Zcedilla 
",
"/vturned.sc/Vturnedacute/Vturneddieresis/Vturnedtilde/vturnedacute.sc/vturneddieresis.sc/vturnedtilde.sc"
);
axes = (
{
name = Weight;
tag = wght;
}
);
classes = (
{
automatic = 1;

glyphs = (
{
color = 6;
glyphname = A;
kernLeft = UC_A;
kernRight = UC_A;
layers = (
{
anchors = (
{
name = bottom;
pos = (360,0);
},
{
name = ogonek;
pos = (700,0);
},
{
name = top;
pos = (376,705);
}
);
layerId = "16643525-C5DD-48EC-8E99-463BF28F5E85";
shapes = (
{
closed = 1;
nodes = (
(89,-3,o),
(161,0,o),
(186,0,cs),
(286,0,l),
(291,67,l),
(165,81,l),
(225,22,l),
(225,64,o),
(229,91,o),
(237,118,cs),
(378,574,l),
(341,574,l),
(470,140,ls),
(480,108,o),
(484,80,o),
(492,7,c),
(546,87,l),
(418,60,l),
(423,-5,l),
(483,-3,o),
(587,0,o),
(612,0,cs),
(700,0,l),
(705,67,l),
(582,87,l),
(662,42,l),
(649,69,o),
(630,101,o),
(620,133,cs),
(419,716,l),
(320,705,l),
(134,161,ls),
(117,114,o),
(102,85,o),
(63,21,c),
(154,82,l),
(42,60,l),
(47,-5,l)
);
},
{
closed = 1;
nodes = (
(487,192,l),
(487,269,l),
(229,269,l),
(229,192,l)
);
}
);
width = 747;
},
{
anchors = (
{
name = bottom;
pos = (359,0);
},
{
name = ogonek;
pos = (690,0);
},
{
name = top;
pos = (362,705);
}
);
layerId = "4E6502B1-B066-4D3E-9BD1-B1D9901B4F4F";
shapes = (
{
closed = 1;
nodes = (
(96,-3,o),
(160,0,o),
(185,0,cs),
(270,0,l),
(275,53,l),
(170,68,l),
(201,42,l),
(204,68,o),
(205,100,o),
(214,128,cs),
(363,593,l),
(342,593,l),
(491,175,ls),
(508,131,o),
(516,89,o),
(524,41,c),
(552,74,l),
(446,42,l),
(449,-5,l),
(496,-3,o),
(563,0,o),
(588,0,cs),
(690,0,l),
(695,53,l),
(598,70,l),
(640,45,l),
(625,77,o),
(605,114,o),
(593,151,cs),
(386,715,l),
(331,705,l),
(154,160,ls),
(140,117,o),
(116,73,o),
(102,44,c),
(142,69,l),
(46,42,l),
(50,-5,l)
);
},
{
closed = 1;
nodes = (
(505,225,l),
(505,276,l),
(222,276,l),
(222,225,l)
);
}
);
width = 741.5;
}
);
unicode = 65;
},
{
color = 3;
glyphname = Aogonek;
kernLeft = UC_A;
kernRight = UC_A;
layers = (
{
anchors = (
{
name = bottom;
pos = (361,0);
},
{
name = ogonek;
pos = (704,0);
},
{
name = top;
pos = (381,705);
}
);
layerId = "16643525-C5DD-48EC-8E99-463BF28F5E85";
shapes = (
{
closed = 1;
nodes = (
(47,-5,o),
(157,0,o),
(187,0,cs),
(292,0,l),
(297,71,l),
(176,83,l),
(232,28,l),
(236,65,o),
(237,88,o),
(245,115,cs),
(379,558,l),
(344,559,l),
(465,129,ls),
(474,99,o),
(477,65,o),
(480,34,c),
(481,124,l),
(452,0,l),
(620,0,l),
(704,0,l),
(709,71,l),
(588,90,l),
(674,38,l),
(652,73,o),
(641,97,o),
(630,128,cs),
(430,716,l),
(318,705,l),
(129,161,ls),
(115,118,o),
(90,77,o),
(67,36,c),
(148,84,l),
(42,65,l),
(47,-5,l)
);
},
{
closed = 1;
nodes = (
(483,179,l),
(483,263,l),
(232,263,l),
(232,179,l)
);
},
{
pos = (284,0);
ref = ogonekcomb;
}
);
width = 751;
},
{
anchors = (
{
name = bottom;
pos = (359,0);
},
{
name = ogonek;
pos = (690,0);
},
{
name = top;
pos = (361,705);
}
);
layerId = "4E6502B1-B066-4D3E-9BD1-B1D9901B4F4F";
shapes = (
{
closed = 1;
nodes = (
(50,-5,o),
(160,0,o),
(185,0,c),
(269,0,l),
(274,52,l),
(169,68,l),
(200,42,l),
(202,68,o),
(205,100,o),
(213,128,cs),
(364,595,l),
(342,594,l),
(491,176,ls),
(507,132,o),
(517,86,o),
(525,42,c),
(525,76,l),
(502,0,l),
(587,0,l),
(690,0,l),
(695,52,l),
(599,68,l),
(640,44,l),
(625,76,o),
(605,114,o),
(592,151,cs),
(385,715,l),
(332,705,l),
(154,160,ls),
(141,118,o),
(118,72,o),
(103,45,c),
(144,69,l),
(46,42,l),
(50,-5,l)
);
},
{
closed = 1;
nodes = (
(505,237,l),
(505,287,l),
(222,287,l),
(222,237,l)
);
},
{
alignment = -1;
pos = (367,0);
ref = ogonekcomb;
}
);
width = 741.1;
}
);
unicode = 260;
},
{
color = 6;
glyphname = AE;
kernLeft = UC_AE;
kernRight = UC_E;
layers = (
{
anchors = (
{
name = bottom;
pos = (627,0);
},
{
name = top;
pos = (661,720);
}
);
layerId = "16643525-C5DD-48EC-8E99-463BF28F5E85";
shapes = (
{
closed = 1;
nodes = (
(85,-3,o),
(138,0,o),
(182,0,c),
(281,0,l),
(286,67,l),
(160,80,l),
(212,41,l),
(215,65,o),
(223,100,o),
(231,118,cs),
(448,550,l),
(411,556,l),
(491,129,ls),
(498,96,o),
(502,67,o),
(503,37,c),
(554,85,l),
(439,60,l),
(444,-5,l),
(506,-3,o),
(600,0,o),
(633,0,c),
(655,24,l),
(617,187,l),
(550,542,ls),
(545,570,o),
(541,643,o),
(539,676,c),
(539,705,l),
(420,705,l),
(142,161,ls),
(129,135,o),
(80,62,o),
(70,46,c),
(139,82,l),
(42,60,l),
(47,-5,l)
);
},
{
closed = 1;
nodes = (
(509,192,l),
(507,269,l),
(242,269,l),
(244,192,l)
);
},
{
closed = 1;
nodes = (
(918,14,l),
(933,184,l),
(867,189,l),
(854,129,ls),
(850,112,o),
(829,73,o),
(803,42,c),
(856,93,l),
(841,89,o),
(799,80,o),
(755,80,cs),
(529,80,l),
(529,0,l),
(785,0,ls),
(813,0,o),
(861,-2,o),
(899,-4,c)
);
},
{
closed = 1;
nodes = (
(829,260,l),
(827,301,o),
(826,341,o),
(826,382,cs),
(826,466,l),
(769,471,l),
(755,367,l),
(788,409,l),
(769,403,o),
(735,397,o),
(712,397,cs),
(529,397,l),
(529,322,l),
(692,322,ls),
(722,322,o),
(774,317,o),
(804,315,c),
(755,352,l),
(769,254,l)
);
},
{
closed = 1;
nodes = (
(911,547,l),
(904,692,l),
(885,710,l),
(847,707,o),
(789,705,o),
(771,705,cs),
(529,705,l),
(529,630,l),
(744,630,ls),
(784,630,o),
(831,625,o),
(856,623,c),
(801,675,l),
(815,647,o),
(834,603,o),
(836,590,cs),
(843,542,l)
);
}
);
width = 996;
},
{
anchors = (
{
name = bottom;
pos = (618,0);
},
{
name = top;
pos = (680,720);
}
);
layerId = "4E6502B1-B066-4D3E-9BD1-B1D9901B4F4F";
shapes = (
{
closed = 1;
nodes = (
(86,-3,o),
(140,0,o),
(185,0,c),
(270,0,l),
(275,53,l),
(169,68,l),
(196,32,l),
(201,53,o),
(214,118,o),
(219,128,cs),
(434,624,l),
(413,626,l),
(508,130,ls),
(512,104,o),
(516,79,o),
(515,33,c),
(547,73,l),
(443,42,l),
(447,-5,l),
(494,-3,o),
(564,0,o),
(586,0,c),
(622,21,l),
(593,166,ls),
(515,538,ls),
(511,582,o),
(503,668,o),
(502,684,c),
(502,705,l),
(404,705,l),
(166,160,ls),
(159,142,o),
(119,70,o),
(96,44,c),
(142,69,l),
(46,42,l),
(50,-5,l)
);
},
{
closed = 1;
nodes = (
(546,236,l),
(544,287,l),
(230,287,l),
(232,236,l)
);
},
{
closed = 1;
nodes = (
(908,14,l),
(923,163,l),
(869,168,l),
(854,100,ls),
(851,86,o),
(831,61,o),
(817,43,c),
(847,67,l),
(829,63,o),
(785,55,o),
(745,55,cs),
(539,55,l),
(539,0,l),
(775,0,ls),
(792,0,o),
(851,-2,o),
(889,-4,c)
);
},
{
closed = 1;
nodes = (
(828,272,l),
(826,308,o),
(825,344,o),
(825,380,cs),
(825,464,l),
(781,469,l),
(767,364,l),
(798,404,l),
(784,402,o),
(739,394,o),
(711,394,cs),
(539,394,l),
(539,340,l),
(691,340,ls),
(717,340,o),
(781,332,o),
(803,329,c),
(767,370,l),
(781,266,l)
);
},
{
closed = 1;
nodes = (
(902,562,l),
(895,692,l),
(876,710,l),
(838,707,o),
(780,705,o),
(762,705,cs),
(451,705,l),
(451,651,l),
(732,651,ls),
(768,651,o),
(809,648,o),
(829,645,c),
(796,664,l),
(811,651,o),
(832,622,o),
(834,612,cs),
(845,557,l)
);
}
);
width = 989.4;
}
);
unicode = 198;
},
{
color = 6;
glyphname = B;
kernLeft = UC_Stem;
kernRight = UC_B;
layers = (
{
anchors = (
{
name = bottom;
pos = (332,0);
},
{
name = top;
pos = (332,705);
}
);
layerId = "16643525-C5DD-48EC-8E99-463BF28F5E85";
shapes = (
{
closed = 1;
nodes = (
(100,-3,o),
(177,0,o),
(205,0,cs),
(255,0,o),
(324,-5,o),
(374,-5,cs),
(499,-5,o),
(604,60,o),
(604,188,cs),
(604,304,o),
(514,363,o),
(391,368,c),
(434,308,l),
(434,427,l),
(394,365,l),
(496,371,o),
(573,442,o),
(573,543,cs),
(573,648,o),
(472,710,o),
(357,710,cs),
(307,710,o),
(229,705,o),
(179,705,cs),
(152,705,o),
(96,708,o),
(60,710,c),
(55,640,l),
(176,619,l),
(118,668,l),
(118,666,o),
(132,580,o),
(132,549,cs),
(132,157,ls),
(132,131,o),
(122,61,o),
(118,36,c),
(179,83,l),
(54,60,l),
(59,-5,l)
);
},
{
closed = 1;
nodes = (
(279,64,o),
(271,141,o),
(271,187,cs),
(271,519,ls),
(271,569,o),
(278,643,o),
(279,658,c),
(240,635,l),
(269,635,o),
(303,635,o),
(333,635,cs),
(403,635,o),
(441,591,o),
(441,524,cs),
(441,449,o),
(398,404,o),
(326,404,cs),
(320,404,l),
(313,324,l),
(323,324,ls),
(402,324,o),
(464,292,o),
(464,200,cs),
(464,118,o),
(413,71,o),
(340,71,cs),
(302,71,o),
(272,75,o),
(242,80,c),
(282,46,l)
);
}
);
width = 664;
},
{
anchors = (
{
name = bottom;
pos = (316,0);
},
{
name = top;
pos = (316,705);
}
);
layerId = "4E6502B1-B066-4D3E-9BD1-B1D9901B4F4F";
shapes = (
{
closed = 1;
nodes = (
(107,-3,o),
(170,0,o),
(195,0,cs),
(245,0,o),
(312,-4,o),
(362,-4,cs),
(475,-4,o),
(563,70,o),
(563,183,cs),
(563,295,o),
(480,359,o),
(368,366,c),
(393,329,l),
(393,404,l),
(370,365,l),
(463,378,o),
(532,446,o),
(532,543,cs),
(532,648,o),
(447,710,o),
(345,710,cs),
(295,710,o),
(228,705,o),
(178,705,cs),
(159,705,o),
(100,708,o),
(63,710,c),
(58,658,l),
(156,643,l),
(132,670,l),
(136,651,o),
(145,591,o),
(145,570,cs),
(145,135,ls),
(145,113,o),
(136,49,o),
(132,24,c),
(170,67,l),
(56,44,l),
(61,-5,l)
);
},
{
closed = 1;
nodes = (
(237,44,o),
(231,110,o),
(231,165,cs),
(231,540,ls),
(231,593,o),
(240,666,o),
(242,681,c),
(219,656,l),
(248,658,o),
(287,658,o),
(324,658,cs),
(394,658,o),
(443,608,o),
(443,532,cs),
(443,441,o),
(379,393,o),
(299,393,cs),
(291,393,l),
(284,338,l),
(296,338,ls),
(386,338,o),
(466,292,o),
(466,190,cs),
(466,100,o),
(411,52,o),
(331,52,cs),
(289,52,o),
(246,56,o),
(221,58,c),
(242,20,l)
);
}
);
width = 628.8;
}
);
unicode = 66;
},
{
color = 6;
glyphname = C;
kernLeft = UC_Round;
kernRight = UC_C;
layers = (
{
anchors = (
{
name = bottom;
pos = (398,0);
},
{
name = top;
pos = (398,720);
}
);
layerId = "16643525-C5DD-48EC-8E99-463BF28F5E85";
shapes = (
{
closed = 1;
nodes = (
(490,-15,o),
(565,3,o),
(630,19,c),
(622,186,l),
(551,184,l),
(548,137,ls),
(547,123,o),
(528,75,o),
(516,47,c),
(575,97,l),
(507,78,o),
(458,69,o),
(406,69,cs),
(278,69,o),
(226,195,o),
(226,353,cs),
(226,511,o),
(279,636,o),
(407,636,cs),
(458,636,o),
(506,625,o),
(565,609,c),
(509,657,l),
(518,630,o),
(535,589,o),
(535,576,cs),
(537,519,l),
(609,515,l),
(621,686,l),
(554,704,o),
(491,720,o),
(407,720,cs),
(181,720,o),
(65,570,o),
(65,352,cs),
(65,134,o),
(181,-15,o),
(407,-15,cs)
);
}
);
width = 699;
},
{
anchors = (
{
name = bottom;
pos = (377,0);
},
{
name = top;
pos = (377,720);
}
);
layerId = "4E6502B1-B066-4D3E-9BD1-B1D9901B4F4F";
shapes = (
{
closed = 1;
nodes = (
(468,-15,o),
(540,3,o),
(603,19,c),
(597,168,l),
(539,166,l),
(537,119,ls),
(536,105,o),
(525,65,o),
(514,36,c),
(542,70,l),
(500,53,o),
(434,40,o),
(386,40,cs),
(242,40,o),
(170,179,o),
(170,353,cs),
(170,528,o),
(242,665,o),
(387,665,cs),
(432,665,o),
(494,650,o),
(533,633,c),
(507,666,l),
(514,642,o),
(526,603,o),
(526,590,cs),
(526,544,l),
(584,540,l),
(594,686,l),
(531,702,o),
(469,720,o),
(387,720,cs),
(179,720,o),
(73,570,o),
(73,352,cs),
(73,134,o),
(179,-15,o),
(387,-15,cs)
);
}
);
width = 674.8;
}
);
unicode = 67;
},
{
color = 6;
glyphname = D;
kernLeft = UC_Stem;
kernRight = UC_Round;
layers = (
{
anchors = (
{
name = bottom;
pos = (353,0);
},
{
name = center;
pos = (209,353);
},
{
name = top;
pos = (355,720);
}
);
layerId = "16643525-C5DD-48EC-8E99-463BF28F5E85";
shapes = (
{
closed = 1;
nodes = (
(107,-3,o),
(176,0,o),
(205,0,cs),
(255,0,o),
(313,-5,o),
(363,-5,cs),
(591,-5,o),
(714,142,o),
(714,352,cs),
(714,564,o),
(593,710,o),
(363,710,cs),
(309,710,o),
(233,705,o),
(179,705,cs),
(152,705,o),
(96,708,o),
(60,710,c),
(55,640,l),
(179,619,l),
(118,676,l),
(122,648,o),
(132,577,o),
(132,549,cs),
(132,157,ls),
(132,130,o),
(123,70,o),
(117,31,c),
(179,83,l),
(54,60,l),
(59,-5,l)
);
},
{
closed = 1;
nodes = (
(277,51,o),
(271,139,o),
(271,187,cs),
(271,519,ls),
(271,568,o),
(278,663,o),
(279,671,c),
(249,630,l),
(267,630,o),
(318,633,o),
(353,633,cs),
(505,633,o),
(564,504,o),
(564,354,cs),
(564,198,o),
(506,72,o),
(352,72,cs),
(313,72,o),
(270,75,o),
(246,75,c),
(280,35,l)
);
}
);
width = 777;
},
{
anchors = (
{
name = bottom;
pos = (343,0);
},
{
name = center;
pos = (198,353);
},
{
name = top;
pos = (344,720);
}
);
layerId = "4E6502B1-B066-4D3E-9BD1-B1D9901B4F4F";
shapes = (
{
closed = 1;
nodes = (
(106,-3,o),
(171,0,o),
(195,0,cs),
(245,0,o),
(297,-4,o),
(347,-4,cs),
(561,-4,o),
(691,141,o),
(691,352,cs),
(691,571,o),
(569,710,o),
(347,710,cs),
(279,710,o),
(242,705,o),
(177,705,cs),
(158,705,o),
(100,708,o),
(63,710,c),
(58,658,l),
(170,640,l),
(131,674,l),
(134,657,o),
(145,591,o),
(145,570,cs),
(145,135,ls),
(145,114,o),
(134,45,o),
(130,22,c),
(170,67,l),
(56,44,l),
(61,-5,l)
);
},
{
closed = 1;
nodes = (
(239,59,o),
(231,105,o),
(231,165,cs),
(231,540,ls),
(231,589,o),
(238,660,o),
(243,678,c),
(225,652,l),
(249,652,o),
(291,652,o),
(349,652,cs),
(517,652,o),
(597,515,o),
(597,352,cs),
(597,188,o),
(517,53,o),
(349,53,cs),
(293,53,o),
(250,56,o),
(224,56,c),
(240,36,l)
);
}
);
width = 760.5;
}
);
unicode = 68;
},
{
color = 6;
glyphname = E;
kernLeft = UC_Stem;
kernRight = UC_E;
layers = (
{
anchors = (
{
name = bottom;
pos = (338,0);
},
{
name = ogonek;
pos = (549,-4);
},
{
name = top;
pos = (312,720);
}
);
layerId = "16643525-C5DD-48EC-8E99-463BF28F5E85";
shapes = (
{
closed = 1;
nodes = (
(108,-2,o),
(176,0,o),
(205,0,cs),
(435,0,ls),
(463,0,o),
(511,-2,o),
(549,-4,c),
(568,14,l),
(583,184,l),
(517,189,l),
(504,129,ls),
(500,112,o),
(479,73,o),
(453,42,c),
(506,93,l),
(491,89,o),
(449,80,o),
(405,80,cs),
(240,80,l),
(281,47,l),
(278,72,o),
(271,148,o),
(271,187,cs),
(271,519,ls),
(271,545,o),
(274,610,o),
(279,656,c),
(221,630,l),
(394,630,ls),
(434,630,o),
(481,625,o),
(506,623,c),
(451,675,l),
(465,647,o),
(484,603,o),
(486,590,cs),
(493,542,l),
(561,547,l),
(554,692,l),
(535,710,l),
(497,707,o),
(439,705,o),
(421,705,cs),
(179,705,ls),
(152,705,o),
(96,708,o),
(60,710,c),
(55,640,l),
(179,619,l),
(117,671,l),
(124,630,o),
(132,570,o),
(132,549,cs),
(132,157,ls),
(132,129,o),
(121,60,o),
(117,37,c),
(179,83,l),
(54,60,l),
(59,-5,l)
);
},
{
closed = 1;
nodes = (
(479,260,l),
(477,301,o),
(476,341,o),
(476,382,cs),
(476,466,l),
(419,471,l),
(405,367,l),
(438,409,l),
(419,403,o),
(385,397,o),
(362,397,cs),
(225,397,l),
(225,322,l),
(342,322,ls),
(372,322,o),
(424,317,o),
(454,315,c),
(405,352,l),
(419,254,l)
);
}
);
width = 646;
},
{
anchors = (
{
name = bottom;
pos = (320,0);
},
{
name = ogonek;
pos = (528,-4);
},
{
name = top;
pos = (308,720);
}
);
layerId = "4E6502B1-B066-4D3E-9BD1-B1D9901B4F4F";
shapes = (
{
closed = 1;
nodes = (
(106,-2,o),
(171,0,o),
(195,0,cs),
(414,0,ls),
(431,0,o),
(490,-2,o),
(528,-4,c),
(547,14,l),
(562,163,l),
(508,168,l),
(493,100,ls),
(490,86,o),
(470,61,o),
(456,43,c),
(486,67,l),
(468,63,o),
(424,55,o),
(384,55,cs),
(203,55,l),
(244,13,l),
(238,42,o),
(231,115,o),
(231,165,cs),
(231,540,ls),
(231,566,o),
(237,631,o),
(242,677,c),
(205,651,l),
(371,651,ls),
(407,651,o),
(448,648,o),
(468,645,c),
(435,664,l),
(450,651,o),
(471,622,o),
(473,612,cs),
(484,557,l),
(541,562,l),
(534,692,l),
(515,710,l),
(477,707,o),
(419,705,o),
(401,705,cs),
(178,705,ls),
(159,705,o),
(100,708,o),
(63,710,c),
(58,658,l),
(170,640,l),
(131,682,l),
(137,644,o),
(145,588,o),
(145,570,cs),
(145,135,ls),
(145,114,o),
(134,44,o),
(130,23,c),
(170,67,l),
(56,44,l),
(61,-5,l)
);
},
{
closed = 1;
nodes = (
(467,272,l),
(465,308,o),
(464,344,o),
(464,380,cs),
(464,464,l),
(420,469,l),
(406,364,l),
(437,404,l),
(423,402,o),
(378,394,o),
(350,394,cs),
(203,394,l),
(203,340,l),
(330,340,ls),
(356,340,o),
(420,332,o),
(442,329,c),
(406,370,l),
(420,266,l)
);
}
);
width = 628.4;
}
);
unicode = 69;
},
{
color = 6;
glyphname = Schwa;
kernLeft = UC_Schwa;
kernRight = UC_Round;
layers = (
{
layerId = "16643525-C5DD-48EC-8E99-463BF28F5E85";
shapes = (
{
closed = 1;
nodes = (
(585,-15,o),
(713,131,o),
(713,352,cs),
(713,606,o),
(541,713,o),
(339,713,cs),
(255,713,o),
(158,695,o),
(79,661,c),
(110,594,l),
(176,609,o),
(252,622,o),
(312,622,cs),
(442,622,o),
(533,564,o),
(533,352,cs),
(533,170,o),
(485,82,o),
(386,82,cs),
(294,82,o),
(239,155,o),
(239,306,cs),
(239,319,o),
(239,349,o),
(239,388,c),
(176,319,l),
(552,319,l),
(552,396,l),
(97,415,l),
(59,376,l),
(59,368,o),
(59,336,o),
(59,329,cs),
(59,121,o),
(194,-15,o),
(386,-15,cs)
);
}
);
width = 777;
},
{
layerId = "4E6502B1-B066-4D3E-9BD1-B1D9901B4F4F";
shapes = (
{
closed = 1;
nodes = (
(544,-15,o),
(647,135,o),
(647,352,cs),
(647,598,o),
(504,710,o),
(315,710,cs),
(234,710,o),
(157,694,o),
(88,663,c),
(117,612,l),
(177,635,o),
(243,648,o),
(296,648,cs),
(440,648,o),
(547,555,o),
(547,352,cs),
(547,185,o),
(480,45,o),
(341,45,cs),
(213,45,o),
(165,186,o),
(165,308,cs),
(165,319,o),
(165,349,o),
(165,363,c),
(132,320,l),
(565,328,l),
(565,384,l),
(90,399,l),
(66,367,l),
(66,348,o),
(66,332,o),
(66,314,cs),
(66,136,o),
(162,-15,o),
(341,-15,cs)
);
}
);
width = 718.7;
}
);
unicode = 399;
},
{
color = 6;
glyphname = F;
kernLeft = UC_Stem;
kernRight = UC_F;
layers = (
{
anchors = (
{
name = bottom;
pos = (306,0);
},
{
name = top;
pos = (306,720);
}
);
layerId = "16643525-C5DD-48EC-8E99-463BF28F5E85";
shapes = (
{
closed = 1;
nodes = (
(110,-3,o),
(185,0,o),
(205,0,cs),
(371,0,l),
(376,67,l),
(224,77,l),
(286,33,l),
(280,69,o),
(271,133,o),
(271,187,cs),
(271,519,ls),
(271,564,o),
(278,641,o),
(279,656,c),
(221,630,l),
(391,630,ls),
(435,630,o),
(486,623,o),
(500,622,c),
(458,652,l),
(471,628,o),
(480,610,o),
(483,599,cs),
(488,581,o),
(491,557,o),
(493,541,c),
(561,546,l),
(554,692,l),
(535,710,l),
(500,708,o),
(441,705,o),
(421,705,cs),
(179,705,ls),
(152,705,o),
(96,708,o),
(60,710,c),
(55,640,l),
(179,619,l),
(119,664,l),
(123,630,o),
(132,577,o),
(132,549,cs),
(132,157,ls),
(132,132,o),
(124,76,o),
(117,33,c),
(179,83,l),
(54,60,l),
(59,-5,l)
);
},
{
closed = 1;
nodes = (
(479,250,l),
(478,281,o),
(476,336,o),
(476,372,cs),
(476,455,l),
(419,460,l),
(406,360,l),
(436,399,l),
(415,394,o),
(381,387,o),
(362,387,cs),
(217,387,l),
(217,311,l),
(342,311,ls),
(372,311,o),
(420,306,o),
(447,304,c),
(406,335,l),
(419,244,l)
);
}
);
width = 612;
},
{
anchors = (
{
name = bottom;
pos = (299,0);
},
{
name = top;
pos = (299,720);
}
);
layerId = "4E6502B1-B066-4D3E-9BD1-B1D9901B4F4F";
shapes = (
{
closed = 1;
nodes = (
(111,-3,o),
(170,0,o),
(195,0,cs),
(331,0,l),
(339,53,l),
(204,63,l),
(243,23,l),
(239,43,o),
(231,113,o),
(231,165,c),
(231,540,l),
(231,588,o),
(241,674,o),
(242,680,c),
(205,651,l),
(371,651,ls),
(406,651,o),
(448,646,o),
(468,645,c),
(434,666,l),
(448,653,o),
(471,622,o),
(473,611,c),
(477,596,o),
(482,574,o),
(484,558,c),
(541,563,l),
(534,692,l),
(515,710,l),
(498,709,o),
(421,705,o),
(401,705,cs),
(178,705,ls),
(159,705,o),
(100,708,o),
(63,710,c),
(58,658,l),
(170,640,l),
(130,677,l),
(135,654,o),
(145,591,o),
(145,570,cs),
(145,135,ls),
(145,113,o),
(135,50,o),
(129,19,c),
(170,67,l),
(56,44,l),
(61,-5,l)
);
},
{
closed = 1;
nodes = (
(467,264,l),
(466,289,o),
(464,336,o),
(464,372,cs),
(464,456,l),
(420,461,l),
(407,366,l),
(439,402,l),
(422,397,o),
(379,386,o),
(350,386,cs),
(199,386,l),
(199,332,l),
(330,332,ls),
(356,332,o),
(427,325,o),
(444,322,c),
(407,355,l),
(420,258,l)
);
}
);
width = 595.5;
}
);
unicode = 70;
},
{
color = 6;
glyphname = Fhook;
kernRight = UC_F;
layers = (
{
anchors = (
{
name = bottom;
pos = (294,0);
},
{
name = top;
pos = (294,720);
}
);
layerId = "16643525-C5DD-48EC-8E99-463BF28F5E85";
shapes = (
{
closed = 1;
nodes = (
(206,-190,o),
(259,-81,o),
(259,30,cs),
(259,519,ls),
(259,564,o),
(266,641,o),
(267,656,c),
(209,630,l),
(379,630,ls),
(423,630,o),
(474,623,o),
(488,622,c),
(446,652,l),
(459,628,o),
(468,610,o),
(471,599,cs),
(476,581,o),
(479,557,o),
(481,541,c),
(549,546,l),
(542,692,l),
(523,710,l),
(488,708,o),
(429,705,o),
(409,705,cs),
(167,705,ls),
(140,705,o),
(84,708,o),
(48,710,c),
(43,640,l),
(167,619,l),
(107,664,l),
(111,630,o),
(120,577,o),
(120,549,cs),
(120,13,ls),
(120,-68,o),
(96,-109,o),
(42,-109,c),
(42,-190,l)
);
},
{
closed = 1;
nodes = (
(467,250,l),
(466,281,o),
(464,336,o),
(464,372,cs),
(464,455,l),
(407,460,l),
(394,360,l),
(424,399,l),
(403,394,o),
(369,387,o),
(350,387,cs),
(205,387,l),
(205,311,l),
(330,311,ls),
(360,311,o),
(408,306,o),
(435,304,c),
(394,335,l),
(407,244,l)
);
}
);
width = 599;
},
{
anchors = (
{
name = bottom;
pos = (287,0);
},
{
name = top;
pos = (287,720);
}
);
layerId = "4E6502B1-B066-4D3E-9BD1-B1D9901B4F4F";
shapes = (
{
closed = 1;
nodes = (
(143,-194,o),
(219,-109,o),
(219,-3,cs),
(219,540,l),
(219,588,o),
(229,674,o),
(230,680,c),
(193,651,l),
(359,651,ls),
(394,651,o),
(436,646,o),
(456,645,c),
(422,666,l),
(436,653,o),
(459,622,o),
(461,611,c),
(465,596,o),
(470,574,o),
(472,558,c),
(529,563,l),
(522,692,l),
(503,710,l),
(486,709,o),
(409,705,o),
(389,705,cs),
(166,705,ls),
(147,705,o),
(88,708,o),
(51,710,c),
(46,658,l),
(158,640,l),
(118,677,l),
(123,654,o),
(133,591,o),
(133,570,cs),
(133,2,ls),
(133,-90,o),
(108,-144,o),
(13,-144,c),
(12,-194,l)
);
},
{
closed = 1;
nodes = (
(455,264,l),
(454,289,o),
(452,336,o),
(452,372,cs),
(452,456,l),
(408,461,l),
(395,366,l),
(427,402,l),
(410,397,o),
(367,386,o),
(338,386,cs),
(187,386,l),
(187,332,l),
(318,332,ls),
(344,332,o),
(415,325,o),
(432,322,c),
(395,355,l),
(408,258,l)
);
}
);
width = 583.6;
}
);
unicode = 401;
},
{
color = 6;
glyphname = G;
kernLeft = UC_Round;
kernRight = UC_G;
layers = (
{
anchors = (
{
name = bottom;
pos = (428,0);
},
{
name = top;
pos = (426,720);
}
);
layerId = "16643525-C5DD-48EC-8E99-463BF28F5E85";
shapes = (
{
closed = 1;
nodes = (
(512,-15,o),
(590,3,o),
(659,19,c),
(659,189,ls),
(659,218,o),
(664,287,o),
(668,336,c),
(642,359,l),
(607,358,o),
(555,356,o),
(538,356,cs),
(427,356,l),
(422,268,l),
(584,255,l),
(523,301,l),
(528,276,o),
(538,229,o),
(538,196,cs),
(538,128,ls),
(538,111,o),
(526,65,o),
(519,34,c),
(568,87,l),
(515,76,o),
(469,69,o),
(421,69,cs),
(282,69,o),
(224,195,o),
(224,353,cs),
(224,511,o),
(283,636,o),
(422,636,cs),
(474,636,o),
(538,625,o),
(586,610,c),
(546,651,l),
(557,613,o),
(563,583,o),
(563,576,cs),
(565,519,l),
(637,515,l),
(649,686,l),
(585,703,o),
(510,720,o),
(423,720,cs),
(186,720,o),
(64,570,o),
(64,352,cs),
(64,134,o),
(186,-15,o),
(423,-15,cs)
);
}
);
width = 747;
},
{
anchors = (
{
name = bottom;
pos = (420,0);
},
{
name = top;
pos = (418,720);
}
);
layerId = "4E6502B1-B066-4D3E-9BD1-B1D9901B4F4F";
shapes = (
{
closed = 1;
nodes = (
(489,-15,o),
(565,3,o),
(632,19,c),
(632,164,ls),
(632,206,o),
(637,266,o),
(641,317,c),
(623,334,l),
(600,333,o),
(569,331,o),
(556,331,cs),
(445,331,l),
(440,276,l),
(580,265,l),
(545,298,l),
(548,276,o),
(556,222,o),
(556,196,cs),
(556,128,ls),
(556,113,o),
(545,66,o),
(538,36,c),
(564,68,l),
(516,52,o),
(447,40,o),
(400,40,cs),
(244,40,o),
(167,179,o),
(167,353,cs),
(167,528,o),
(243,665,o),
(400,665,cs),
(450,665,o),
(517,650,o),
(563,634,c),
(535,666,l),
(542,644,o),
(555,604,o),
(555,590,cs),
(555,544,l),
(613,540,l),
(623,686,l),
(555,702,o),
(490,720,o),
(403,720,cs),
(184,720,o),
(72,570,o),
(72,352,cs),
(72,134,o),
(184,-15,o),
(403,-15,cs)
);
}
);
width = 722.8;
}
);
unicode = 71;
},
{
color = 3;
glyphname = Gstroke;
kernLeft = UC_Round;
kernRight = UC_G;
layers = (
{
anchors = (
{
name = bottom;
pos = (428,0);
},
{
name = top;
pos = (426,720);
}
);
layerId = "16643525-C5DD-48EC-8E99-463BF28F5E85";
shapes = (
{
closed = 1;
nodes = (
(512,-15,o),
(590,3,o),
(659,19,c),
(659,209,ls),
(659,238,o),
(664,307,o),
(668,356,c),
(642,379,l),
(607,378,o),
(555,376,o),
(538,376,cs),
(427,376,l),
(422,288,l),
(584,275,l),
(523,321,l),
(528,296,o),
(538,249,o),
(538,216,cs),
(538,128,ls),
(538,111,o),
(526,65,o),
(519,34,c),
(568,87,l),
(515,76,o),
(469,69,o),
(421,69,cs),
(282,69,o),
(224,195,o),
(224,353,cs),
(224,511,o),
(283,636,o),
(422,636,cs),
(474,636,o),
(538,625,o),
(586,610,c),
(546,651,l),
(557,613,o),
(563,583,o),
(563,576,cs),
(565,519,l),
(637,515,l),
(649,686,l),
(585,703,o),
(510,720,o),
(423,720,cs),
(186,720,o),
(64,570,o),
(64,352,cs),
(64,134,o),
(186,-15,o),
(423,-15,cs)
);
},
{
pos = (289,-409);
ref = barcomp;
}
);
width = 802;
},
{
anchors = (
{
name = bottom;
pos = (420,0);
},
{
name = top;
pos = (418,720);
}
);
layerId = "4E6502B1-B066-4D3E-9BD1-B1D9901B4F4F";
shapes = (
{
closed = 1;
nodes = (
(489,-15,o),
(565,3,o),
(632,19,c),
(632,162,ls),
(632,204,o),
(637,264,o),
(641,315,c),
(623,332,l),
(600,331,o),
(569,329,o),
(556,329,cs),
(445,329,l),
(440,274,l),
(580,263,l),
(545,296,l),
(548,274,o),
(556,220,o),
(556,194,cs),
(556,128,ls),
(556,113,o),
(545,66,o),
(538,36,c),
(564,68,l),
(516,52,o),
(447,40,o),
(400,40,cs),
(244,40,o),
(167,179,o),
(167,353,cs),
(167,528,o),
(243,665,o),
(400,665,cs),
(450,665,o),
(517,650,o),
(563,634,c),
(535,666,l),
(542,644,o),
(555,604,o),
(555,590,cs),
(555,544,l),
(613,540,l),
(623,686,l),
(555,702,o),
(490,720,o),
(403,720,cs),
(184,720,o),
(72,570,o),
(72,352,cs),
(72,134,o),
(184,-15,o),
(403,-15,cs)
);
},
{
alignment = -1;
pos = (324,-426);
ref = barcomp;
}
);
width = 756.9;
}
);
unicode = 484;
},
{
color = 6;
glyphname = H;
kernLeft = UC_Stem;
kernRight = UC_Stem;
layers = (
{
anchors = (
{
name = bottom;
pos = (417,0);
},
{
name = center;
pos = (418,520);
},
{
name = top;
pos = (417,720);
}
);
layerId = "16643525-C5DD-48EC-8E99-463BF28F5E85";
shapes = (
{
closed = 1;
nodes = (
(548,-2,o),
(596,0,o),
(635,0,cs),
(775,0,l),
(781,67,l),
(653,78,l),
(716,25,l),
(710,54,o),
(701,134,o),
(701,187,cs),
(701,519,ls),
(701,572,o),
(707,618,o),
(714,663,c),
(653,623,l),
(778,635,l),
(774,710,l),
(709,707,o),
(654,705,o),
(609,705,cs),
(582,705,o),
(526,708,o),
(490,710,c),
(485,640,l),
(608,619,l),
(548,663,l),
(552,639,o),
(562,574,o),
(562,549,cs),
(562,157,ls),
(562,128,o),
(550,55,o),
(545,25,c),
(608,83,l),
(484,60,l),
(489,-5,l)
);
},
{
closed = 1;
nodes = (
(118,-2,o),
(166,0,o),
(205,0,cs),
(346,0,l),
(351,67,l),
(224,78,l),
(286,25,l),
(281,52,o),
(271,131,o),
(271,187,cs),
(271,519,ls),
(271,569,o),
(279,629,o),
(286,669,c),
(224,623,l),
(349,635,l),
(344,710,l),
(279,707,o),
(224,705,o),
(179,705,cs),
(152,705,o),
(96,708,o),
(60,710,c),
(55,640,l),
(179,619,l),
(116,667,l),
(124,632,o),
(132,576,o),
(132,549,cs),
(132,157,ls),
(132,127,o),
(121,56,o),
(116,25,c),
(179,83,l),
(54,60,l),
(59,-5,l)
);
},
{
closed = 1;
nodes = (
(617,308,l),
(617,391,l),
(216,386,l),
(216,308,l)
);
}
);
width = 835;
},
{
anchors = (
{
name = bottom;
pos = (399,0);
},
{
name = center;
pos = (399,520);
},
{
name = top;
pos = (399,720);
}
);
layerId = "4E6502B1-B066-4D3E-9BD1-B1D9901B4F4F";
shapes = (
{
closed = 1;
nodes = (
(537,-2,o),
(582,0,o),
(616,0,cs),
(744,0,l),
(751,53,l),
(626,63,l),
(664,28,l),
(659,53,o),
(653,113,o),
(653,165,cs),
(653,540,ls),
(653,592,o),
(660,655,o),
(662,678,c),
(626,643,l),
(738,653,l),
(734,710,l),
(679,707,o),
(634,705,o),
(599,705,cs),
(580,705,o),
(522,708,o),
(485,710,c),
(480,658,l),
(592,640,l),
(552,678,l),
(556,659,o),
(566,592,o),
(566,570,cs),
(566,135,ls),
(566,114,o),
(558,57,o),
(552,28,c),
(592,67,l),
(477,44,l),
(482,-5,l)
);
},
{
closed = 1;
nodes = (
(116,-2,o),
(161,0,o),
(195,0,cs),
(323,0,l),
(330,53,l),
(204,63,l),
(243,28,l),
(238,54,o),
(231,113,o),
(231,165,cs),
(231,540,ls),
(231,592,o),
(239,661,o),
(242,678,c),
(204,643,l),
(317,653,l),
(313,710,l),
(258,707,o),
(213,705,o),
(178,705,cs),
(159,705,o),
(100,708,o),
(63,710,c),
(58,658,l),
(170,640,l),
(131,678,l),
(135,658,o),
(145,591,o),
(145,570,cs),
(145,135,ls),
(145,114,o),
(134,45,o),
(131,28,c),
(170,67,l),
(56,44,l),
(61,-5,l)
);
},
{
closed = 1;
nodes = (
(621,329,l),
(621,382,l),
(176,377,l),
(176,329,l)
);
}
);
width = 806.4;
}
);
unicode = 72;
},
{
color = 6;
glyphname = I;
kernLeft = UC_Stem;
kernRight = UC_Stem;
layers = (
{
anchors = (
{
name = bottom;
pos = (201,0);
},
{
name = ogonek;
pos = (342,0);
},
{
name = top;
pos = (199,720);
}
);
layerId = "16643525-C5DD-48EC-8E99-463BF28F5E85";
shapes = (
{
closed = 1;
nodes = (
(108,-2,o),
(156,0,o),
(205,0,cs),
(346,0,l),
(351,67,l),
(224,78,l),
(286,25,l),
(281,52,o),
(271,131,o),
(271,187,cs),
(271,519,ls),
(271,569,o),
(279,629,o),
(286,669,c),
(224,623,l),
(349,635,l),
(344,710,l),
(289,707,o),
(234,705,o),
(179,705,cs),
(152,705,o),
(96,708,o),
(60,710,c),
(55,640,l),
(179,619,l),
(116,667,l),
(124,632,o),
(132,576,o),
(132,549,cs),
(132,157,ls),
(132,127,o),
(121,56,o),
(116,25,c),
(179,83,l),
(54,60,l),
(59,-5,l)
);
}
);
width = 407;
},
{
anchors = (
{
name = bottom;
pos = (198,0);
},
{
name = ogonek;
pos = (324,0);
},
{
name = top;
pos = (189,720);
}
);
layerId = "4E6502B1-B066-4D3E-9BD1-B1D9901B4F4F";
shapes = (
{
closed = 1;
nodes = (
(106,-2,o),
(151,0,o),
(195,0,cs),
(323,0,l),
(330,53,l),
(204,63,l),
(243,28,l),
(238,54,o),
(231,113,o),
(231,165,cs),
(231,540,ls),
(231,592,o),
(239,661,o),
(242,678,c),
(204,643,l),
(317,653,l),
(313,710,l),
(268,707,o),
(223,705,o),
(178,705,cs),
(159,705,o),
(100,708,o),
(63,710,c),
(58,658,l),
(170,640,l),
(131,678,l),
(135,658,o),
(145,591,o),
(145,570,cs),
(145,135,ls),
(145,114,o),
(134,45,o),
(131,28,c),
(170,67,l),
(56,44,l),
(61,-5,l)
);
}
);
width = 385;
}
);
unicode = 73;
},
{
color = 3;
glyphname = Iogonek;
kernLeft = UC_Stem;
kernRight = UC_Stem;
layers = (
{
layerId = "16643525-C5DD-48EC-8E99-463BF28F5E85";
shapes = (
{
closed = 1;
nodes = (
(156,-15,l),
(156,-15,o),
(170,0,o),
(200,0,c),
(344,0,l),
(349,71,l),
(284,77,l),
(282,91,o),
(275,153,o),
(275,193,cs),
(275,512,ls),
(275,552,o),
(281,608,o),
(284,623,c),
(350,629,l),
(345,710,l),
(345,710,o),
(251,705,o),
(171,705,cs),
(141,705,o),
(51,710,o),
(51,710,c),
(46,635,l),
(111,623,l),
(113,607,o),
(120,562,o),
(120,542,cs),
(120,163,ls),
(120,111,o),
(109,62,o),
(85,-39,c)
);
},
{
pos = (-29,0);
ref = ogonekcomb;
}
);
width = 405;
},
{
layerId = "4E6502B1-B066-4D3E-9BD1-B1D9901B4F4F";
shapes = (
{
closed = 1;
nodes = (
(146,-25,l),
(146,-25,o),
(159,0,o),
(184,0,c),
(312,0,l),
(318,52,l),
(226,59,l),
(224,73,o),
(219,122,o),
(219,164,cs),
(219,541,ls),
(219,583,o),
(224,632,o),
(226,646,c),
(305,653,l),
(301,710,l),
(301,710,o),
(225,705,o),
(167,705,cs),
(148,705,o),
(52,710,o),
(52,710,c),
(47,658,l),
(125,646,l),
(127,633,o),
(134,587,o),
(134,571,cs),
(134,134,ls),
(134,91,o),
(123,44,o),
(99,-48,c)
);
},
{
alignment = -1;
pos = (15,0);
ref = ogonekcomb;
}
);
width = 373.1;
}
);
unicode = 302;
},
{
color = 6;
glyphname = J;
kernLeft = UC_J;
kernRight = UC_N;
layers = (
{
anchors = (
{
name = bottom;
pos = (190,0);
},
{
name = top;
pos = (190,705);
}
);
layerId = "16643525-C5DD-48EC-8E99-463BF28F5E85";
shapes = (
{
closed = 1;
nodes = (
(176,-119,o),
(259,-26,o),
(259,5,cs),
(259,519,ls),
(259,571,o),
(268,645,o),
(272,674,c),
(211,623,l),
(337,635,l),
(332,710,l),
(294,708,o),
(232,705,o),
(167,705,cs),
(140,705,o),
(84,708,o),
(48,710,c),
(43,640,l),
(167,619,l),
(105,674,l),
(110,644,o),
(120,577,o),
(120,549,cs),
(120,11,ls),
(120,-4,o),
(76,-101,o),
(43,-171,c),
(92,-200,l)
);
}
);
width = 381;
},
{
anchors = (
{
name = bottom;
pos = (177,0);
},
{
name = top;
pos = (177,705);
}
);
layerId = "4E6502B1-B066-4D3E-9BD1-B1D9901B4F4F";
shapes = (
{
closed = 1;
nodes = (
(129,-147,o),
(219,-38,o),
(219,-12,cs),
(219,540,ls),
(219,592,o),
(226,648,o),
(229,674,c),
(192,643,l),
(305,653,l),
(301,710,l),
(305,710,o),
(225,705,o),
(166,705,cs),
(147,705,o),
(88,708,o),
(51,710,c),
(46,658,l),
(158,640,l),
(119,674,l),
(122,659,o),
(133,591,o),
(133,570,cs),
(133,11,ls),
(133,-4,o),
(87,-106,o),
(53,-179,c),
(85,-200,l)
);
}
);
width = 352.4;
}
);
unicode = 74;
},
{
color = 6;
glyphname = K;
kernLeft = UC_Stem;
kernRight = UC_K;
layers = (
{
anchors = (
{
name = bottom;
pos = (379,0);
},
{
name = top;
pos = (379,720);
}
);
layerId = "16643525-C5DD-48EC-8E99-463BF28F5E85";
shapes = (
{
closed = 1;
nodes = (
(505,-3,o),
(586,0,o),
(608,0,cs),
(743,0,l),
(749,67,l),
(639,80,l),
(724,47,l),
(706,62,o),
(647,115,o),
(635,129,cs),
(402,401,l),
(395,325,l),
(558,546,ls),
(568,559,o),
(634,623,o),
(663,649,c),
(584,623,l),
(703,635,l),
(698,710,l),
(639,707,o),
(590,705,o),
(549,705,cs),
(525,705,o),
(481,707,o),
(443,710,c),
(438,640,l),
(530,622,l),
(509,681,l),
(439,578,l),
(281,347,l),
(431,164,ls),
(445,146,o),
(498,61,o),
(509,44,c),
(548,81,l),
(448,60,l),
(453,-5,l)
);
},
{
closed = 1;
nodes = (
(118,-2,o),
(166,0,o),
(205,0,cs),
(346,0,l),
(351,67,l),
(224,78,l),
(286,25,l),
(281,52,o),
(271,131,o),
(271,187,cs),
(271,519,ls),
(271,569,o),
(279,629,o),
(286,669,c),
(224,623,l),
(349,635,l),
(344,710,l),
(279,707,o),
(224,705,o),
(179,705,cs),
(152,705,o),
(96,708,o),
(60,710,c),
(55,640,l),
(179,619,l),
(116,667,l),
(124,632,o),
(132,576,o),
(132,549,cs),
(132,157,ls),
(132,127,o),
(121,56,o),
(116,25,c),
(179,83,l),
(54,60,l),
(59,-5,l)
);
}
);
width = 785;
},
{
anchors = (
{
name = bottom;
pos = (361,0);
},
{
name = top;
pos = (361,720);
}
);
layerId = "4E6502B1-B066-4D3E-9BD1-B1D9901B4F4F";
shapes = (
{
closed = 1;
nodes = (
(469,-3,o),
(533,0,o),
(560,0,cs),
(690,0,l),
(697,53,l),
(592,64,l),
(665,26,l),
(646,42,o),
(561,113,o),
(547,129,cs),
(312,397,l),
(315,343,l),
(468,546,ls),
(478,560,o),
(561,637,o),
(582,655,c),
(538,643,l),
(649,653,l),
(645,710,l),
(593,707,o),
(549,705,o),
(516,705,cs),
(496,705,o),
(445,708,o),
(414,710,c),
(409,658,l),
(499,640,l),
(482,677,l),
(426,577,l),
(241,354,l),
(408,164,ls),
(424,146,o),
(485,49,o),
(497,29,c),
(512,66,l),
(418,44,l),
(423,-5,l)
);
},
{
closed = 1;
nodes = (
(116,-2,o),
(161,0,o),
(195,0,cs),
(323,0,l),
(330,53,l),
(204,63,l),
(243,28,l),
(238,54,o),
(231,113,o),
(231,165,cs),
(231,540,ls),
(231,592,o),
(239,661,o),
(242,678,c),
(204,643,l),
(317,653,l),
(313,710,l),
(258,707,o),
(213,705,o),
(178,705,cs),
(159,705,o),
(100,708,o),
(63,710,c),
(58,658,l),
(170,640,l),
(131,678,l),
(135,658,o),
(145,591,o),
(145,570,cs),
(145,135,ls),
(145,114,o),
(134,45,o),
(131,28,c),
(170,67,l),
(56,44,l),
(61,-5,l)
);
}
);
width = 736.6;
}
);
unicode = 75;
},
{
color = 6;
glyphname = L;
kernLeft = UC_Stem;
kernRight = UC_L;
layers = (
{
anchors = (
{
name = bottom;
pos = (302,0);
},
{
name = center;
pos = (198,355);
},
{
name = centerright;
pos = (537,423);
},
{
name = top;
pos = (232,720);
},
{
name = topright;
pos = (476,494);
}
);
layerId = "16643525-C5DD-48EC-8E99-463BF28F5E85";
shapes = (
{
closed = 1;
nodes = (
(110,-3,o),
(185,0,o),
(205,0,cs),
(409,0,ls),
(424,0,o),
(483,-2,o),
(523,-4,c),
(542,14,l),
(557,184,l),
(491,189,l),
(478,129,ls),
(475,114,o),
(456,77,o),
(427,42,c),
(480,93,l),
(465,89,o),
(423,80,o),
(379,80,cs),
(240,80,l),
(286,25,l),
(281,52,o),
(271,131,o),
(271,187,cs),
(271,519,ls),
(271,569,o),
(279,629,o),
(286,669,c),
(224,623,l),
(359,635,l),
(354,710,l),
(311,708,o),
(254,705,o),
(179,705,cs),
(152,705,o),
(96,708,o),
(60,710,c),
(55,640,l),
(179,619,l),
(116,667,l),
(124,632,o),
(132,576,o),
(132,549,cs),
(132,157,ls),
(132,127,o),
(121,56,o),
(116,25,c),
(179,83,l),
(54,60,l),
(59,-5,l)
);
}
);
width = 608;
},
{
anchors = (
{
name = bottom;
pos = (294,0);
},
{
name = center;
pos = (196,355);
},
{
name = centerright;
pos = (546,423);
},
{
name = top;
pos = (235,720);
},
{
name = topright;
pos = (474,494);
}
);
layerId = "4E6502B1-B066-4D3E-9BD1-B1D9901B4F4F";
shapes = (
{
closed = 1;
nodes = (
(111,-3,o),
(170,0,o),
(195,0,cs),
(388,0,ls),
(407,0,o),
(454,-2,o),
(502,-4,c),
(521,14,l),
(536,163,l),
(482,168,l),
(467,100,ls),
(464,88,o),
(444,61,o),
(430,43,c),
(460,67,l),
(442,63,o),
(398,55,o),
(358,55,cs),
(203,55,l),
(243,28,l),
(238,54,o),
(231,113,o),
(231,165,cs),
(231,540,ls),
(231,592,o),
(239,661,o),
(242,678,c),
(204,643,l),
(327,653,l),
(323,710,l),
(328,710,o),
(236,705,o),
(178,705,cs),
(159,705,o),
(100,708,o),
(63,710,c),
(58,658,l),
(170,640,l),
(131,678,l),
(135,658,o),
(145,591,o),
(145,570,cs),
(145,135,ls),
(145,114,o),
(134,45,o),
(131,28,c),
(170,67,l),
(56,44,l),
(61,-5,l)
);
}
);
width = 592;
}
);
unicode = 76;
},
{
color = 6;
glyphname = M;
kernLeft = UC_Stem;
kernRight = UC_Stem;
layers = (
{
anchors = (
{
name = bottom;
pos = (497,0);
},
{
name = top;
pos = (497,705);
}
);
layerId = "16643525-C5DD-48EC-8E99-463BF28F5E85";
shapes = (
{
closed = 1;
nodes = (
(92,-3,o),
(153,0,o),
(172,0,cs),
(302,0,l),
(309,67,l),
(181,78,l),
(241,31,l),
(237,63,o),
(232,143,o),
(234,186,cs),
(256,591,l),
(234,588,l),
(442,0,l),
(520,0,l),
(732,587,l),
(710,591,l),
(732,156,ls),
(733,127,o),
(726,54,o),
(723,31,c),
(783,83,l),
(659,60,l),
(664,-5,l),
(710,-3,o),
(777,0,o),
(803,0,cs),
(941,0,l),
(947,67,l),
(820,78,l),
(885,31,l),
(879,55,o),
(862,142,o),
(858,186,cs),
(833,519,ls),
(829,569,o),
(833,624,o),
(834,653,c),
(777,623,l),
(902,635,l),
(897,710,l),
(862,708,o),
(800,705,o),
(759,705,cs),
(680,705,l),
(660,685,l),
(645,635,o),
(622,563,o),
(616,546,cs),
(480,156,l),
(516,156,l),
(387,533,ls),
(379,557,o),
(357,634,o),
(342,685,c),
(322,705,l),
(207,705,ls),
(180,705,o),
(125,708,o),
(89,710,c),
(84,640,l),
(208,619,l),
(152,656,l),
(154,636,o),
(160,579,o),
(158,549,cs),
(134,156,ls),
(132,127,o),
(117,65,o),
(109,31,c),
(174,83,l),
(47,60,l),
(52,-5,l)
);
}
);
width = 995;
},
{
anchors = (
{
name = bottom;
pos = (489,0);
},
{
name = top;
pos = (489,705);
}
);
layerId = "4E6502B1-B066-4D3E-9BD1-B1D9901B4F4F";
shapes = (
{
closed = 1;
nodes = (
(95,-3,o),
(156,0,o),
(176,0,cs),
(290,0,l),
(297,53,l),
(181,63,l),
(219,22,l),
(216,37,o),
(208,132,o),
(210,165,cs),
(236,623,l),
(222,621,l),
(456,0,l),
(488,0,l),
(722,621,l),
(708,623,l),
(739,135,ls),
(741,111,o),
(729,39,o),
(726,22,c),
(767,67,l),
(655,44,l),
(660,-5,l),
(705,-3,o),
(769,0,o),
(794,0,cs),
(922,0,l),
(929,53,l),
(812,63,l),
(854,22,l),
(847,54,o),
(829,146,o),
(827,165,cs),
(798,540,ls),
(796,558,o),
(799,620,o),
(800,674,c),
(765,643,l),
(880,653,l),
(876,710,l),
(827,708,o),
(771,705,o),
(719,705,cs),
(699,705,l),
(679,685,l),
(660,630,o),
(632,552,o),
(625,536,c),
(475,140,l),
(500,140,l),
(352,529,l),
(345,546,o),
(318,627,o),
(299,684,c),
(280,705,l),
(205,705,ls),
(186,705,o),
(127,708,o),
(90,710,c),
(85,658,l),
(203,641,l),
(164,685,l),
(168,659,o),
(173,592,o),
(172,571,cs),
(146,135,ls),
(145,114,o),
(121,34,o),
(118,22,c),
(163,67,l),
(50,44,l),
(55,-5,l)
);
}
);
width = 978.5;
}
);
unicode = 77;
},
{
color = 6;
glyphname = N;
kernLeft = UC_Stem;
kernRight = UC_N;
layers = (
{
anchors = (
{
name = bottom;
pos = (418,0);
},
{
name = top;
pos = (413,720);
}
);
layerId = "16643525-C5DD-48EC-8E99-463BF28F5E85";
shapes = (
{
closed = 1;
nodes = (
(99,-3,o),
(160,0,o),
(179,0,cs),
(316,0,l),
(322,67,l),
(196,78,l),
(257,34,l),
(253,65,o),
(244,136,o),
(244,187,cs),
(244,533,l),
(211,522,l),
(586,0,l),
(703,0,l),
(703,519,ls),
(703,574,o),
(716,643,o),
(719,670,c),
(657,623,l),
(782,635,l),
(778,710,l),
(733,708,o),
(691,705,o),
(623,705,cs),
(599,705,o),
(550,708,o),
(519,710,c),
(514,640,l),
(637,619,l),
(574,671,l),
(579,645,o),
(591,576,o),
(591,549,cs),
(591,158,l),
(624,169,l),
(360,536,ls),
(349,551,o),
(302,630,o),
(270,685,c),
(251,705,l),
(171,705,ls),
(146,705,o),
(93,708,o),
(59,710,c),
(54,640,l),
(178,619,l),
(116,669,l),
(120,648,o),
(132,575,o),
(132,549,cs),
(132,157,ls),
(132,129,o),
(122,67,o),
(118,41,c),
(179,83,l),
(54,60,l),
(59,-5,l)
);
}
);
width = 825;
},
{
anchors = (
{
name = bottom;
pos = (416,0);
},
{
name = top;
pos = (394,720);
}
);
layerId = "4E6502B1-B066-4D3E-9BD1-B1D9901B4F4F";
shapes = (
{
closed = 1;
nodes = (
(103,-3,o),
(164,0,o),
(185,0,cs),
(291,0,l),
(298,53,l),
(182,63,l),
(220,26,l),
(216,53,o),
(209,113,o),
(209,165,cs),
(209,598,l),
(189,592,l),
(608,0,l),
(662,0,l),
(663,540,ls),
(663,595,o),
(681,655,o),
(686,679,c),
(645,643,l),
(758,653,l),
(754,710,l),
(725,708,o),
(684,705,o),
(625,705,cs),
(606,705,o),
(549,708,o),
(518,710,c),
(513,658,l),
(626,640,l),
(586,684,l),
(590,665,o),
(601,590,o),
(601,570,cs),
(601,129,l),
(621,135,l),
(336,529,ls),
(324,546,o),
(273,628,o),
(238,685,c),
(218,705,l),
(177,705,ls),
(157,705,o),
(99,708,o),
(61,710,c),
(56,658,l),
(171,641,l),
(134,673,l),
(135,658,o),
(146,590,o),
(146,570,cs),
(146,135,ls),
(146,114,o),
(136,49,o),
(132,29,c),
(171,67,l),
(58,44,l),
(63,-5,l)
);
}
);
width = 805.2;
}
);
unicode = 78;
},
{
color = 6;
glyphname = Nhookleft;
kernLeft = LC_J;
kernRight = UC_N;
layers = (
{
anchors = (
{
name = bottom;
pos = (409,0);
},
{
name = top;
pos = (409,705);
}
);
layerId = "16643525-C5DD-48EC-8E99-463BF28F5E85";
shapes = (
{
closed = 1;
nodes = (
(187,-190,o),
(233,-81,o),
(233,30,cs),
(233,533,l),
(200,522,l),
(575,0,l),
(692,0,l),
(692,519,ls),
(692,574,o),
(705,643,o),
(708,670,c),
(646,623,l),
(771,635,l),
(767,710,l),
(722,708,o),
(680,705,o),
(612,705,cs),
(588,705,o),
(539,708,o),
(508,710,c),
(503,640,l),
(626,619,l),
(563,671,l),
(568,645,o),
(580,576,o),
(580,549,cs),
(580,158,l),
(613,169,l),
(349,536,ls),
(338,551,o),
(291,630,o),
(259,685,c),
(240,705,l),
(160,705,ls),
(135,705,o),
(82,708,o),
(48,710,c),
(43,640,l),
(167,619,l),
(105,669,l),
(109,648,o),
(121,575,o),
(121,549,c),
(122,13,ls),
(122,-68,o),
(98,-109,o),
(44,-109,c),
(44,-190,l)
);
}
);
width = 814;
},
{
anchors = (
{
name = bottom;
pos = (393,0);
},
{
name = top;
pos = (393,705);
}
);
layerId = "4E6502B1-B066-4D3E-9BD1-B1D9901B4F4F";
shapes = (
{
closed = 1;
nodes = (
(149,-194,o),
(199,-142,o),
(199,-3,cs),
(199,598,l),
(179,592,l),
(598,0,l),
(652,0,l),
(654,540,ls),
(654,595,o),
(671,655,o),
(676,679,c),
(635,643,l),
(748,653,l),
(744,710,l),
(715,708,o),
(675,705,o),
(615,705,cs),
(596,705,o),
(539,708,o),
(508,710,c),
(503,658,l),
(616,640,l),
(576,684,l),
(580,665,o),
(591,590,o),
(591,570,cs),
(591,129,l),
(611,135,l),
(326,529,ls),
(314,546,o),
(263,628,o),
(228,685,c),
(208,705,l),
(167,705,ls),
(147,705,o),
(89,708,o),
(51,710,c),
(46,658,l),
(162,641,l),
(124,673,l),
(126,658,o),
(136,590,o),
(136,570,c),
(136,2,ls),
(136,-101,o),
(106,-144,o),
(34,-144,c),
(33,-194,l)
);
}
);
width = 795.3;
}
);
unicode = 413;
},
{
color = 6;
glyphname = Eng;
kernLeft = UC_Stem;
kernRight = UC_N;
layers = (
{
layerId = "16643525-C5DD-48EC-8E99-463BF28F5E85";
shapes = (
{
closed = 1;
nodes = (
(631,-115,o),
(703,-31,o),
(703,0,cs),
(703,519,ls),
(703,569,o),
(713,628,o),
(718,660,c),
(650,622,l),
(782,635,l),
(778,710,l),
(733,708,o),
(691,705,o),
(623,705,cs),
(599,705,o),
(550,708,o),
(519,710,c),
(514,640,l),
(644,617,l),
(577,668,l),
(579,638,o),
(591,575,o),
(591,549,cs),
(591,152,l),
(628,164,l),
(360,536,ls),
(349,551,o),
(302,630,o),
(270,685,c),
(251,705,l),
(171,705,ls),
(146,705,o),
(93,708,o),
(59,710,c),
(54,640,l),
(185,617,l),
(118,663,l),
(120,642,o),
(132,573,o),
(132,549,cs),
(132,157,ls),
(132,127,o),
(121,64,o),
(119,37,c),
(185,85,l),
(54,60,l),
(59,-5,l),
(99,-3,o),
(160,0,o),
(179,0,cs),
(316,0,l),
(322,67,l),
(189,78,l),
(256,39,l),
(251,74,o),
(244,139,o),
(244,187,cs),
(244,539,l),
(207,527,l),
(622,-49,l),
(599,71,l),
(597,-5,o),
(531,-107,o),
(492,-169,c),
(546,-200,l)
);
}
);
width = 825;
},
{
layerId = "4E6502B1-B066-4D3E-9BD1-B1D9901B4F4F";
shapes = (
{
closed = 1;
nodes = (
(650,-55,o),
(662,-27,o),
(662,0,cs),
(663,540,ls),
(663,584,o),
(676,634,o),
(682,662,c),
(645,643,l),
(758,653,l),
(754,710,l),
(725,708,o),
(684,705,o),
(625,705,cs),
(606,705,o),
(549,708,o),
(518,710,c),
(513,658,l),
(625,640,l),
(587,669,l),
(594,639,o),
(601,586,o),
(601,570,cs),
(601,129,l),
(620,134,l),
(336,529,ls),
(324,546,o),
(273,628,o),
(238,685,c),
(218,705,l),
(177,705,ls),
(157,705,o),
(99,708,o),
(61,710,c),
(56,658,l),
(171,641,l),
(135,665,l),
(138,643,o),
(146,587,o),
(146,570,cs),
(146,135,ls),
(146,116,o),
(138,65,o),
(134,38,c),
(171,66,l),
(58,44,l),
(63,-5,l),
(103,-3,o),
(164,0,o),
(185,0,cs),
(291,0,l),
(298,53,l),
(182,63,l),
(219,42,l),
(214,73,o),
(209,121,o),
(209,165,cs),
(209,597,l),
(189,592,l),
(621,-19,l),
(617,71,l),
(604,-18,o),
(556,-109,o),
(523,-179,c),
(555,-200,l)
);
}
);
width = 805.2;
}
);
unicode = 330;
},
{
color = 6;
glyphname = O;
kernLeft = UC_Round;
kernRight = UC_Round;
layers = (
{
anchors = (
{
name = bottom;
pos = (414,0);
},
{
name = center;
pos = (434,353);
},
{
name = ogonek;
pos = (527,0);
},
{
name = top;
pos = (413,720);
},
{
name = topright;
pos = (615,630);
}
);
layerId = "16643525-C5DD-48EC-8E99-463BF28F5E85";
shapes = (
{
closed = 1;
nodes = (
(630,-15,o),
(764,132,o),
(764,352,cs),
(764,573,o),
(630,720,o),
(414,720,cs),
(197,720,o),
(64,573,o),
(64,352,cs),
(64,132,o),
(197,-15,o),
(414,-15,cs)
);
},
{
closed = 1;
nodes = (
(287,71,o),
(226,172,o),
(226,352,cs),
(226,533,o),
(287,634,o),
(414,634,cs),
(541,634,o),
(602,533,o),
(602,352,cs),
(602,172,o),
(541,71,o),
(414,71,cs)
);
}
);
width = 829;
},
{
anchors = (
{
name = bottom;
pos = (398,0);
},
{
name = center;
pos = (407,353);
},
{
name = ogonek;
pos = (507,0);
},
{
name = top;
pos = (398,720);
},
{
name = topright;
pos = (577,630);
}
);
layerId = "4E6502B1-B066-4D3E-9BD1-B1D9901B4F4F";
shapes = (
{
closed = 1;
nodes = (
(615,-15,o),
(723,135,o),
(723,352,cs),
(723,570,o),
(615,720,o),
(398,720,cs),
(181,720,o),
(72,570,o),
(72,352,cs),
(72,135,o),
(181,-15,o),
(398,-15,cs)
);
},
{
closed = 1;
nodes = (
(246,35,o),
(173,179,o),
(173,352,cs),
(173,526,o),
(246,670,o),
(398,670,cs),
(549,670,o),
(622,526,o),
(622,352,cs),
(622,179,o),
(549,35,o),
(398,35,cs)
);
}
);
width = 815;
}
);
unicode = 79;
},
{
color = 6;
glyphname = Oslash;
kernLeft = UC_Round;
kernRight = UC_Round;
layers = (
{
anchors = (
{
name = bottom;
pos = (413,0);
},
{
name = center;
pos = (433,353);
},
{
name = ogonek;
pos = (526,0);
},
{
name = top;
pos = (413,705);
},
{
name = topright;
pos = (614,630);
}
);
layerId = "16643525-C5DD-48EC-8E99-463BF28F5E85";
shapes = (
{
closed = 1;
nodes = (
(709,809,l),
(650,838,l),
(153,-108,l),
(210,-137,l)
);
},
{
closed = 1;
nodes = (
(629,-15,o),
(763,132,o),
(763,352,cs),
(763,573,o),
(629,720,o),
(413,720,cs),
(196,720,o),
(63,573,o),
(63,352,cs),
(63,132,o),
(196,-15,o),
(413,-15,cs)
);
},
{
closed = 1;
nodes = (
(286,71,o),
(225,172,o),
(225,352,cs),
(225,533,o),
(286,634,o),
(413,634,cs),
(540,634,o),
(601,533,o),
(601,352,cs),
(601,172,o),
(540,71,o),
(413,71,cs)
);
}
);
width = 826;
},
{
anchors = (
{
name = bottom;
pos = (398,0);
},
{
name = center;
pos = (407,353);
},
{
name = ogonek;
pos = (507,0);
},
{
name = top;
pos = (398,705);
},
{
name = topright;
pos = (577,630);
}
);
layerId = "4E6502B1-B066-4D3E-9BD1-B1D9901B4F4F";
shapes = (
{
closed = 1;
nodes = (
(665,816,l),
(625,838,l),
(124,-114,l),
(163,-136,l)
);
},
{
closed = 1;
nodes = (
(615,-15,o),
(723,135,o),
(723,352,cs),
(723,570,o),
(615,720,o),
(398,720,cs),
(181,720,o),
(72,570,o),
(72,352,cs),
(72,135,o),
(181,-15,o),
(398,-15,cs)
);
},
{
closed = 1;
nodes = (
(246,35,o),
(173,179,o),
(173,352,cs),
(173,526,o),
(246,670,o),
(398,670,cs),
(549,670,o),
(622,526,o),
(622,352,cs),
(622,179,o),
(549,35,o),
(398,35,cs)
);
}
);
width = 795.2;
}
);
unicode = 216;
},
{
color = 6;
glyphname = OE;
kernLeft = UC_Round;
kernRight = UC_E;
layers = (
{
anchors = (
{
name = bottom;
pos = (305,0);
},
{
name = top;
pos = (305,720);
}
);
layerId = "16643525-C5DD-48EC-8E99-463BF28F5E85";
shapes = (
{
closed = 1;
nodes = (
(467,-6,o),
(522,-2,o),
(577,0,c),
(652,47,l),
(650,69,o),
(643,141,o),
(643,187,cs),
(643,519,ls),
(643,568,o),
(649,638,o),
(650,656,c),
(550,705,l),
(505,707,o),
(458,710,o),
(413,710,cs),
(196,710,o),
(63,567,o),
(63,352,cs),
(63,138,o),
(196,-6,o),
(413,-6,cs)
);
},
{
closed = 1;
nodes = (
(550,83,l),
(505,80,o),
(458,80,o),
(413,80,cs),
(286,80,o),
(225,179,o),
(225,352,cs),
(225,526,o),
(286,624,o),
(413,624,cs),
(464,624,o),
(511,623,o),
(550,622,c),
(498,671,l),
(502,640,o),
(504,577,o),
(504,549,cs),
(504,157,ls),
(504,130,o),
(502,64,o),
(499,37,c)
);
},
{
closed = 1;
nodes = (
(919,14,l),
(934,184,l),
(868,189,l),
(855,129,ls),
(851,112,o),
(830,73,o),
(804,42,c),
(857,93,l),
(842,89,o),
(800,80,o),
(756,80,cs),
(530,80,l),
(530,0,l),
(786,0,ls),
(814,0,o),
(862,-2,o),
(900,-4,c)
);
},
{
closed = 1;
nodes = (
(830,260,l),
(828,301,o),
(827,341,o),
(827,382,cs),
(827,466,l),
(770,471,l),
(756,367,l),
(789,409,l),
(770,403,o),
(736,397,o),
(713,397,cs),
(530,397,l),
(530,322,l),
(693,322,ls),
(723,322,o),
(775,317,o),
(805,315,c),
(756,352,l),
(770,254,l)
);
},
{
closed = 1;
nodes = (
(912,547,l),
(905,692,l),
(886,710,l),
(848,707,o),
(790,705,o),
(772,705,cs),
(530,705,l),
(530,630,l),
(745,630,ls),
(785,630,o),
(832,625,o),
(857,623,c),
(802,675,l),
(816,647,o),
(835,603,o),
(837,590,cs),
(844,542,l)
);
}
);
width = 997;
},
{
anchors = (
{
name = bottom;
pos = (297,0);
},
{
name = top;
pos = (297,720);
}
);
layerId = "4E6502B1-B066-4D3E-9BD1-B1D9901B4F4F";
shapes = (
{
closed = 1;
nodes = (
(448,-5,o),
(501,-2,o),
(553,0,c),
(601,13,l),
(596,43,o),
(589,116,o),
(589,165,c),
(589,540,ls),
(589,588,o),
(596,662,o),
(599,677,c),
(536,705,l),
(490,707,o),
(443,710,o),
(397,710,cs),
(180,710,o),
(71,564,o),
(71,352,cs),
(71,141,o),
(180,-5,o),
(397,-5,cs)
);
},
{
closed = 1;
nodes = (
(528,56,l),
(484,44,o),
(437,44,o),
(397,45,cs),
(245,49,o),
(172,185,o),
(172,352,cs),
(172,521,o),
(246,660,o),
(397,660,cs),
(437,660,o),
(484,657,o),
(528,651,c),
(499,682,l),
(504,644,o),
(503,591,o),
(503,570,cs),
(503,135,ls),
(503,114,o),
(502,43,o),
(498,23,c)
);
},
{
closed = 1;
nodes = (
(908,14,l),
(923,163,l),
(869,168,l),
(854,100,ls),
(851,86,o),
(831,61,o),
(817,43,c),
(847,67,l),
(829,63,o),
(785,55,o),
(745,55,cs),
(539,55,l),
(539,0,l),
(775,0,ls),
(792,0,o),
(851,-2,o),
(889,-4,c)
);
},
{
closed = 1;
nodes = (
(828,272,l),
(826,308,o),
(825,344,o),
(825,380,cs),
(825,464,l),
(781,469,l),
(767,364,l),
(798,404,l),
(784,402,o),
(739,394,o),
(711,394,cs),
(539,394,l),
(539,340,l),
(691,340,ls),
(716,340,o),
(781,332,o),
(803,329,c),
(767,370,l),
(781,266,l)
);
},
{
closed = 1;
nodes = (
(902,562,l),
(895,692,l),
(876,710,l),
(838,707,o),
(780,705,o),
(762,705,cs),
(539,705,l),
(539,651,l),
(732,651,ls),
(767,651,o),
(809,648,o),
(828,645,c),
(795,664,l),
(811,651,o),
(832,622,o),
(834,612,cs),
(845,557,l)
);
}
);
width = 989.3;
}
);
unicode = 338;
},
{
color = 6;
glyphname = P;
kernLeft = UC_Stem;
kernRight = UC_F;
layers = (
{
anchors = (
{
name = bottom;
pos = (327,0);
},
{
name = top;
pos = (327,705);
}
);
layerId = "16643525-C5DD-48EC-8E99-463BF28F5E85";
shapes = (
{
closed = 1;
nodes = (
(108,-3,o),
(176,0,o),
(205,0,cs),
(356,0,l),
(362,67,l),
(224,78,l),
(286,25,l),
(281,52,o),
(271,131,o),
(271,187,cs),
(271,519,ls),
(271,568,o),
(276,629,o),
(282,669,c),
(179,705,l),
(152,705,o),
(96,708,o),
(60,710,c),
(55,640,l),
(179,619,l),
(116,667,l),
(124,632,o),
(132,576,o),
(132,549,cs),
(132,157,ls),
(132,127,o),
(121,56,o),
(116,25,c),
(179,83,l),
(54,60,l),
(59,-5,l)
);
},
{
closed = 1;
nodes = (
(474,276,o),
(600,357,o),
(600,498,cs),
(600,633,o),
(506,710,o),
(367,710,cs),
(312,710,o),
(234,705,o),
(179,705,c),
(179,627,l),
(209,630,o),
(285,636,o),
(313,636,cs),
(408,636,o),
(455,591,o),
(455,498,cs),
(455,402,o),
(395,350,o),
(301,350,cs),
(259,350,o),
(216,352,o),
(174,353,c),
(174,277,l),
(261,276,o),
(301,276,o),
(335,276,cs)
);
}
);
width = 653;
},
{
anchors = (
{
name = bottom;
pos = (314,0);
},
{
name = top;
pos = (314,705);
}
);
layerId = "4E6502B1-B066-4D3E-9BD1-B1D9901B4F4F";
shapes = (
{
closed = 1;
nodes = (
(106,-3,o),
(171,0,o),
(195,0,cs),
(333,0,l),
(340,53,l),
(204,63,l),
(243,28,l),
(238,54,o),
(231,113,o),
(231,165,cs),
(231,540,ls),
(231,592,o),
(240,661,o),
(242,678,c),
(178,705,l),
(159,705,o),
(100,708,o),
(63,710,c),
(58,658,l),
(170,640,l),
(131,678,l),
(135,658,o),
(145,591,o),
(145,570,cs),
(145,135,ls),
(145,114,o),
(134,45,o),
(131,28,c),
(170,67,l),
(56,44,l),
(61,-5,l)
);
},
{
closed = 1;
nodes = (
(456,293,o),
(567,368,o),
(567,502,cs),
(567,640,o),
(483,710,o),
(345,710,cs),
(290,710,o),
(233,705,o),
(178,705,c),
(178,655,l),
(221,659,o),
(261,662,o),
(304,662,cs),
(409,662,o),
(478,606,o),
(478,502,cs),
(478,393,o),
(409,340,o),
(304,340,cs),
(257,340,o),
(209,348,o),
(162,354,c),
(162,298,l),
(220,295,o),
(267,293,o),
(323,293,cs)
);
}
);
width = 626.6;
}
);
unicode = 80;
},
{
color = 6;
glyphname = Thorn;
kernLeft = UC_Stem;
kernRight = UC_Thorn;
layers = (
{
anchors = (
{
name = bottom;
pos = (321,0);
},
{
name = top;
pos = (321,705);
}
);
layerId = "16643525-C5DD-48EC-8E99-463BF28F5E85";
shapes = (
{
closed = 1;
nodes = (
(108,-2,o),
(156,0,o),
(205,0,cs),
(346,0,l),
(351,67,l),
(224,78,l),
(286,25,l),
(281,52,o),
(271,131,o),
(271,187,cs),
(271,519,ls),
(271,569,o),
(279,629,o),
(286,669,c),
(224,623,l),
(349,635,l),
(344,710,l),
(289,707,o),
(234,705,o),
(179,705,cs),
(152,705,o),
(96,708,o),
(60,710,c),
(55,640,l),
(179,619,l),
(116,667,l),
(124,632,o),
(132,576,o),
(132,549,cs),
(132,157,ls),
(132,127,o),
(121,56,o),
(116,25,c),
(179,83,l),
(54,60,l),
(59,-5,l)
);
},
{
closed = 1;
nodes = (
(237,162,o),
(318,163,o),
(342,163,cs),
(478,163,o),
(591,234,o),
(591,358,cs),
(591,480,o),
(498,554,o),
(359,554,cs),
(338,554,o),
(249,552,o),
(209,549,c),
(209,478,l),
(226,478,o),
(296,479,o),
(305,479,cs),
(400,479,o),
(447,438,o),
(447,358,cs),
(447,279,o),
(385,238,o),
(293,238,cs),
(284,238,o),
(222,238,o),
(209,237,c),
(209,162,l)
);
}
);
width = 642;
},
{
anchors = (
{
name = bottom;
pos = (306,0);
},
{
name = top;
pos = (306,705);
}
);
layerId = "4E6502B1-B066-4D3E-9BD1-B1D9901B4F4F";
shapes = (
{
closed = 1;
nodes = (
(56,-4,o),
(173,1,o),
(195,1,c),
(323,1,l),
(330,54,l),
(204,64,l),
(243,29,l),
(238,55,o),
(231,115,o),
(231,165,cs),
(231,541,ls),
(231,593,o),
(239,662,o),
(242,679,c),
(204,644,l),
(317,654,l),
(313,711,l),
(274,708,o),
(238,705,o),
(178,705,cs),
(159,705,o),
(100,708,o),
(63,710,c),
(58,658,l),
(172,641,l),
(131,679,l),
(135,660,o),
(145,593,o),
(145,571,cs),
(145,136,ls),
(145,115,o),
(134,46,o),
(131,29,c),
(170,68,l),
(56,45,l),
(61,-4,l)
);
},
{
closed = 1;
nodes = (
(197,168,o),
(281,167,o),
(309,167,cs),
(443,167,o),
(555,238,o),
(555,361,cs),
(555,491,o),
(471,558,o),
(333,558,cs),
(302,558,o),
(211,555,o),
(169,552,c),
(169,504,l),
(195,507,o),
(271,510,o),
(291,510,cs),
(396,510,o),
(466,459,o),
(466,361,cs),
(466,265,o),
(396,216,o),
(292,216,cs),
(263,216,o),
(200,217,o),
(169,219,c),
(169,168,l)
);
}
);
width = 612.3;
}
);
unicode = 222;
},
{
color = 6;
glyphname = Q;
kernLeft = UC_Round;
kernRight = UC_Q;
layers = (
{
anchors = (
{
name = bottom;
pos = (413,0);
},
{
name = top;
pos = (413,705);
}
);
layerId = "16643525-C5DD-48EC-8E99-463BF28F5E85";
shapes = (
{
closed = 1;
nodes = (
(629,-15,o),
(763,132,o),
(763,352,cs),
(763,573,o),
(629,720,o),
(413,720,cs),
(196,720,o),
(63,573,o),
(63,352,cs),
(63,132,o),
(196,-15,o),
(413,-15,cs)
);
},
{
closed = 1;
nodes = (
(795,-108,l),
(734,-83,o),
(648,-46,o),
(637,-39,cs),
(523,38,l),
(402,10,l),
(713,-224,l)
);
},
{
closed = 1;
nodes = (
(286,71,o),
(225,172,o),
(225,352,cs),
(225,533,o),
(286,634,o),
(413,634,cs),
(540,634,o),
(601,533,o),
(601,352,cs),
(601,172,o),
(540,71,o),
(413,71,cs)
);
}
);
width = 826;
},
{
anchors = (
{
name = bottom;
pos = (399,0);
},
{
name = top;
pos = (399,705);
}
);
layerId = "4E6502B1-B066-4D3E-9BD1-B1D9901B4F4F";
shapes = (
{
closed = 1;
nodes = (
(615,-15,o),
(723,135,o),
(723,352,cs),
(723,570,o),
(615,720,o),
(398,720,cs),
(181,720,o),
(72,570,o),
(72,352,cs),
(72,135,o),
(181,-15,o),
(398,-15,cs)
);
},
{
closed = 1;
nodes = (
(748,-134,l),
(687,-108,o),
(602,-70,o),
(590,-62,cs),
(472,19,l),
(406,7,l),
(691,-224,l)
);
},
{
closed = 1;
nodes = (
(246,35,o),
(173,179,o),
(173,352,cs),
(173,526,o),
(246,670,o),
(398,670,cs),
(549,670,o),
(622,526,o),
(622,352,cs),
(622,179,o),
(549,35,o),
(398,35,cs)
);
}
);
width = 796.3;
}
);
unicode = 81;
},
{
color = 6;
glyphname = R;
kernLeft = UC_Stem;
kernRight = UC_R;
layers = (
{
anchors = (
{
name = bottom;
pos = (344,0);
},
{
name = top;
pos = (334,720);
}
);
layerId = "16643525-C5DD-48EC-8E99-463BF28F5E85";
shapes = (
{
closed = 1;
nodes = (
(108,-3,o),
(176,0,o),
(205,0,cs),
(338,0,l),
(344,67,l),
(224,78,l),
(286,25,l),
(281,52,o),
(271,131,o),
(271,187,cs),
(271,519,ls),
(271,568,o),
(276,629,o),
(282,669,c),
(179,705,l),
(152,705,o),
(96,708,o),
(60,710,c),
(55,640,l),
(179,619,l),
(116,667,l),
(124,632,o),
(132,576,o),
(132,549,cs),
(132,157,ls),
(132,127,o),
(121,56,o),
(116,25,c),
(179,83,l),
(54,60,l),
(59,-5,l)
);
},
{
closed = 1;
nodes = (
(659,0,l),
(665,67,l),
(611,72,l),
(601,87,o),
(581,117,o),
(572,131,cs),
(567,140,o),
(500,243,o),
(450,349,c),
(307,345,l),
(426,116,ls),
(434,100,o),
(460,39,o),
(477,0,c)
);
},
{
closed = 1;
nodes = (
(466,283,o),
(594,368,o),
(594,505,cs),
(594,633,o),
(501,710,o),
(363,710,cs),
(308,710,o),
(234,705,o),
(179,705,c),
(179,626,l),
(210,629,o),
(293,636,o),
(316,636,cs),
(409,636,o),
(449,587,o),
(449,500,cs),
(449,406,o),
(399,359,o),
(306,359,cs),
(260,359,o),
(214,361,o),
(168,362,c),
(168,294,l),
(221,289,o),
(274,283,o),
(326,283,cs)
);
}
);
width = 709;
},
{
anchors = (
{
name = bottom;
pos = (357,0);
},
{
name = top;
pos = (314,720);
}
);
layerId = "4E6502B1-B066-4D3E-9BD1-B1D9901B4F4F";
shapes = (
{
closed = 1;
nodes = (
(106,-3,o),
(171,0,o),
(195,0,cs),
(324,0,l),
(331,53,l),
(204,63,l),
(243,28,l),
(238,54,o),
(231,113,o),
(231,165,cs),
(231,540,ls),
(231,592,o),
(240,661,o),
(242,678,c),
(178,705,l),
(159,705,o),
(100,708,o),
(63,710,c),
(58,658,l),
(170,640,l),
(131,678,l),
(135,658,o),
(145,591,o),
(145,570,cs),
(145,135,ls),
(145,114,o),
(134,45,o),
(131,28,c),
(170,67,l),
(56,44,l),
(61,-5,l)
);
},
{
closed = 1;
nodes = (
(639,0,l),
(646,53,l),
(573,60,l),
(556,83,o),
(532,116,o),
(523,131,cs),
(516,140,o),
(454,243,o),
(401,349,c),
(307,345,l),
(428,116,ls),
(436,100,o),
(466,39,o),
(484,0,c)
);
},
{
closed = 1;
nodes = (
(455,303,o),
(564,377,o),
(564,508,cs),
(564,642,o),
(481,710,o),
(344,710,cs),
(289,710,o),
(233,705,o),
(178,705,c),
(178,652,l),
(221,658,o),
(266,662,o),
(303,662,cs),
(407,662,o),
(475,609,o),
(475,508,cs),
(475,402,o),
(407,350,o),
(303,350,cs),
(256,350,o),
(210,358,o),
(163,364,c),
(163,307,l),
(216,304,o),
(270,303,o),
(323,303,cs)
);
}
);
width = 692.5;
}
);
unicode = 82;
},
{
color = 6;
glyphname = S;
kernLeft = UC_S;
kernRight = UC_S;
layers = (
{
anchors = (
{
name = bottom;
pos = (299,0);
},
{
name = top;
pos = (315,720);
}
);
layerId = "16643525-C5DD-48EC-8E99-463BF28F5E85";
shapes = (
{
closed = 1;
nodes = (
(441,-15,o),
(552,63,o),
(552,199,cs),
(552,428,o),
(227,408,o),
(227,548,cs),
(227,604,o),
(270,637,o),
(331,637,cs),
(384,637,o),
(441,609,o),
(481,589,c),
(406,659,l),
(419,624,o),
(436,574,o),
(436,564,cs),
(438,507,l),
(511,503,l),
(525,685,l),
(456,705,o),
(375,720,o),
(309,720,cs),
(176,720,o),
(79,646,o),
(79,525,cs),
(79,292,o),
(402,318,o),
(402,167,cs),
(402,104,o),
(354,73,o),
(291,73,cs),
(225,73,o),
(172,102,o),
(129,122,c),
(198,50,l),
(196,58,o),
(165,135,o),
(165,148,cs),
(164,212,l),
(85,218,l),
(70,34,l),
(111,13,o),
(201,-15,o),
(300,-15,cs)
);
}
);
width = 616;
},
{
anchors = (
{
name = bottom;
pos = (280,0);
},
{
name = top;
pos = (310,720);
}
);
layerId = "4E6502B1-B066-4D3E-9BD1-B1D9901B4F4F";
shapes = (
{
closed = 1;
nodes = (
(420,-15,o),
(527,48,o),
(527,180,cs),
(527,407,o),
(179,396,o),
(179,555,cs),
(179,630,o),
(232,668,o),
(294,668,cs),
(348,668,o),
(381,664,o),
(438,634,c),
(410,671,l),
(417,645,o),
(428,603,o),
(428,589,cs),
(428,547,l),
(486,540,l),
(500,688,l),
(436,704,o),
(364,720,o),
(299,720,cs),
(176,720,o),
(83,656,o),
(83,536,cs),
(83,322,o),
(426,336,o),
(426,170,cs),
(426,88,o),
(374,42,o),
(292,42,cs),
(235,42,o),
(181,59,o),
(146,76,c),
(164,53,l),
(159,69,o),
(150,123,o),
(150,137,cs),
(150,183,l),
(85,189,l),
(70,38,l),
(107,15,o),
(191,-15,o),
(289,-15,cs)
);
}
);
width = 594;
}
);
unicode = 83;
},
{
color = 6;
glyphname = Germandbls;
kernLeft = UC_Sterm;
kernRight = UC_S;
layers = (
{
layerId = "16643525-C5DD-48EC-8E99-463BF28F5E85";
shapes = (
{
closed = 1;
nodes = (
(98,-3,o),
(173,0,o),
(194,0,c),
(247,0,l),
(267,19,l),
(265,50,o),
(260,149,o),
(260,187,cs),
(260,465,ls),
(260,589,o),
(323,637,o),
(403,637,cs),
(451,637,o),
(498,623,o),
(542,606,c),
(531,669,l),
(377,353,l),
(478,317,l),
(652,660,l),
(633,701,l),
(557,711,o),
(487,720,o),
(414,720,cs),
(223,720,o),
(120,648,o),
(120,465,cs),
(120,157,ls),
(120,131,o),
(111,63,o),
(108,45,c),
(167,83,l),
(42,60,l),
(47,-5,l)
);
},
{
closed = 1;
nodes = (
(669,-14,o),
(760,69,o),
(760,198,cs),
(760,285,o),
(707,347,o),
(608,403,cs),
(485,473,l),
(377,353,l),
(519,279,ls),
(585,245,o),
(610,205,o),
(610,166,cs),
(610,112,o),
(579,74,o),
(520,74,cs),
(462,74,o),
(422,109,o),
(409,121,c),
(452,71,l),
(438,97,o),
(433,141,o),
(433,152,c),
(433,212,l),
(353,218,l),
(338,34,l),
(364,21,o),
(442,-14,o),
(535,-14,cs)
);
}
);
width = 812;
},
{
layerId = "4E6502B1-B066-4D3E-9BD1-B1D9901B4F4F";
shapes = (
{
closed = 1;
nodes = (
(98,-3,o),
(169,0,o),
(190,0,c),
(212,0,l),
(230,17,l),
(228,60,o),
(226,129,o),
(226,165,cs),
(226,465,ls),
(226,607,o),
(299,662,o),
(394,662,cs),
(446,662,o),
(491,656,o),
(544,640,c),
(542,673,l),
(343,385,l),
(414,373,l),
(622,668,l),
(612,698,l),
(539,712,o),
(477,720,o),
(410,720,cs),
(259,720,o),
(135,667,o),
(135,465,cs),
(135,135,ls),
(135,113,o),
(124,43,o),
(121,22,c),
(160,67,l),
(46,44,l),
(51,-5,l)
);
},
{
closed = 1;
nodes = (
(625,-10,o),
(713,64,o),
(713,176,cs),
(713,260,o),
(682,321,o),
(550,389,cs),
(436,448,l),
(343,385,l),
(475,320,ls),
(591,263,o),
(612,216,o),
(612,166,cs),
(612,93,o),
(566,48,o),
(496,48,cs),
(451,48,o),
(406,66,o),
(391,80,c),
(404,52,l),
(402,70,o),
(396,119,o),
(396,137,c),
(396,183,l),
(331,189,l),
(316,38,l),
(373,7,o),
(426,-10,o),
(493,-10,cs)
);
}
);
width = 770.2;
}
);
unicode = 7838;
},
{
color = 6;
glyphname = T;
kernLeft = UC_T;
kernRight = UC_T;
layers = (
{
anchors = (
{
name = bottom;
pos = (354,0);
},
{
name = center;
pos = (352,353);
},
{
name = top;
pos = (353,720);
}
);
layerId = "16643525-C5DD-48EC-8E99-463BF28F5E85";
shapes = (
{
closed = 1;
nodes = (
(248,-3,o),
(332,0,o),
(357,0,cs),
(515,0,l),
(520,67,l),
(375,78,l),
(438,25,l),
(432,55,o),
(423,133,o),
(423,187,cs),
(423,519,ls),
(423,575,o),
(431,629,o),
(438,669,c),
(268,667,l),
(275,635,o),
(284,576,o),
(284,549,cs),
(284,157,ls),
(284,129,o),
(273,58,o),
(268,25,c),
(330,83,l),
(188,60,l),
(193,-5,l)
);
},
{
closed = 1;
nodes = (
(122,530,o),
(128,573,o),
(132,589,c),
(160,679,l),
(105,623,l),
(116,624,o),
(176,630,o),
(224,630,cs),
(486,630,ls),
(535,630,o),
(586,625,o),
(606,623,c),
(543,678,l),
(577,589,l),
(579,574,o),
(585,530,o),
(587,511,c),
(654,516,l),
(646,692,l),
(627,710,l),
(598,708,o),
(529,705,o),
(512,705,cs),
(194,705,ls),
(176,705,o),
(118,708,o),
(80,710,c),
(60,692,l),
(53,516,l),
(120,511,l)
);
}
);
width = 707;
},
{
anchors = (
{
name = bottom;
pos = (349,0);
},
{
name = center;
pos = (341,353);
},
{
name = top;
pos = (344,720);
}
);
layerId = "4E6502B1-B066-4D3E-9BD1-B1D9901B4F4F";
shapes = (
{
closed = 1;
nodes = (
(255,-3,o),
(327,0,o),
(350,0,cs),
(488,0,l),
(495,53,l),
(360,63,l),
(398,28,l),
(394,54,o),
(387,113,o),
(387,165,cs),
(387,540,ls),
(387,592,o),
(395,661,o),
(397,678,c),
(287,678,l),
(290,658,o),
(301,591,o),
(301,570,cs),
(301,135,ls),
(301,114,o),
(290,45,o),
(287,28,c),
(326,67,l),
(202,44,l),
(207,-5,l)
);
},
{
closed = 1;
nodes = (
(117,551,o),
(124,594,o),
(128,609,c),
(162,677,l),
(120,645,l),
(141,646,o),
(193,651,o),
(227,651,cs),
(460,651,ls),
(494,651,o),
(546,647,o),
(566,645,c),
(525,677,l),
(559,609,l),
(564,594,o),
(571,551,o),
(573,524,c),
(630,529,l),
(623,692,l),
(604,710,l),
(565,708,o),
(508,705,o),
(490,705,cs),
(197,705,ls),
(179,705,o),
(121,708,o),
(83,710,c),
(64,692,l),
(57,529,l),
(115,524,l)
);
}
);
width = 687.2;
}
);
unicode = 84;
},
{
color = 6;
glyphname = U;
kernLeft = UC_U;
kernRight = UC_U;
layers = (
{
anchors = (
{
name = bottom;
pos = (401,0);
},
{
name = horn;
pos = (652,460);
},
{
name = ogonek;
pos = (508,0);
},
{
name = top;
pos = (409,720);
}
);
layerId = "16643525-C5DD-48EC-8E99-463BF28F5E85";
shapes = (
{
closed = 1;
nodes = (
(585,-15,o),
(682,97,o),
(682,268,cs),
(682,517,ls),
(682,568,o),
(690,636,o),
(698,678,c),
(635,623,l),
(760,635,l),
(755,710,l),
(717,708,o),
(670,705,o),
(602,705,cs),
(577,705,o),
(526,708,o),
(493,710,c),
(488,640,l),
(612,619,l),
(549,678,l),
(554,643,o),
(565,575,o),
(565,547,cs),
(565,262,ls),
(565,155,o),
(523,87,o),
(415,87,cs),
(315,87,o),
(263,163,o),
(263,262,cs),
(263,517,ls),
(263,567,o),
(268,627,o),
(276,678,c),
(214,623,l),
(340,635,l),
(335,710,l),
(312,709,o),
(242,705,o),
(167,705,cs),
(140,705,o),
(84,708,o),
(48,710,c),
(43,640,l),
(166,619,l),
(105,678,l),
(108,654,o),
(119,577,o),
(119,547,cs),
(119,268,ls),
(119,97,o),
(214,-15,o),
(400,-15,cs)
);
}
);
width = 803;
},
{
anchors = (
{
name = bottom;
pos = (399,0);
},
{
name = horn;
pos = (618,460);
},
{
name = ogonek;
pos = (489,0);
},
{
name = top;
pos = (393,720);
}
);
layerId = "4E6502B1-B066-4D3E-9BD1-B1D9901B4F4F";
shapes = (
{
closed = 1;
nodes = (
(561,-15,o),
(648,95,o),
(648,266,cs),
(648,535,ls),
(648,587,o),
(656,659,o),
(658,682,c),
(621,643,l),
(735,653,l),
(731,710,l),
(694,708,o),
(643,705,o),
(601,705,cs),
(581,705,o),
(533,708,o),
(496,710,c),
(491,658,l),
(608,640,l),
(564,682,l),
(567,669,o),
(580,586,o),
(580,565,cs),
(580,266,ls),
(580,139,o),
(521,45,o),
(400,45,cs),
(283,45,o),
(226,137,o),
(226,266,cs),
(226,535,ls),
(226,587,o),
(234,660,o),
(236,682,c),
(199,643,l),
(313,653,l),
(309,710,l),
(277,708,o),
(202,705,o),
(166,705,cs),
(147,705,o),
(88,708,o),
(51,710,c),
(46,658,l),
(161,641,l),
(120,682,l),
(125,655,o),
(136,586,o),
(136,565,cs),
(136,266,ls),
(136,95,o),
(222,-15,o),
(391,-15,cs)
);
}
);
width = 782.1;
}
);
unicode = 85;
},
{
color = 6;
glyphname = V;
kernLeft = UC_V;
kernRight = UC_V;
layers = (
{
anchors = (
{
name = bottom;
pos = (379,0);
},
{
name = top;
pos = (379,720);
}
);
layerId = "16643525-C5DD-48EC-8E99-463BF28F5E85";
shapes = (
{
closed = 1;
nodes = (
(430,0,l),
(619,520,ls),
(636,566,o),
(676,638,o),
(690,660,c),
(615,624,l),
(715,635,l),
(710,710,l),
(665,707,o),
(609,705,o),
(574,705,cs),
(548,705,o),
(494,708,o),
(459,710,c),
(454,640,l),
(578,619,l),
(538,658,l),
(536,636,o),
(522,575,o),
(514,551,cs),
(375,139,l),
(411,139,l),
(284,517,ls),
(273,550,o),
(251,634,o),
(249,664,c),
(199,623,l),
(342,635,l),
(337,710,l),
(277,707,o),
(207,705,o),
(157,705,cs),
(132,705,o),
(81,707,o),
(48,710,c),
(43,640,l),
(145,615,l),
(73,656,l),
(85,639,o),
(112,587,o),
(126,550,cs),
(329,0,l)
);
}
);
width = 758;
},
{
anchors = (
{
name = bottom;
pos = (388,0);
},
{
name = top;
pos = (388,720);
}
);
layerId = "4E6502B1-B066-4D3E-9BD1-B1D9901B4F4F";
shapes = (
{
closed = 1;
nodes = (
(431,0,l),
(621,548,ls),
(644,612,o),
(671,652,o),
(682,671,c),
(633,642,l),
(727,653,l),
(723,710,l),
(675,707,o),
(628,705,o),
(578,705,cs),
(565,705,o),
(531,707,o),
(491,710,c),
(486,658,l),
(601,638,l),
(574,677,l),
(573,656,o),
(572,608,o),
(562,581,cs),
(399,112,l),
(423,112,l),
(260,535,ls),
(240,585,o),
(228,645,o),
(225,671,c),
(196,637,l),
(308,653,l),
(304,710,l),
(258,707,o),
(214,705,o),
(167,705,cs),
(147,705,o),
(89,708,o),
(51,710,c),
(46,658,l),
(148,635,l),
(99,667,l),
(108,652,o),
(140,604,o),
(158,557,cs),
(374,0,l)
);
}
);
width = 774.5;
}
);
unicode = 86;
},
{
glyphname = Vturned;
kernLeft = UC_A;
kernRight = UC_A;
layers = (
{
anchors = (
{
name = bottom;
pos = (359,0);
},
{
name = ogonek;
pos = (690,0);
},
{
name = top;
pos = (362,705);
}
);
background = {
shapes = (
{
closed = 1;
nodes = (
(96,-3,o),
(160,0,o),
(185,0,cs),
(270,0,l),
(275,53,l),
(170,68,l),
(201,42,l),
(204,68,o),
(205,100,o),
(214,128,cs),
(363,593,l),
(342,593,l),
(491,175,ls),
(508,131,o),
(516,89,o),
(524,41,c),
(552,74,l),
(446,42,l),
(449,-5,l),
(496,-3,o),
(563,0,o),
(588,0,cs),
(690,0,l),
(695,53,l),
(598,70,l),
(640,45,l),
(625,77,o),
(605,114,o),
(593,151,cs),
(386,715,l),
(331,705,l),
(154,160,ls),
(140,117,o),
(116,73,o),
(102,44,c),
(142,69,l),
(46,42,l),
(50,-5,l)
);
}
);
};
layerId = "4E6502B1-B066-4D3E-9BD1-B1D9901B4F4F";
shapes = (
{
closed = 1;
nodes = (
(96,-3,o),
(160,0,o),
(185,0,cs),
(270,0,l),
(275,53,l),
(170,68,l),
(201,42,l),
(204,68,o),
(205,100,o),
(214,128,cs),
(363,593,l),
(342,593,l),
(491,175,ls),
(508,131,o),
(516,89,o),
(524,41,c),
(552,74,l),
(446,42,l),
(449,-5,l),
(496,-3,o),
(563,0,o),
(588,0,cs),
(690,0,l),
(695,53,l),
(598,70,l),
(640,45,l),
(625,77,o),
(605,114,o),
(593,151,cs),
(386,715,l),
(331,705,l),
(154,160,ls),
(140,117,o),
(116,73,o),
(102,44,c),
(142,69,l),
(46,42,l),
(50,-5,l)
);
}
);
width = 742;
},
{
anchors = (
{
name = bottom;
pos = (360,0);
},
{
name = ogonek;
pos = (700,0);
},
{
name = top;
pos = (376,705);
}
);
layerId = "16643525-C5DD-48EC-8E99-463BF28F5E85";
shapes = (
{
closed = 1;
nodes = (
(89,-3,o),
(161,0,o),
(186,0,cs),
(286,0,l),
(291,67,l),
(165,81,l),
(225,22,l),
(225,64,o),
(229,91,o),
(237,118,cs),
(378,574,l),
(341,574,l),
(470,140,ls),
(480,108,o),
(484,80,o),
(492,7,c),
(546,87,l),
(418,60,l),
(423,-5,l),
(483,-3,o),
(587,0,o),
(612,0,cs),
(700,0,l),
(705,67,l),
(582,87,l),
(662,42,l),
(649,69,o),
(630,101,o),
(620,133,cs),
(419,716,l),
(320,705,l),
(134,161,ls),
(117,114,o),
(102,85,o),
(63,21,c),
(154,82,l),
(42,60,l),
(47,-5,l)
);
}
);
width = 747;
}
);
unicode = 581;
},
{
color = 6;
glyphname = W;
kernLeft = UC_V;
kernRight = UC_V;
layers = (
{
anchors = (
{
name = bottom;
pos = (539,0);
},
{
name = top;
pos = (539,705);
}
);
layerId = "16643525-C5DD-48EC-8E99-463BF28F5E85";
shapes = (
{
closed = 1;
nodes = (
(399,0,l),
(554,498,l),
(521,498,l),
(675,0,l),
(777,0,l),
(940,520,ls),
(954,565,o),
(992,639,o),
(1013,665,c),
(933,624,l),
(1034,635,l),
(1030,710,l),
(994,708,o),
(929,705,o),
(893,705,cs),
(869,705,o),
(820,708,o),
(788,710,c),
(783,640,l),
(907,619,l),
(856,669,l),
(858,644,o),
(843,575,o),
(837,552,cs),
(725,138,l),
(755,138,l),
(599,678,l),
(501,678,l),
(347,138,l),
(376,138,l),
(277,517,ls),
(266,559,o),
(251,636,o),
(249,667,c),
(199,623,l),
(332,635,l),
(327,710,l),
(281,708,o),
(204,705,o),
(158,705,cs),
(133,705,o),
(81,708,o),
(48,710,c),
(43,640,l),
(143,616,l),
(69,670,l),
(106,591,o),
(113,572,o),
(122,546,cs),
(297,0,l)
);
}
);
width = 1077;
},
{
anchors = (
{
name = bottom;
pos = (552,0);
},
{
name = top;
pos = (552,705);
}
);
layerId = "4E6502B1-B066-4D3E-9BD1-B1D9901B4F4F";
shapes = (
{
closed = 1;
nodes = (
(396,0,l),
(558,545,l),
(539,545,l),
(719,0,l),
(776,0,l),
(940,548,l),
(955,596,o),
(987,647,o),
(1003,675,c),
(952,642,l),
(1057,653,l),
(1053,710,l),
(1016,708,o),
(960,705,o),
(908,705,cs),
(889,705,o),
(857,707,o),
(820,710,c),
(815,658,l),
(926,636,l),
(893,667,l),
(893,653,o),
(891,618,o),
(881,581,c),
(746,111,l),
(766,111,l),
(584,686,l),
(535,686,l),
(366,111,l),
(385,111,l),
(257,535,l),
(239,598,o),
(230,635,o),
(227,665,c),
(196,637,l),
(309,653,l),
(305,710,l),
(268,708,o),
(214,705,o),
(167,705,cs),
(147,705,o),
(89,708,o),
(51,710,c),
(46,658,l),
(149,635,l),
(98,669,l),
(106,658,o),
(136,613,o),
(155,557,c),
(339,0,l)
);
}
);
width = 1104.5;
}
);
unicode = 87;
},
{
color = 6;
glyphname = X;
kernLeft = UC_X;
kernRight = UC_K;
layers = (
{
anchors = (
{
name = bottom;
pos = (398,0);
},
{
name = top;
pos = (398,705);
}
);
layerId = "16643525-C5DD-48EC-8E99-463BF28F5E85";
shapes = (
{
closed = 1;
nodes = (
(104,-3,o),
(171,0,o),
(198,0,cs),
(301,0,l),
(306,67,l),
(197,80,l),
(239,41,l),
(248,65,o),
(273,112,o),
(285,132,cs),
(406,312,l),
(343,312,l),
(462,142,ls),
(479,118,o),
(507,60,o),
(516,41,c),
(558,80,l),
(457,60,l),
(462,-5,l),
(520,-3,o),
(598,0,o),
(636,0,cs),
(740,0,l),
(745,67,l),
(633,84,l),
(716,45,l),
(681,78,o),
(655,108,o),
(637,132,cs),
(432,421,l),
(434,328,l),
(591,568,ls),
(601,583,o),
(653,628,o),
(684,654,c),
(599,623,l),
(721,635,l),
(716,710,l),
(667,708,o),
(607,705,o),
(568,705,cs),
(544,705,o),
(501,708,o),
(467,710,c),
(462,640,l),
(565,619,l),
(529,673,l),
(512,634,o),
(494,599,o),
(482,578,cs),
(377,410,l),
(438,410,l),
(340,555,ls),
(322,581,o),
(293,637,o),
(290,656,c),
(243,623,l),
(352,635,l),
(347,710,l),
(292,708,o),
(228,705,o),
(183,705,cs),
(153,705,o),
(104,708,o),
(64,710,c),
(59,640,l),
(172,619,l),
(91,655,l),
(110,632,o),
(152,584,o),
(170,558,cs),
(351,300,l),
(351,393,l),
(192,164,ls),
(172,135,o),
(107,71,o),
(89,52,c),
(163,81,l),
(52,60,l),
(57,-5,l)
);
}
);
width = 795;
},
{
anchors = (
{
name = bottom;
pos = (398,0);
},
{
name = top;
pos = (398,705);
}
);
layerId = "4E6502B1-B066-4D3E-9BD1-B1D9901B4F4F";
shapes = (
{
closed = 1;
nodes = (
(105,-3,o),
(174,0,o),
(202,0,cs),
(298,0,l),
(303,53,l),
(194,68,l),
(219,45,l),
(230,67,o),
(249,112,o),
(263,132,cs),
(398,333,l),
(360,333,l),
(495,142,ls),
(513,117,o),
(538,70,o),
(548,43,c),
(573,71,l),
(472,42,l),
(476,-5,l),
(527,-3,o),
(597,0,o),
(627,0,cs),
(739,0,l),
(744,53,l),
(632,68,l),
(680,49,l),
(660,68,o),
(615,116,o),
(604,132,cs),
(416,396,l),
(416,338,l),
(565,569,ls),
(575,585,o),
(652,651,o),
(672,667,c),
(612,642,l),
(716,653,l),
(712,710,l),
(660,708,o),
(598,705,o),
(557,705,cs),
(537,705,o),
(490,708,o),
(457,710,c),
(452,658,l),
(565,636,l),
(540,661,l),
(529,638,o),
(509,598,o),
(497,578,cs),
(380,389,l),
(418,390,l),
(300,555,ls),
(284,579,o),
(261,640,o),
(254,655,c),
(225,637,l),
(341,653,l),
(337,710,l),
(288,708,o),
(229,705,o),
(190,705,cs),
(171,705,o),
(112,708,o),
(75,710,c),
(70,658,l),
(171,634,l),
(130,653,l),
(140,640,o),
(183,583,o),
(200,558,cs),
(363,328,l),
(363,384,l),
(212,164,ls),
(192,135,o),
(119,63,o),
(108,51,c),
(150,69,l),
(53,42,l),
(57,-5,l)
);
}
);
width = 796.1;
}
);
unicode = 88;
},
{
color = 6;
glyphname = Y;
kernLeft = UC_V;
kernRight = UC_V;
layers = (
{
anchors = (
{
name = bottom;
pos = (383,0);
},
{
name = top;
pos = (390,720);
}
);
layerId = "16643525-C5DD-48EC-8E99-463BF28F5E85";
shapes = (
{
closed = 1;
nodes = (
(440,218,l),
(610,544,ls),
(636,594,o),
(678,635,o),
(695,651,c),
(610,623,l),
(728,635,l),
(723,710,l),
(675,708,o),
(617,705,o),
(579,705,cs),
(555,705,o),
(512,708,o),
(478,710,c),
(473,640,l),
(576,619,l),
(537,671,l),
(533,642,o),
(525,608,o),
(515,587,cs),
(379,313,l),
(429,313,l),
(300,565,ls),
(283,599,o),
(275,630,o),
(272,660,c),
(227,623,l),
(336,635,l),
(331,710,l),
(276,708,o),
(212,705,o),
(167,705,cs),
(137,705,o),
(88,708,o),
(48,710,c),
(43,640,l),
(156,619,l),
(92,652,l),
(108,631,o),
(132,603,o),
(149,572,cs),
(339,218,l)
);
},
{
closed = 1;
nodes = (
(298,-3,o),
(373,0,o),
(394,0,c),
(534,0,l),
(540,67,l),
(412,78,l),
(475,25,l),
(469,55,o),
(460,133,o),
(460,187,cs),
(460,308,l),
(321,308,l),
(321,157,ls),
(321,129,o),
(310,58,o),
(305,25,c),
(367,83,l),
(243,60,l),
(248,-5,l)
);
}
);
width = 771;
},
{
anchors = (
{
name = bottom;
pos = (361,0);
},
{
name = top;
pos = (370,720);
}
);
layerId = "4E6502B1-B066-4D3E-9BD1-B1D9901B4F4F";
shapes = (
{
closed = 1;
nodes = (
(391,238,l),
(548,545,ls),
(582,609,o),
(618,655,o),
(630,669,c),
(578,642,l),
(682,653,l),
(678,710,l),
(661,709,o),
(596,705,o),
(534,705,cs),
(514,705,o),
(476,708,o),
(445,710,c),
(440,658,l),
(552,636,l),
(533,675,l),
(530,667,o),
(504,609,o),
(489,577,cs),
(358,311,l),
(389,312,l),
(273,530,ls),
(231,605,o),
(221,655,o),
(221,668,c),
(193,637,l),
(309,653,l),
(305,710,l),
(288,709,o),
(227,705,o),
(166,705,cs),
(147,705,o),
(88,708,o),
(51,710,c),
(46,658,l),
(147,634,l),
(93,669,l),
(104,655,o),
(143,607,o),
(170,554,cs),
(334,238,l)
);
},
{
closed = 1;
nodes = (
(289,-3,o),
(360,0,o),
(373,0,cs),
(501,0,l),
(508,53,l),
(382,63,l),
(421,28,l),
(416,54,o),
(409,113,o),
(409,165,cs),
(409,321,l),
(323,321,l),
(323,135,ls),
(323,114,o),
(312,45,o),
(309,28,c),
(348,67,l),
(234,44,l),
(239,-5,l)
);
}
);
width = 729.2;
}
);
unicode = 89;
},
{
color = 6;
glyphname = Z;
kernLeft = UC_Z;
kernRight = UC_Z;
layers = (
{
anchors = (
{
name = bottom;
pos = (332,0);
},
{
name = center;
pos = (332,353);
},
{
name = top;
pos = (332,720);
}
);
layerId = "16643525-C5DD-48EC-8E99-463BF28F5E85";
shapes = (
{
closed = 1;
nodes = (
(585,14,l),
(600,192,l),
(536,197,l),
(532,172,o),
(525,147,o),
(522,134,c),
(520,123,o),
(493,72,o),
(478,45,c),
(540,95,l),
(519,91,o),
(459,82,o),
(417,82,cs),
(192,82,l),
(229,45,l),
(256,98,o),
(284,157,o),
(315,206,cs),
(480,471,ls),
(508,516,o),
(554,583,o),
(587,631,c),
(578,705,l),
(211,705,l),
(157,708,o),
(139,711,o),
(96,715,c),
(76,697,l),
(69,516,l),
(138,511,l),
(140,534,o),
(148,572,o),
(152,589,c),
(190,670,l),
(130,617,l),
(139,617,o),
(205,624,o),
(250,624,cs),
(466,624,l),
(430,666,l),
(409,621,o),
(382,560,o),
(355,517,cs),
(177,232,ls),
(158,201,o),
(102,124,o),
(65,74,c),
(74,0,l),
(451,0,l),
(479,0,o),
(528,-2,o),
(566,-4,c)
);
}
);
width = 662;
},
{
anchors = (
{
name = bottom;
pos = (316,0);
},
{
name = center;
pos = (316,353);
},
{
name = top;
pos = (316,720);
}
);
layerId = "4E6502B1-B066-4D3E-9BD1-B1D9901B4F4F";
shapes = (
{
closed = 1;
nodes = (
(549,14,l),
(564,173,l),
(510,178,l),
(508,163,o),
(499,109,o),
(495,100,cs),
(489,89,o),
(464,48,o),
(446,27,c),
(520,72,l),
(495,68,o),
(426,57,o),
(386,57,cs),
(146,57,l),
(162,25,l),
(192,80,o),
(239,166,o),
(253,190,cs),
(447,496,ls),
(482,551,o),
(518,598,o),
(555,651,c),
(548,705,l),
(221,705,l),
(185,707,o),
(145,711,o),
(107,715,c),
(88,697,l),
(81,529,l),
(138,524,l),
(140,551,o),
(147,602,o),
(151,609,cs),
(182,674,l),
(143,642,l),
(161,643,o),
(217,648,o),
(253,648,cs),
(473,648,l),
(456,679,l),
(427,625,o),
(400,571,o),
(367,520,cs),
(176,218,ls),
(154,182,o),
(99,104,o),
(64,55,c),
(71,0,l),
(416,0,ls),
(455,0,o),
(492,-2,o),
(530,-4,c)
);
}
);
width = 629;
}
);
unicode = 90;
},
{
color = 6;
glyphname = Saltillo;
kernLeft = saltillo;
kernRight = saltillo;
layers = (
{
layerId = "16643525-C5DD-48EC-8E99-463BF28F5E85";
shapes = (
{
closed = 1;
nodes = (
(202,688,l),
(184,705,l),
(67,705,l),
(75,643,o),
(89,503,o),
(89,493,cs),
(81,301,l),
(170,296,l)
);
}
);
userData = {
RMXScaler = {
verticalShift = 50;
weight = 10;
};
};
width = 267;
},
{
layerId = "4E6502B1-B066-4D3E-9BD1-B1D9901B4F4F";
shapes = (
{
closed = 1;
nodes = (
(173,688,l),
(155,705,l),
(73,705,l),
(79,640,o),
(96,503,o),
(95,494,cs),
(83,312,l),
(141,307,l)
);
}
);
userData = {
RMXScaler = {
verticalShift = 50;
weight = 5;
};
};
width = 242.8;
}
);
unicode = 42891;
userData = {
RMXScaler = {
source = saltillo;
};
};
},
{
color = 6;
glyphname = Germandbls.alt;
kernLeft = UC_Sterm;
kernRight = UC_S;
layers = (
{
layerId = "16643525-C5DD-48EC-8E99-463BF28F5E85";
shapes = (
{
closed = 1;
nodes = (
(98,-3,o),
(173,0,o),
(194,0,c),
(247,0,l),
(267,19,l),
(265,50,o),
(260,149,o),
(260,187,cs),
(260,465,ls),
(260,589,o),
(323,637,o),
(403,637,cs),
(451,637,o),
(498,623,o),
(542,606,c),
(531,669,l),
(377,353,l),
(478,317,l),
(652,660,l),
(633,701,l),
(557,711,o),
(487,720,o),
(414,720,cs),
(223,720,o),
(120,648,o),
(120,465,cs),
(120,157,ls),
(120,131,o),
(111,63,o),
(108,45,c),
(167,83,l),
(42,60,l),
(47,-5,l)
);
},
{
closed = 1;
nodes = (
(669,-14,o),
(760,69,o),
(760,198,cs),
(760,285,o),
(707,347,o),
(608,403,cs),
(485,473,l),
(377,353,l),
(519,279,ls),
(585,245,o),
(610,205,o),
(610,166,cs),
(610,112,o),
(579,74,o),
(520,74,cs),
(462,74,o),
(422,109,o),
(409,121,c),
(452,71,l),
(438,97,o),
(433,141,o),
(433,152,c),
(433,212,l),
(353,218,l),
(338,34,l),
(364,21,o),
(442,-14,o),
(535,-14,cs)
);
}
);
width = 812;
},
{
layerId = "4E6502B1-B066-4D3E-9BD1-B1D9901B4F4F";
shapes = (
{
closed = 1;
nodes = (
(98,-3,o),
(169,0,o),
(190,0,c),
(212,0,l),
(230,17,l),
(228,60,o),
(226,129,o),
(226,165,cs),
(226,465,ls),
(226,607,o),
(299,662,o),
(394,662,cs),
(446,662,o),
(491,656,o),
(544,640,c),
(542,673,l),
(343,385,l),
(414,373,l),
(622,668,l),
(612,698,l),
(539,712,o),
(477,720,o),
(410,720,cs),
(259,720,o),
(135,667,o),
(135,465,cs),
(135,135,ls),
(135,113,o),
(124,43,o),
(121,22,c),
(160,67,l),
(46,44,l),
(51,-5,l)
);
},
{
closed = 1;
nodes = (
(625,-10,o),
(713,64,o),
(713,176,cs),
(713,260,o),
(682,321,o),
(550,389,cs),
(436,448,l),
(343,385,l),
(475,320,ls),
(591,263,o),
(612,216,o),
(612,166,cs),
(612,93,o),
(566,48,o),
(496,48,cs),
(451,48,o),
(406,66,o),
(391,80,c),
(404,52,l),
(402,70,o),
(396,119,o),
(396,137,c),
(396,183,l),
(331,189,l),
(316,38,l),
(373,7,o),
(426,-10,o),
(493,-10,cs)
);
}
);
width = 770.2;
}
);
},
{
color = 6;
glyphname = saltillo.case;
kernLeft = saltillo;
kernRight = saltillo;
layers = (
{
layerId = "16643525-C5DD-48EC-8E99-463BF28F5E85";
shapes = (
{
closed = 1;
nodes = (
(155,638,l),
(137,655,l),
(27,655,l),
(34,592,o),
(55,453,o),
(54,443,cs),
(41,253,l),
(133,248,l)
);
}
);
width = 187;
},
{
layerId = "4E6502B1-B066-4D3E-9BD1-B1D9901B4F4F";
shapes = (
{
closed = 1;
nodes = (
(125,638,l),
(107,655,l),
(27,655,l),
(34,588,o),
(54,454,o),
(54,444,cs),
(47,263,l),
(103,258,l)
);
}
);
width = 160.6;
}
);
userData = {
RMXScaler = {
source = saltillo;
};
};
},
{
color = 6;
export = 0;
glyphname = I.numeroRomano;
kernLeft = H.ss02;
kernRight = H.ss02;
layers = (
{
layerId = "16643525-C5DD-48EC-8E99-463BF28F5E85";
shapes = (
{
closed = 1;
nodes = (
(274,60,l),
(268,87,o),
(258,169,o),
(258,217,cs),
(258,486,ls),
(258,537,o),
(266,607,o),
(275,645,c),
(83,645,l),
(93,617,o),
(100,540,o),
(100,513,cs),
(100,190,ls),
(100,159,o),
(89,90,o),
(83,60,c)
);
}
);
userData = {
RMXScaler = {
height = 90;
verticalShift = 34;
width = 95;
};
};
width = 358;
},
{
layerId = "4E6502B1-B066-4D3E-9BD1-B1D9901B4F4F";
shapes = (
{
closed = 1;
nodes = (
(206,42,l),
(202,57,o),
(194,138,o),
(194,188,cs),
(194,515,ls),
(194,561,o),
(202,650,o),
(205,659,c),
(93,659,l),
(97,650,o),
(107,560,o),
(107,542,cs),
(107,161,ls),
(107,140,o),
(97,56,o),
(93,42,c)
);
}
);
userData = {
RMXScaler = {
height = 90;
verticalShift = 34;
width = 95;
};
};
width = 299.7;
}
);
userData = {
RMXScaler = {
source = I;
};
};
},
{
category = Letter;
color = 6;
glyphname = C.ss02;
kernLeft = RN_Round;
kernRight = RN_C;
layers = (
{
anchors = (
{
name = bottom;
pos = (421,34);
},
{
name = top;
pos = (421,669);
}
);
layerId = "16643525-C5DD-48EC-8E99-463BF28F5E85";
shapes = (
{
closed = 1;
nodes = (
(491,20,o),
(564,36,o),
(625,50,c),
(617,212,l),
(543,210,l),
(542,196,o),
(540,175,o),
(540,168,c),
(540,155,o),
(516,107,o),
(504,83,c),
(575,139,l),
(501,122,o),
(463,115,o),
(408,115,cs),
(295,115,o),
(255,220,o),
(255,351,cs),
(255,481,o),
(296,585,o),
(409,585,cs),
(463,585,o),
(499,578,o),
(566,563,c),
(498,618,l),
(508,591,o),
(525,552,o),
(525,542,cs),
(528,482,l),
(604,478,l),
(616,650,l),
(554,667,o),
(493,681,o),
(409,681,cs),
(185,681,o),
(71,545,o),
(71,350,cs),
(71,154,o),
(185,20,o),
(409,20,cs)
);
},
{
closed = 1;
nodes = (
(757,0,l),
(762,60,l),
(-10,60,l),
(-5,0,l)
);
},
{
closed = 1;
nodes = (
(769,645,l),
(764,705,l),
(-5,705,l),
(-3,645,l)
);
}
);
userData = {
RMXScaler = {
height = 90;
verticalShift = 34;
width = 95;
};
};
width = 739;
},
{
anchors = (
{
name = bottom;
pos = (401,34);
},
{
name = top;
pos = (401,669);
}
);
layerId = "4E6502B1-B066-4D3E-9BD1-B1D9901B4F4F";
shapes = (
{
closed = 1;
nodes = (
(477,21,o),
(555,37,o),
(615,51,c),
(609,190,l),
(553,188,l),
(553,174,o),
(552,153,o),
(551,146,c),
(551,134,o),
(538,95,o),
(527,70,c),
(557,104,l),
(518,89,o),
(444,78,o),
(397,78,cs),
(262,78,o),
(196,199,o),
(196,352,cs),
(196,504,o),
(262,625,o),
(398,625,cs),
(443,625,o),
(511,612,o),
(550,597,c),
(521,631,l),
(528,609,o),
(540,573,o),
(540,562,cs),
(540,517,l),
(596,513,l),
(606,651,l),
(546,666,o),
(490,682,o),
(398,682,cs),
(198,682,o),
(96,546,o),
(96,351,cs),
(96,155,o),
(198,21,o),
(398,21,cs)
);
},
{
closed = 1;
nodes = (
(724,0,l),
(729,42,l),
(-23,42,l),
(-18,0,l)
);
},
{
closed = 1;
nodes = (
(728,659,l),
(723,705,l),
(-18,705,l),
(-24,659,l)
);
}
);
userData = {
RMXScaler = {
height = 90;
verticalShift = 34;
width = 95;
};
};
width = 706;
}
);
subCategory = Other;
userData = {
RMXScaler = {
source = C;
};
};
},
{
category = Letter;
color = 6;
glyphname = D.ss02;
kernLeft = RN_Stem;
kernRight = RN_Round;
layers = (
{
layerId = "16643525-C5DD-48EC-8E99-463BF28F5E85";
shapes = (
{
closed = 1;
nodes = (
(623,22,o),
(736,162,o),
(736,351,cs),
(736,537,o),
(622,673,o),
(400,673,cs),
(146,673,l),
(157,610,o),
(166,551,o),
(166,513,cs),
(166,190,ls),
(166,165,o),
(162,139,o),
(147,37,c),
(400,29,ls)
);
},
{
closed = 1;
nodes = (
(812,0,l),
(817,60,l),
(-22,60,l),
(-17,0,l)
);
},
{
closed = 1;
nodes = (
(329,77,o),
(324,184,o),
(324,217,cs),
(324,486,ls),
(324,524,o),
(330,619,o),
(330,633,c),
(295,585,l),
(313,587,o),
(366,590,o),
(384,590,cs),
(520,590,o),
(565,481,o),
(565,353,cs),
(565,219,o),
(522,112,o),
(382,112,cs),
(350,112,o),
(307,114,o),
(291,115,c),
(332,64,l)
);
},
{
closed = 1;
nodes = (
(817,645,l),
(812,705,l),
(-17,705,l),
(-15,645,l)
);
}
);
userData = {
RMXScaler = {
height = 90;
verticalShift = 34;
width = 95;
};
};
width = 807;
},
{
layerId = "4E6502B1-B066-4D3E-9BD1-B1D9901B4F4F";
shapes = (
{
closed = 1;
nodes = (
(526,31,o),
(649,161,o),
(649,351,cs),
(649,546,o),
(533,673,o),
(321,673,cs),
(112,673,l),
(115,632,o),
(126,549,o),
(126,542,cs),
(126,161,ls),
(126,147,o),
(116,80,o),
(110,29,c),
(321,30,l)
);
},
{
closed = 1;
nodes = (
(747,0,l),
(752,42,l),
(-20,42,l),
(-15,0,l)
);
},
{
closed = 1;
nodes = (
(223,86,o),
(216,135,o),
(216,188,cs),
(216,515,ls),
(216,558,o),
(223,627,o),
(227,642,c),
(208,615,l),
(231,615,o),
(271,615,o),
(324,615,cs),
(482,615,o),
(555,494,o),
(555,351,cs),
(555,206,o),
(481,87,o),
(324,87,cs),
(273,87,o),
(232,90,o),
(207,90,c),
(225,66,l)
);
},
{
closed = 1;
nodes = (
(752,659,l),
(747,705,l),
(-15,705,l),
(-21,659,l)
);
}
);
userData = {
RMXScaler = {
height = 90;
verticalShift = 34;
width = 95;
};
};
width = 733.3;
}
);
subCategory = Other;
userData = {
RMXScaler = {
source = D;
};
};
},
{
category = Letter;
color = 6;
glyphname = I.ss02;
kernLeft = RN_Stem;
kernRight = RN_Stem;
layers = (
{
anchors = (
{
name = bottom;
pos = (274,34);
},
{
name = ogonek;
pos = (274,34);
},
{
name = top;
pos = (274,669);
}
);
layerId = "16643525-C5DD-48EC-8E99-463BF28F5E85";
shapes = (
{
closed = 1;
nodes = (
(349,54,l),
(343,87,o),
(333,169,o),
(333,217,cs),
(333,486,ls),
(333,537,o),
(341,607,o),
(350,660,c),
(158,657,l),
(168,617,o),
(175,540,o),
(175,513,cs),
(175,190,ls),
(175,159,o),
(164,90,o),
(158,54,c)
);
},
{
closed = 1;
nodes = (
(524,0,l),
(529,60,l),
(-22,60,l),
(-17,0,l)
);
},
{
closed = 1;
nodes = (
(527,645,l),
(522,705,l),
(-19,705,l),
(-17,645,l)
);
}
);
userData = {
RMXScaler = {
height = 90;
verticalShift = 34;
width = 95;
};
};
width = 507;
},
{
anchors = (
{
name = bottom;
pos = (219,34);
},
{
name = ogonek;
pos = (219,34);
},
{
name = top;
pos = (219,669);
}
);
layerId = "4E6502B1-B066-4D3E-9BD1-B1D9901B4F4F";
shapes = (
{
closed = 1;
nodes = (
(278,36,l),
(274,57,o),
(266,138,o),
(266,188,cs),
(266,515,ls),
(266,561,o),
(274,650,o),
(276,672,c),
(165,671,l),
(169,650,o),
(178,560,o),
(178,542,cs),
(178,161,ls),
(178,140,o),
(168,56,o),
(165,36,c)
);
},
{
closed = 1;
nodes = (
(478,0,l),
(483,42,l),
(-20,42,l),
(-15,0,l)
);
},
{
closed = 1;
nodes = (
(483,659,l),
(478,705,l),
(-15,705,l),
(-20,659,l)
);
}
);
userData = {
RMXScaler = {
height = 90;
verticalShift = 34;
width = 95;
};
};
width = 463;
}
);
subCategory = Other;
userData = {
RMXScaler = {
source = I;
};
};
},
{
category = Letter;
color = 6;
glyphname = L.ss02;
kernLeft = RN_Stem;
kernRight = RN_L;
layers = (
{
anchors = (
{
name = bottom;
pos = (321,34);
},
{
name = center;
pos = (219,354);
},
{
name = centerright;
pos = (484,352);
},
{
name = top;
pos = (321,669);
},
{
name = topright;
pos = (483,479);
}
);
layerId = "16643525-C5DD-48EC-8E99-463BF28F5E85";
shapes = (
{
closed = 1;
nodes = (
(429,34,l),
(442,34,o),
(498,32,o),
(537,30,c),
(555,47,l),
(569,214,l),
(500,218,l),
(498,204,o),
(494,186,o),
(489,169,cs),
(484,151,o),
(468,114,o),
(433,70,c),
(496,136,l),
(485,133,o),
(445,123,o),
(400,123,cs),
(276,123,l),
(323,54,l),
(317,87,o),
(307,169,o),
(307,217,cs),
(307,486,ls),
(307,537,o),
(315,607,o),
(324,660,c),
(132,657,l),
(142,617,o),
(149,540,o),
(149,513,cs),
(149,190,ls),
(149,159,o),
(138,90,o),
(132,54,c),
(132,30,l)
);
},
{
closed = 1;
nodes = (
(664,0,l),
(669,60,l),
(-20,60,l),
(-15,0,l)
);
},
{
closed = 1;
nodes = (
(667,645,l),
(662,705,l),
(-7,705,l),
(-5,645,l)
);
}
);
userData = {
RMXScaler = {
height = 90;
verticalShift = 34;
width = 95;
};
};
width = 639;
},
{
anchors = (
{
name = bottom;
pos = (250,34);
},
{
name = center;
pos = (155,354);
},
{
name = centerright;
pos = (420,352);
},
{
name = top;
pos = (250,669);
},
{
name = topright;
pos = (419,479);
}
);
layerId = "4E6502B1-B066-4D3E-9BD1-B1D9901B4F4F";
shapes = (
{
closed = 1;
nodes = (
(377,34,l),
(390,34,o),
(446,32,o),
(485,30,c),
(501,28,l),
(517,187,l),
(465,191,l),
(463,177,o),
(454,149,o),
(451,132,cs),
(448,119,o),
(434,100,o),
(414,72,c),
(445,101,l),
(431,98,o),
(388,90,o),
(348,90,cs),
(203,90,l),
(242,58,l),
(238,79,o),
(230,138,o),
(230,188,cs),
(230,515,ls),
(230,561,o),
(238,639,o),
(240,661,c),
(129,660,l),
(133,639,o),
(142,560,o),
(142,542,cs),
(142,161,ls),
(142,140,o),
(133,78,o),
(129,58,c),
(129,30,l)
);
},
{
closed = 1;
nodes = (
(633,0,l),
(638,42,l),
(-20,42,l),
(-15,0,l)
);
},
{
closed = 1;
nodes = (
(616,659,l),
(611,705,l),
(-16,705,l),
(-22,659,l)
);
}
);
userData = {
RMXScaler = {
height = 90;
verticalShift = 34;
width = 95;
};
};
width = 611.5;
}
);
subCategory = Other;
userData = {
RMXScaler = {
source = L;
};
};
},
{
category = Letter;
color = 6;
glyphname = M.ss02;
kernLeft = RN_Stem;
kernRight = RN_Stem;
layers = (
{
anchors = (
{
name = bottom;
pos = (536,34);
}
);
layerId = "16643525-C5DD-48EC-8E99-463BF28F5E85";
shapes = (
{
closed = 1;
nodes = (
(253,48,l),
(250,89,o),
(245,161,o),
(248,217,cs),
(268,543,l),
(244,540,l),
(444,100,l),
(536,100,l),
(741,539,l),
(717,543,l),
(736,190,ls),
(738,160,o),
(730,73,o),
(728,48,c),
(900,48,l),
(895,64,o),
(878,156,o),
(873,215,cs),
(851,486,ls),
(847,537,o),
(850,602,o),
(850,673,c),
(680,669,l),
(660,651,l),
(646,608,o),
(626,547,o),
(619,532,cs),
(487,222,l),
(527,222,l),
(405,517,ls),
(394,543,o),
(373,608,o),
(361,651,c),
(341,669,l),
(150,673,l),
(155,602,o),
(161,529,o),
(160,512,cs),
(137,190,ls),
(135,160,o),
(122,94,o),
(112,48,c)
);
},
{
closed = 1;
nodes = (
(1039,0,l),
(1044,60,l),
(-32,60,l),
(-27,0,l)
);
},
{
closed = 1;
nodes = (
(1021,645,l),
(1016,705,l),
(-19,705,l),
(-17,645,l)
);
}
);
userData = {
RMXScaler = {
height = 90;
verticalShift = 34;
};
};
width = 1012;
},
{
anchors = (
{
name = bottom;
pos = (444,34);
}
);
layerId = "4E6502B1-B066-4D3E-9BD1-B1D9901B4F4F";
shapes = (
{
closed = 1;
nodes = (
(193,36,l),
(190,54,o),
(181,156,o),
(183,188,cs),
(210,586,l),
(196,584,l),
(431,100,l),
(461,100,l),
(696,584,l),
(682,586,l),
(713,161,ls),
(715,134,o),
(704,54,o),
(701,36,c),
(827,36,l),
(820,63,o),
(801,165,o),
(799,188,cs),
(772,515,ls),
(770,538,o),
(771,559,o),
(775,673,c),
(673,669,l),
(653,651,l),
(634,603,o),
(606,534,o),
(599,519,c),
(449,200,l),
(473,200,l),
(325,510,l),
(318,528,o),
(291,600,o),
(272,650,c),
(253,669,l),
(135,673,l),
(142,628,o),
(149,566,o),
(147,542,cs),
(121,161,ls),
(119,140,o),
(97,53,o),
(92,36,c)
);
},
{
closed = 1;
nodes = (
(932,0,l),
(937,42,l),
(-19,42,l),
(-14,0,l)
);
},
{
closed = 1;
nodes = (
(940,659,l),
(935,705,l),
(-15,705,l),
(-20,659,l)
);
}
);
userData = {
RMXScaler = {
height = 90;
verticalShift = 34;
};
};
width = 918.5;
}
);
subCategory = Other;
userData = {
RMXScaler = {
source = M;
};
};
},
{
category = Letter;
color = 6;
glyphname = V.ss02;
kernLeft = RN_V;
kernRight = RN_V;
layers = (
{
anchors = (
{
name = bottom;
pos = (402,34);
},
{
name = top;
pos = (402,669);
}
);
layerId = "16643525-C5DD-48EC-8E99-463BF28F5E85";
shapes = (
{
closed = 1;
nodes = (
(454,36,l),
(651,505,ls),
(663,534,o),
(731,661,o),
(743,679,c),
(567,679,l),
(565,658,o),
(540,551,o),
(532,531,cs),
(400,200,l),
(439,200,l),
(323,509,ls),
(317,525,o),
(283,649,o),
(283,679,c),
(82,679,l),
(97,650,o),
(138,570,o),
(148,546,cs),
(355,36,l)
);
},
{
closed = 1;
nodes = (
(836,0,l),
(841,60,l),
(-17,60,l),
(-12,0,l)
);
},
{
closed = 1;
nodes = (
(863,645,l),
(858,705,l),
(-40,705,l),
(-38,645,l)
);
}
);
userData = {
RMXScaler = {
height = 90;
verticalShift = 34;
};
};
width = 823;
},
{
anchors = (
{
name = bottom;
pos = (408,34);
},
{
name = top;
pos = (408,669);
}
);
layerId = "4E6502B1-B066-4D3E-9BD1-B1D9901B4F4F";
shapes = (
{
closed = 1;
nodes = (
(440,17,l),
(649,550,ls),
(671,606,o),
(709,668,o),
(720,687,c),
(604,687,l),
(604,668,o),
(601,603,o),
(591,579,cs),
(417,145,l),
(440,145,l),
(264,541,ls),
(244,583,o),
(227,662,o),
(224,687,c),
(89,687,l),
(114,648,o),
(152,587,o),
(162,564,cs),
(400,17,l)
);
},
{
closed = 1;
nodes = (
(795,0,l),
(800,42,l),
(13,42,l),
(18,0,l)
);
},
{
closed = 1;
nodes = (
(842,659,l),
(837,705,l),
(-24,705,l),
(-29,659,l)
);
}
);
userData = {
RMXScaler = {
height = 90;
verticalShift = 34;
};
};
width = 813.1;
}
);
subCategory = Other;
userData = {
RMXScaler = {
source = V;
};
};
},
{
category = Letter;
color = 6;
glyphname = X.ss02;
kernLeft = RN_X;
kernRight = RN_X;
layers = (
{
layerId = "16643525-C5DD-48EC-8E99-463BF28F5E85";
shapes = (
{
closed = 1;
nodes = (
(270,58,o),
(291,100,o),
(305,123,cs),
(413,299,l),
(340,299,l),
(446,132,ls),
(461,108,o),
(488,58,o),
(498,39,c),
(711,42,l),
(683,72,o),
(658,104,o),
(645,123,cs),
(441,431,l),
(444,322,l),
(597,575,ls),
(610,596,o),
(633,622,o),
(662,655,c),
(520,677,l),
(498,632,o),
(486,608,o),
(472,584,cs),
(379,417,l),
(449,417,l),
(366,564,ls),
(352,589,o),
(329,633,o),
(319,655,c),
(100,655,l),
(122,628,o),
(152,592,o),
(169,566,cs),
(350,284,l),
(350,393,l),
(196,152,ls),
(180,127,o),
(125,68,o),
(109,51,c),
(260,37,l)
);
},
{
closed = 1;
nodes = (
(799,0,l),
(803,60,l),
(-40,60,l),
(-36,0,l)
);
},
{
closed = 1;
nodes = (
(803,646,l),
(799,706,l),
(-36,706,l),
(-31,646,l)
);
}
);
userData = {
RMXScaler = {
height = 90;
verticalShift = 34;
width = 95;
};
};
width = 763;
},
{
layerId = "4E6502B1-B066-4D3E-9BD1-B1D9901B4F4F";
shapes = (
{
closed = 1;
nodes = (
(204,45,o),
(235,104,o),
(247,123,cs),
(378,328,l),
(343,328,l),
(466,132,ls),
(475,118,o),
(517,40,o),
(527,20,c),
(670,20,l),
(646,45,o),
(584,111,o),
(577,123,cs),
(401,397,l),
(402,335,l),
(531,550,ls),
(540,563,o),
(604,647,o),
(617,664,c),
(521,662,l),
(510,638,o),
(489,603,o),
(479,584,cs),
(366,390,l),
(405,391,l),
(299,564,ls),
(278,598,o),
(255,653,o),
(250,665,c),
(119,663,l),
(130,649,o),
(180,590,o),
(194,566,cs),
(347,321,l),
(343,382,l),
(193,152,ls),
(176,126,o),
(90,34,o),
(77,20,c),
(193,22,l)
);
},
{
closed = 1;
nodes = (
(770,0,l),
(774,42,l),
(-21,42,l),
(-17,0,l)
);
},
{
closed = 1;
nodes = (
(773,659,l),
(769,705,l),
(-18,705,l),
(-21,659,l)
);
}
);
userData = {
RMXScaler = {
height = 90;
verticalShift = 34;
width = 95;
};
};
width = 753.1;
}
);
subCategory = Other;
userData = {
RMXScaler = {
source = X;
};
};
},
{
category = Letter;
color = 6;
glyphname = germandbls.case;
kernLeft = UC_Sterm;
kernRight = UC_S;
layers = (
{
layerId = "16643525-C5DD-48EC-8E99-463BF28F5E85";
shapes = (
{
closed = 1;
nodes = (
(98,-3,o),
(173,0,o),
(194,0,c),
(247,0,l),
(267,19,l),
(265,50,o),
(260,149,o),
(260,187,cs),
(260,465,ls),
(260,589,o),
(323,637,o),
(403,637,cs),
(451,637,o),
(498,623,o),
(542,606,c),
(531,669,l),
(377,353,l),
(478,317,l),
(652,660,l),
(633,701,l),
(557,711,o),
(487,720,o),
(414,720,cs),
(223,720,o),
(120,648,o),
(120,465,cs),
(120,157,ls),
(120,131,o),
(111,63,o),
(108,45,c),
(167,83,l),
(42,60,l),
(47,-5,l)
);
},
{
closed = 1;
nodes = (
(669,-14,o),
(760,69,o),
(760,198,cs),
(760,285,o),
(707,347,o),
(608,403,cs),
(485,473,l),
(377,353,l),
(519,279,ls),
(585,245,o),
(610,205,o),
(610,166,cs),
(610,112,o),
(579,74,o),
(520,74,cs),
(462,74,o),
(422,109,o),
(409,121,c),
(452,71,l),
(438,97,o),
(433,141,o),
(433,152,c),
(433,212,l),
(353,218,l),
(338,34,l),
(364,21,o),
(442,-14,o),
(535,-14,cs)
);
}
);
width = 812;
},
{
layerId = "4E6502B1-B066-4D3E-9BD1-B1D9901B4F4F";
shapes = (
{
closed = 1;
nodes = (
(98,-3,o),
(169,0,o),
(190,0,c),
(212,0,l),
(230,17,l),
(228,60,o),
(226,129,o),
(226,165,cs),
(226,465,ls),
(226,607,o),
(299,662,o),
(394,662,cs),
(446,662,o),
(491,656,o),
(544,640,c),
(542,673,l),
(343,385,l),
(414,373,l),
(622,668,l),
(612,698,l),
(539,712,o),
(477,720,o),
(410,720,cs),
(259,720,o),
(135,667,o),
(135,465,cs),
(135,135,ls),
(135,113,o),
(124,43,o),
(121,22,c),
(160,67,l),
(46,44,l),
(51,-5,l)
);
},
{
closed = 1;
nodes = (
(625,-10,o),
(713,64,o),
(713,176,cs),
(713,260,o),
(682,321,o),
(550,389,cs),
(436,448,l),
(343,385,l),
(475,320,ls),
(591,263,o),
(612,216,o),
(612,166,cs),
(612,93,o),
(566,48,o),
(496,48,cs),
(451,48,o),
(406,66,o),
(391,80,c),
(404,52,l),
(402,70,o),
(396,119,o),
(396,137,c),
(396,183,l),
(331,189,l),
(316,38,l),
(373,7,o),
(426,-10,o),
(493,-10,cs)
);
}
);
width = 770.2;
}
);
script = latin;
subCategory = Uppercase;
},
{
category = Letter;
color = 6;
glyphname = U.horn;
layers = (
{
anchors = (
{
name = bottom;
pos = (383,0);
},
{
name = ogonek;
pos = (491,0);
},
{
name = top;
pos = (383,705);
},
{
name = topright;
pos = (580,705);
}
);
layerId = "16643525-C5DD-48EC-8E99-463BF28F5E85";
shapes = (
{
closed = 1;
nodes = (
(571,-15,o),
(671,97,o),
(671,268,cs),
(671,512,ls),
(671,567,o),
(679,629,o),
(688,677,c),
(580,705,l),
(558,705,o),
(504,705,o),
(470,705,c),
(465,635,l),
(592,612,l),
(522,677,l),
(528,637,o),
(539,572,o),
(539,542,cs),
(539,260,ls),
(539,160,o),
(503,99,o),
(398,99,cs),
(303,99,o),
(252,170,o),
(252,260,cs),
(252,512,ls),
(252,567,o),
(257,617,o),
(266,677,c),
(197,617,l),
(326,629,l),
(321,710,l),
(280,708,o),
(204,705,o),
(146,705,c),
(116,705,o),
(43,709,o),
(24,710,c),
(19,635,l),
(146,612,l),
(79,677,l),
(82,650,o),
(92,572,o),
(92,542,cs),
(92,268,ls),
(92,97,o),
(190,-15,o),
(381,-15,cs)
);
}
);
width = 740;
},
{
anchors = (
{
name = bottom;
pos = (375,0);
},
{
name = ogonek;
pos = (473,0);
},
{
name = top;
pos = (375,705);
},
{
name = topright;
pos = (586,705);
}
);
layerId = "4E6502B1-B066-4D3E-9BD1-B1D9901B4F4F";
shapes = (
{
closed = 1;
nodes = (
(545,-15,o),
(631,95,o),
(631,266,cs),
(631,535,ls),
(631,587,o),
(639,660,o),
(642,683,c),
(586,705,l),
(572,705,o),
(518,705,o),
(481,705,c),
(476,658,l),
(589,641,l),
(550,683,l),
(552,670,o),
(565,586,o),
(565,565,cs),
(565,267,ls),
(565,138,o),
(505,44,o),
(384,44,cs),
(267,44,o),
(209,136,o),
(209,267,cs),
(209,535,ls),
(209,587,o),
(217,661,o),
(220,683,c),
(183,643,l),
(296,653,l),
(292,710,l),
(256,708,o),
(192,705,o),
(150,705,cs),
(131,705,o),
(52,709,o),
(36,710,c),
(31,658,l),
(145,642,l),
(105,683,l),
(110,656,o),
(121,586,o),
(121,565,cs),
(121,266,ls),
(121,95,o),
(207,-15,o),
(376,-15,cs)
);
}
);
width = 714.7;
}
);
subCategory = Ligature;
},
{
category = Letter;
color = 6;
glyphname = W.i;
kernLeft = UC_V;
kernRight = UC_V;
layers = (
{
anchors = (
{
name = bottom;
pos = (526,0);
},
{
name = top;
pos = (526,705);
}
);
layerId = "16643525-C5DD-48EC-8E99-463BF28F5E85";
shapes = (
{
closed = 1;
nodes = (
(390,0,l),
(543,483,l),
(506,483,l),
(652,0,l),
(767,0,l),
(931,512,ls),
(941,546,o),
(968,604,o),
(990,640,c),
(918,618,l),
(1005,628,l),
(999,708,l),
(971,707,o),
(923,705,o),
(879,705,cs),
(849,705,o),
(806,707,o),
(769,710,c),
(764,635,l),
(893,612,l),
(835,670,l),
(838,641,o),
(819,558,o),
(814,543,cs),
(709,146,l),
(742,146,l),
(594,675,l),
(481,675,l),
(331,146,l),
(363,146,l),
(273,512,ls),
(265,548,o),
(247,636,o),
(246,668,c),
(190,618,l),
(329,629,l),
(324,710,l),
(282,708,o),
(204,705,o),
(146,705,cs),
(116,705,o),
(65,707,o),
(24,710,c),
(19,635,l),
(131,610,l),
(50,670,l),
(70,627,o),
(94,570,o),
(103,543,cs),
(275,0,l)
);
}
);
width = 1025;
},
{
anchors = (
{
name = bottom;
pos = (537,0);
},
{
name = top;
pos = (537,705);
}
);
layerId = "4E6502B1-B066-4D3E-9BD1-B1D9901B4F4F";
shapes = (
{
closed = 1;
nodes = (
(380,0,l),
(543,547,l),
(524,547,l),
(705,0,l),
(760,0,l),
(924,548,l),
(940,598,o),
(972,650,o),
(989,677,c),
(937,642,l),
(1005,649,l),
(1000,708,l),
(968,707,o),
(922,705,o),
(893,705,cs),
(874,705,o),
(835,707,o),
(805,710,c),
(800,658,l),
(911,636,l),
(879,667,l),
(879,653,o),
(877,620,o),
(867,582,c),
(731,110,l),
(751,110,l),
(568,686,l),
(521,686,l),
(351,110,l),
(370,110,l),
(241,535,l),
(222,599,o),
(214,635,o),
(211,665,c),
(180,638,l),
(293,653,l),
(289,710,l),
(255,708,o),
(194,705,o),
(152,705,cs),
(124,705,o),
(75,707,o),
(37,710,c),
(32,658,l),
(133,635,l),
(83,669,l),
(93,655,o),
(122,613,o),
(140,557,c),
(325,0,l)
);
}
);
width = 1037.1;
}
);
subCategory = Ligature;
},
{
color = 6;
glyphname = ordfeminine.case;
layers = (
{
anchors = (
{
name = bottom;
pos = (235,450);
},
{
name = ogonek;
pos = (406,450);
},
{
name = top;
pos = (223,771);
}
);
layerId = "16643525-C5DD-48EC-8E99-463BF28F5E85";
shapes = (
{
closed = 1;
nodes = (
(236,444,o),
(269,467,o),
(291,529,c),
(272,540,l),
(282,450,l),
(406,450,l),
(410,498,l),
(327,506,l),
(375,475,l),
(371,496,o),
(365,536,o),
(365,578,cs),
(365,663,ls),
(365,733,o),
(312,777,o),
(223,777,cs),
(196,777,o),
(141,769,o),
(101,759,c),
(111,646,l),
(161,648,l),
(161,676,l),
(173,745,l),
(144,697,l),
(161,702,o),
(195,714,o),
(219,714,cs),
(258,714,o),
(269,696,o),
(269,660,cs),
(269,551,l),
(263,529,o),
(246,514,o),
(223,514,cs),
(198,514,o),
(187,527,o),
(187,552,cs),
(187,577,o),
(198,589,o),
(222,592,cs),
(280,600,l),
(280,644,l),
(174,627,ls),
(116,618,o),
(86,588,o),
(86,537,cs),
(86,479,o),
(124,444,o),
(185,444,cs)
);
}
);
userData = {
RMXScaler = {
height = 65;
verticalShift = 450;
weight = -45;
width = 67;
};
};
width = 477;
},
{
anchors = (
{
name = bottom;
pos = (200,450);
},
{
name = ogonek;
pos = (353,450);
},
{
name = top;
pos = (193,749);
}
);
layerId = "4E6502B1-B066-4D3E-9BD1-B1D9901B4F4F";
shapes = (
{
closed = 1;
nodes = (
(204,444,o),
(244,470,o),
(258,517,c),
(246,527,l),
(256,450,l),
(353,450,l),
(357,488,l),
(289,495,l),
(320,472,l),
(317,489,o),
(311,524,o),
(311,560,cs),
(311,638,ls),
(311,717,o),
(272,755,o),
(196,755,cs),
(165,755,o),
(123,749,o),
(85,739,c),
(92,646,l),
(134,648,l),
(132,673,l),
(142,729,l),
(119,693,l),
(132,699,o),
(166,710,o),
(192,710,cs),
(231,710,o),
(243,684,o),
(243,642,cs),
(243,548,l),
(237,517,o),
(211,496,o),
(180,496,cs),
(155,496,o),
(142,511,o),
(142,538,cs),
(142,559,o),
(153,573,o),
(177,577,cs),
(251,589,l),
(251,625,l),
(150,608,ls),
(95,599,o),
(68,570,o),
(68,526,cs),
(68,476,o),
(103,444,o),
(159,444,cs)
);
}
);
userData = {
RMXScaler = {
height = 61;
verticalShift = 450;
weight = -24;
width = 62;
};
};
width = 407.7;
}
);
userData = {
RMXScaler = {
source = a;
};
};
},
{
color = 6;
glyphname = ordmasculine.case;
layers = (
{
layerId = "16643525-C5DD-48EC-8E99-463BF28F5E85";
shapes = (
{
closed = 1;
nodes = (
(324,440,o),
(383,502,o),
(383,611,cs),
(383,719,o),
(324,781,o),
(217,781,cs),
(112,781,o),
(52,720,o),
(52,611,cs),
(52,501,o),
(112,440,o),
(217,440,cs)
);
},
{
closed = 1;
nodes = (
(176,497,o),
(158,529,o),
(158,611,cs),
(158,691,o),
(176,723,o),
(217,723,cs),
(259,723,o),
(277,692,o),
(277,611,cs),
(277,529,o),
(259,497,o),
(217,497,cs)
);
}
);
userData = {
RMXScaler = {
adjustSpace = 9;
height = 65;
verticalShift = 450;
weight = -45;
width = 67;
};
};
width = 435;
},
{
layerId = "4E6502B1-B066-4D3E-9BD1-B1D9901B4F4F";
shapes = (
{
closed = 1;
nodes = (
(328,442,o),
(379,503,o),
(379,599,cs),
(379,697,o),
(328,757,o),
(232,757,cs),
(137,757,o),
(86,696,o),
(86,599,cs),
(86,503,o),
(137,442,o),
(232,442,cs)
);
},
{
closed = 1;
nodes = (
(182,486,o),
(162,530,o),
(162,599,cs),
(162,668,o),
(182,713,o),
(232,713,cs),
(284,713,o),
(302,667,o),
(302,599,cs),
(302,532,o),
(284,486,o),
(232,486,cs)
);
}
);
userData = {
RMXScaler = {
adjustSpace = 10;
height = 61;
verticalShift = 450;
weight = -24;
width = 62;
};
};
width = 464.7;
}
);
userData = {
RMXScaler = {
source = o;
};
};
},
{
color = 6;
glyphname = a;
kernLeft = lc_a;
kernRight = lc_Shoulder;
layers = (
{
anchors = (
{
name = bottom;
pos = (268,0);
},
{
name = ogonek;
pos = (523,0);
},
{
name = top;
pos = (250,494);
}
);
layerId = "16643525-C5DD-48EC-8E99-463BF28F5E85";
shapes = (
{
closed = 1;
nodes = (
(272,-10,o),
(321,30,o),
(352,119,c),
(324,135,l),
(339,0,l),
(523,0,l),
(529,71,l),
(406,83,l),
(475,38,l),
(470,69,o),
(460,125,o),
(460,193,cs),
(460,329,ls),
(460,443,o),
(383,509,o),
(251,509,cs),
(207,509,o),
(128,497,o),
(68,482,c),
(83,313,l),
(158,316,l),
(157,359,l),
(175,461,l),
(132,391,l),
(154,399,o),
(209,418,o),
(245,418,cs),
(299,418,o),
(320,393,o),
(320,328,cs),
(320,157,l),
(310,117,o),
(283,93,o),
(248,93,cs),
(211,93,o),
(194,113,o),
(194,154,cs),
(194,189,o),
(207,210,o),
(246,216,cs),
(336,231,l),
(336,296,l),
(178,270,ls),
(86,255,o),
(46,205,o),
(46,132,cs),
(46,44,o),
(102,-10,o),
(193,-10,cs)
);
}
);
width = 552;
},
{
anchors = (
{
name = bottom;
pos = (247,0);
},
{
name = ogonek;
pos = (488,0);
},
{
name = top;
pos = (230,494);
}
);
layerId = "4E6502B1-B066-4D3E-9BD1-B1D9901B4F4F";
shapes = (
{
closed = 1;
nodes = (
(279,-10,o),
(357,59,o),
(362,116,c),
(344,113,l),
(364,0,l),
(489,0,l),
(495,52,l),
(397,63,l),
(430,33,l),
(425,58,o),
(415,104,o),
(415,164,cs),
(415,287,ls),
(415,444,o),
(372,502,o),
(254,502,cs),
(193,502,o),
(134,494,o),
(74,479,c),
(84,346,l),
(142,349,l),
(141,390,l),
(153,465,l),
(122,422,l),
(144,438,o),
(202,452,o),
(244,452,cs),
(308,452,o),
(340,405,o),
(340,309,cs),
(340,168,l),
(330,101,o),
(271,50,o),
(201,50,cs),
(153,50,o),
(126,80,o),
(126,131,cs),
(126,166,o),
(150,191,o),
(190,198,c),
(353,229,l),
(353,278,l),
(178,249,ls),
(88,234,o),
(44,186,o),
(44,117,cs),
(44,40,o),
(100,-10,o),
(189,-10,cs)
);
}
);
width = 516.8;
}
);
unicode = 97;
},
{
color = 3;
glyphname = aogonek;
kernLeft = lc_a;
kernRight = lc_a;
layers = (
{
layerId = "16643525-C5DD-48EC-8E99-463BF28F5E85";
shapes = (
{
closed = 1;
nodes = (
(256,-10,o),
(300,16,o),
(331,72,c),
(356,0,l),
(491,0,o),
(523,0,o),
(523,0,c),
(529,71,l),
(469,77,l),
(469,77,o),
(460,143,o),
(460,193,cs),
(460,323,ls),
(460,437,o),
(383,503,o),
(251,503,cs),
(207,503,o),
(128,491,o),
(68,476,c),
(83,307,l),
(158,310,l),
(157,353,l),
(164,393,l),
(187,404,o),
(221,412,o),
(245,412,cs),
(299,412,o),
(320,387,o),
(320,322,cs),
(320,293,l),
(178,270,ls),
(90,256,o),
(46,210,o),
(46,132,cs),
(46,44,o),
(102,-10,o),
(193,-10,cs)
);
},
{
closed = 1;
nodes = (
(211,93,o),
(194,113,o),
(194,154,cs),
(194,191,o),
(209,209,o),
(246,216,cs),
(320,228,l),
(320,157,l),
(310,117,o),
(283,93,o),
(248,93,cs)
);
},
{
pos = (226,0);
ref = ogonekcomb;
}
);
width = 551;
},
{
layerId = "4E6502B1-B066-4D3E-9BD1-B1D9901B4F4F";
shapes = (
{
closed = 1;
nodes = (
(254,-10,o),
(324,29,o),
(350,80,c),
(363,0,l),
(437,0,o),
(489,0,o),
(489,0,c),
(495,52,l),
(425,59,l),
(425,59,o),
(415,114,o),
(415,164,cs),
(415,288,ls),
(415,445,o),
(372,503,o),
(254,503,cs),
(193,503,o),
(134,495,o),
(74,479,c),
(84,347,l),
(140,350,l),
(141,390,l),
(148,433,l),
(173,445,o),
(210,453,o),
(244,453,cs),
(308,453,o),
(340,406,o),
(340,310,cs),
(340,277,l),
(178,249,ls),
(88,234,o),
(44,188,o),
(44,117,cs),
(44,40,o),
(100,-10,o),
(189,-10,cs)
);
},
{
closed = 1;
nodes = (
(153,50,o),
(126,80,o),
(126,131,cs),
(126,166,o),
(150,191,o),
(190,198,cs),
(340,227,l),
(340,168,l),
(330,101,o),
(271,50,o),
(201,50,cs)
);
},
{
alignment = -1;
pos = (228,0);
ref = ogonekcomb;
}
);
width = 518;
}
);
unicode = 261;
},
{
color = 6;
glyphname = ae;
kernLeft = lc_a;
kernRight = lc_e;
layers = (
{
anchors = (
{
name = bottom;
pos = (396,0);
},
{
name = top;
pos = (396,494);
}
);
layerId = "16643525-C5DD-48EC-8E99-463BF28F5E85";
shapes = (
{
closed = 1;
nodes = (
(294,-10,o),
(348,28,o),
(399,120,c),
(350,118,l),
(390,28,o),
(453,-15,o),
(548,-15,cs),
(626,-15,o),
(692,9,o),
(744,56,c),
(709,114,l),
(688,100,o),
(641,81,o),
(588,81,cs),
(497,81,o),
(463,127,o),
(461,248,c),
(463,268,l),
(462,371,o),
(485,424,o),
(533,424,cs),
(576,424,o),
(596,388,o),
(596,311,cs),
(596,240,l),
(659,307,l),
(447,293,l),
(446,223,l),
(732,240,l),
(753,279,l),
(753,420,o),
(675,503,o),
(544,503,cs),
(470,503,o),
(411,480,o),
(370,435,c),
(425,435,l),
(389,480,o),
(330,503,o),
(251,503,cs),
(205,503,o),
(135,493,o),
(68,476,c),
(83,309,l),
(158,312,l),
(158,361,l),
(166,463,l),
(127,379,l),
(154,402,o),
(212,422,o),
(245,422,cs),
(296,422,o),
(320,391,o),
(320,323,cs),
(320,182,ls),
(320,124,o),
(295,93,o),
(248,93,cs),
(211,93,o),
(194,111,o),
(194,152,cs),
(194,188,o),
(207,202,o),
(246,207,cs),
(336,216,l),
(336,286,l),
(178,270,ls),
(92,262,o),
(46,214,o),
(46,132,cs),
(46,47,o),
(109,-10,o),
(203,-10,cs)
);
}
);
width = 791;
},
{
anchors = (
{
name = bottom;
pos = (386,0);
},
{
name = top;
pos = (386,494);
}
);
layerId = "4E6502B1-B066-4D3E-9BD1-B1D9901B4F4F";
shapes = (
{
closed = 1;
nodes = (
(269,-10,o),
(336,39,o),
(381,133,c),
(361,132,l),
(389,41,o),
(459,-10,o),
(555,-10,cs),
(660,-10,o),
(735,54,o),
(730,49,c),
(702,94,l),
(676,76,o),
(620,52,o),
(562,52,cs),
(475,52,o),
(411,137,o),
(414,255,c),
(415,271,ls),
(418,385,o),
(464,453,o),
(539,453,cs),
(607,453,o),
(647,405,o),
(647,323,cs),
(647,288,l),
(680,327,l),
(403,286,l),
(401,238,l),
(716,275,l),
(730,313,l),
(720,440,o),
(659,502,o),
(542,502,cs),
(473,502,o),
(417,472,o),
(377,417,c),
(399,414,l),
(380,475,o),
(333,503,o),
(254,503,cs),
(193,503,o),
(133,495,o),
(74,479,c),
(84,348,l),
(140,351,l),
(140,385,l),
(157,466,l),
(136,424,l),
(158,442,o),
(199,452,o),
(244,452,cs),
(308,452,o),
(340,405,o),
(340,310,cs),
(340,218,ls),
(340,124,o),
(279,50,o),
(201,50,cs),
(153,50,o),
(126,78,o),
(126,126,cs),
(126,169,o),
(144,190,o),
(190,199,cs),
(353,229,l),
(353,278,l),
(157,245,ls),
(83,232,o),
(44,189,o),
(44,122,cs),
(44,42,o),
(99,-10,o),
(188,-10,cs)
);
}
);
width = 772.3;
}
);
unicode = 230;
},
{
color = 6;
glyphname = b;
kernLeft = lc_LongStem;
kernRight = lc_Round;
layers = (
{
anchors = (
{
name = bottom;
pos = (297,0);
},
{
name = top;
pos = (297,756);
}
);
background = {
shapes = (
{
closed = 1;
nodes = (
(462,-10,o),
(549,91,o),
(549,257,cs),
(549,397,o),
(497,509,o),
(359,509,cs),
(276,509,o),
(231,466,o),
(192,403,c),
(217,370,l),
(217,557,ls),
(217,594,o),
(223,681,o),
(227,737,c),
(206,756,l),
(118,756,ls),
(87,756,o),
(33,762,o),
(1,766,c),
(-8,691,l),
(128,660,l),
(62,705,l),
(69,664,o),
(77,607,o),
(77,587,cs),
(77,163,ls),
(77,148,o),
(71,76,o),
(67,26,c),
(162,-2,o),
(234,-10,o),
(298,-10,cs)
);
},
{
closed = 1;
nodes = (
(221,88,o),
(217,150,o),
(219,193,cs),
(219,266,ls),
(219,337,o),
(243,396,o),
(305,396,cs),
(379,396,o),
(390,319,o),
(390,244,cs),
(390,154,o),
(374,85,o),
(286,85,cs),
(252,85,o),
(213,101,o),
(181,111,c),
(220,73,l)
);
}
);
};
layerId = "16643525-C5DD-48EC-8E99-463BF28F5E85";
shapes = (
{
closed = 1;
nodes = (
(462,-10,o),
(549,91,o),
(549,257,cs),
(549,397,o),
(497,509,o),
(359,509,cs),
(276,509,o),
(231,466,o),
(192,403,c),
(217,370,l),
(217,557,ls),
(217,594,o),
(223,681,o),
(227,737,c),
(206,756,l),
(118,756,l),
(1,761,l),
(-8,691,l),
(128,660,l),
(62,705,l),
(69,664,o),
(77,607,o),
(77,587,cs),
(77,163,ls),
(77,148,o),
(71,76,o),
(67,26,c),
(162,-2,o),
(234,-10,o),
(298,-10,cs)
);
},
{
closed = 1;
nodes = (
(221,88,o),
(219,150,o),
(219,193,cs),
(219,266,ls),
(219,337,o),
(243,396,o),
(305,396,cs),
(379,396,o),
(390,319,o),
(390,244,cs),
(390,154,o),
(374,85,o),
(286,85,cs),
(252,85,o),
(213,101,o),
(181,111,c),
(220,73,l)
);
}
);
width = 594;
},
{
anchors = (
{
name = bottom;
pos = (269,0);
},
{
name = top;
pos = (269,756);
}
);
layerId = "4E6502B1-B066-4D3E-9BD1-B1D9901B4F4F";
shapes = (
{
closed = 1;
nodes = (
(405,-10,o),
(492,115,o),
(492,256,cs),
(492,394,o),
(426,502,o),
(293,502,cs),
(215,502,o),
(166,452,o),
(146,411,c),
(154,393,l),
(154,588,ls),
(154,625,o),
(158,695,o),
(161,738,c),
(142,756,l),
(87,756,l),
(-2,759,l),
(-7,709,l),
(103,685,l),
(65,716,l),
(69,694,o),
(79,640,o),
(79,618,cs),
(79,134,ls),
(79,119,o),
(75,64,o),
(72,26,c),
(113,10,o),
(180,-10,o),
(264,-10,cs)
);
},
{
closed = 1;
nodes = (
(161,48,o),
(154,109,o),
(154,164,cs),
(154,275,ls),
(154,359,o),
(196,447,o),
(282,447,cs),
(379,447,o),
(407,356,o),
(407,255,cs),
(407,143,o),
(369,42,o),
(259,42,cs),
(214,42,o),
(175,49,o),
(144,59,c),
(167,28,l)
);
}
);
width = 538;
}
);
unicode = 98;
},
{
color = 6;
glyphname = c;
kernLeft = lc_Round;
kernRight = lc_c;
layers = (
{
anchors = (
{
name = bottom;
pos = (291,0);
},
{
name = top;
pos = (286,494);
}
);
layerId = "16643525-C5DD-48EC-8E99-463BF28F5E85";
shapes = (
{
closed = 1;
nodes = (
(357,-15,o),
(423,11,o),
(474,56,c),
(439,114,l),
(400,92,o),
(363,82,o),
(322,82,cs),
(242,82,o),
(202,137,o),
(202,248,cs),
(202,373,o),
(232,430,o),
(297,430,cs),
(340,430,o),
(381,404,o),
(410,380,c),
(351,446,l),
(362,419,o),
(364,392,o),
(366,365,cs),
(365,311,l),
(450,308,l),
(465,485,l),
(406,497,o),
(348,509,o),
(288,509,cs),
(136,509,o),
(43,410,o),
(43,248,cs),
(43,77,o),
(130,-15,o),
(293,-15,cs)
);
}
);
width = 515;
},
{
anchors = (
{
name = bottom;
pos = (255,0);
},
{
name = top;
pos = (279,494);
}
);
layerId = "4E6502B1-B066-4D3E-9BD1-B1D9901B4F4F";
shapes = (
{
closed = 1;
nodes = (
(333,-10,o),
(386,6,o),
(442,43,c),
(415,89,l),
(367,66,o),
(322,52,o),
(273,52,cs),
(171,52,o),
(135,147,o),
(135,246,cs),
(135,343,o),
(173,448,o),
(275,448,cs),
(310,448,o),
(345,432,o),
(381,413,c),
(350,445,l),
(357,423,o),
(366,394,o),
(366,384,cs),
(366,350,l),
(421,347,l),
(431,466,l),
(371,487,o),
(335,502,o),
(276,502,cs),
(123,502,o),
(47,398,o),
(47,246,cs),
(47,95,o),
(122,-10,o),
(274,-10,cs)
);
}
);
width = 480.9;
}
);
unicode = 99;
},
{
color = 6;
glyphname = d;
kernLeft = lc_Round;
kernRight = lc_LongStem;
layers = (
{
anchors = (
{
name = bottom;
pos = (315,0);
},
{
name = center;
pos = (431,585);
},
{
name = top;
pos = (368,756);
},
{
name = topright;
pos = (627,494);
}
);
layerId = "16643525-C5DD-48EC-8E99-463BF28F5E85";
shapes = (
{
closed = 1;
nodes = (
(315,-10,o),
(366,28,o),
(416,122,c),
(381,138,l),
(396,0,l),
(580,0,l),
(586,71,l),
(463,83,l),
(531,40,l),
(526,74,o),
(517,125,o),
(517,193,cs),
(517,557,ls),
(517,594,o),
(523,681,o),
(527,737,c),
(506,756,l),
(418,756,l),
(301,761,l),
(292,691,l),
(428,660,l),
(362,707,l),
(365,690,o),
(377,617,o),
(377,587,cs),
(377,233,l),
(372,147,o),
(342,103,o),
(289,103,cs),
(231,103,o),
(204,151,o),
(204,255,cs),
(204,367,o),
(235,414,o),
(308,414,cs),
(330,414,o),
(360,408,o),
(397,394,c),
(394,502,l),
(359,506,o),
(325,509,o),
(296,509,cs),
(136,509,o),
(45,412,o),
(45,242,cs),
(45,81,o),
(113,-10,o),
(235,-10,cs)
);
}
);
width = 610;
},
{
anchors = (
{
name = bottom;
pos = (279,0);
},
{
name = center;
pos = (385,610);
},
{
name = top;
pos = (327,756);
},
{
name = topright;
pos = (556,494);
}
);
layerId = "4E6502B1-B066-4D3E-9BD1-B1D9901B4F4F";
shapes = (
{
closed = 1;
nodes = (
(308,-10,o),
(397,50,o),
(395,96,c),
(388,113,l),
(408,0,l),
(533,0,l),
(539,52,l),
(436,63,l),
(475,27,l),
(470,49,o),
(459,111,o),
(459,163,cs),
(459,589,ls),
(459,625,o),
(462,695,o),
(465,738,c),
(447,756,l),
(391,756,l),
(289,759,l),
(284,709,l),
(406,688,l),
(368,721,l),
(372,705,o),
(384,645,o),
(384,619,cs),
(384,203,l),
(384,106,o),
(334,48,o),
(252,48,cs),
(178,48,o),
(131,124,o),
(131,245,cs),
(131,370,o),
(181,446,o),
(263,446,cs),
(310,446,o),
(351,432,o),
(398,395,c),
(405,467,l),
(334,496,o),
(302,502,o),
(253,502,cs),
(127,502,o),
(48,404,o),
(48,248,cs),
(48,88,o),
(126,-10,o),
(250,-10,cs)
);
}
);
width = 560.5;
}
);
unicode = 100;
},
{
color = 6;
glyphname = eth;
kernLeft = lc_Round;
kernRight = lc_eth;
layers = (
{
layerId = "16643525-C5DD-48EC-8E99-463BF28F5E85";
shapes = (
{
closed = 1;
nodes = (
(450,-15,o),
(541,90,o),
(541,252,cs),
(541,488,o),
(421,698,o),
(207,770,c),
(182,711,l),
(336,626,o),
(382,476,o),
(382,279,cs),
(382,172,o),
(363,77,o),
(288,77,cs),
(213,77,o),
(201,161,o),
(201,236,cs),
(201,311,o),
(213,396,o),
(288,396,cs),
(306,396,o),
(320,392,o),
(328,390,c),
(340,460,l),
(327,470,o),
(297,483,o),
(258,483,cs),
(128,483,o),
(41,387,o),
(41,243,cs),
(41,83,o),
(128,-15,o),
(288,-15,cs)
);
},
{
closed = 1;
nodes = (
(325,596,l),
(283,652,l),
(174,595,l),
(207,536,l)
);
},
{
closed = 1;
nodes = (
(494,683,l),
(461,744,l),
(340,681,l),
(390,630,l)
);
}
);
width = 591;
},
{
layerId = "4E6502B1-B066-4D3E-9BD1-B1D9901B4F4F";
shapes = (
{
closed = 1;
nodes = (
(424,-10,o),
(501,97,o),
(501,252,cs),
(501,479,o),
(388,688,o),
(189,765,c),
(171,725,l),
(349,634,o),
(414,468,o),
(414,248,cs),
(414,142,o),
(378,44,o),
(273,44,cs),
(172,44,o),
(134,136,o),
(134,236,cs),
(134,336,o),
(175,429,o),
(269,429,cs),
(285,429,o),
(310,427,o),
(324,425,c),
(331,468,l),
(313,474,o),
(290,483,o),
(262,483,cs),
(132,483,o),
(45,379,o),
(45,235,cs),
(45,93,o),
(130,-10,o),
(273,-10,cs)
);
},
{
closed = 1;
nodes = (
(318,614,l),
(291,651,l),
(162,584,l),
(184,544,l)
);
},
{
closed = 1;
nodes = (
(471,691,l),
(449,733,l),
(324,668,l),
(354,631,l)
);
}
);
width = 556.9;
}
);
unicode = 240;
},
{
color = 6;
glyphname = e;
kernLeft = lc_Round;
kernRight = lc_e;
layers = (
{
anchors = (
{
name = bottom;
pos = (285,0);
},
{
name = ogonek;
pos = (412,10);
},
{
name = top;
pos = (279,494);
}
);
layerId = "16643525-C5DD-48EC-8E99-463BF28F5E85";
shapes = (
{
closed = 1;
nodes = (
(366,-15,o),
(432,9,o),
(484,56,c),
(449,114,l),
(428,100,o),
(381,81,o),
(328,81,cs),
(241,81,o),
(202,126,o),
(202,256,cs),
(202,357,o),
(213,430,o),
(273,430,cs),
(316,430,o),
(336,392,o),
(336,316,cs),
(336,290,o),
(331,265,o),
(326,239,c),
(399,305,l),
(192,294,l),
(191,221,l),
(472,221,l),
(493,260,l),
(502,418,o),
(426,509,o),
(284,509,cs),
(140,509,o),
(43,416,o),
(43,245,cs),
(43,80,o),
(135,-15,o),
(288,-15,cs)
);
}
);
width = 535;
},
{
anchors = (
{
name = bottom;
pos = (273,0);
},
{
name = ogonek;
pos = (410,23);
},
{
name = top;
pos = (266,494);
}
);
layerId = "4E6502B1-B066-4D3E-9BD1-B1D9901B4F4F";
shapes = (
{
closed = 1;
nodes = (
(394,-10,o),
(457,56,o),
(449,49,c),
(423,93,l),
(394,75,o),
(332,51,o),
(269,51,cs),
(174,51,o),
(132,161,o),
(132,249,cs),
(132,341,o),
(159,454,o),
(259,454,cs),
(334,454,o),
(369,395,o),
(369,325,cs),
(369,305,o),
(368,289,o),
(368,272,c),
(400,307,l),
(111,285,l),
(111,240,l),
(435,240,l),
(451,272,l),
(450,408,o),
(402,502,o),
(262,502,cs),
(115,502,o),
(47,392,o),
(47,245,cs),
(47,98,o),
(124,-10,o),
(275,-10,cs)
);
}
);
width = 497.6;
}
);
unicode = 101;
},
{
color = 6;
glyphname = schwa;
kernLeft = lc_s;
kernRight = lc_s;
layers = (
{
layerId = "16643525-C5DD-48EC-8E99-463BF28F5E85";
shapes = (
{
closed = 1;
nodes = (
(405,-15,o),
(492,78,o),
(492,246,cs),
(492,409,o),
(390,503,o),
(237,503,cs),
(159,503,o),
(112,483,o),
(51,442,c),
(86,384,l),
(115,394,o),
(168,407,o),
(207,407,cs),
(294,407,o),
(333,362,o),
(333,232,cs),
(333,137,o),
(322,64,o),
(262,64,cs),
(219,64,o),
(199,102,o),
(199,178,cs),
(199,253,l),
(136,190,l),
(343,191,l),
(344,258,l),
(63,271,l),
(42,232,l),
(33,76,o),
(119,-15,o),
(261,-15,cs)
);
}
);
width = 534;
},
{
layerId = "4E6502B1-B066-4D3E-9BD1-B1D9901B4F4F";
shapes = (
{
closed = 1;
nodes = (
(384,-10,o),
(458,96,o),
(458,246,cs),
(458,400,o),
(385,503,o),
(230,503,cs),
(152,503,o),
(107,481,o),
(66,455,c),
(92,409,l),
(148,436,o),
(178,443,o),
(233,443,cs),
(329,443,o),
(370,348,o),
(370,247,cs),
(370,144,o),
(337,45,o),
(239,45,cs),
(162,45,o),
(130,105,o),
(130,179,cs),
(130,232,l),
(96,199,l),
(388,202,l),
(388,250,l),
(70,266,l),
(41,247,l),
(31,109,o),
(99,-10,o),
(239,-10,cs)
);
}
);
width = 506.5;
}
);
unicode = 601;
},
{
color = 6;
glyphname = f;
kernLeft = lc_f;
kernRight = lc_f;
layers = (
{
anchors = (
{
name = bottom;
pos = (193,0);
},
{
name = top;
pos = (193,756);
}
);
layerId = "16643525-C5DD-48EC-8E99-463BF28F5E85";
shapes = (
{
closed = 1;
nodes = (
(81,-3,o),
(144,0,o),
(154,0,c),
(333,0,l),
(338,71,l),
(190,83,l),
(259,35,l),
(254,67,o),
(244,125,o),
(244,193,cs),
(244,460,l),
(228,419,l),
(346,419,l),
(355,494,l),
(228,494,l),
(244,474,l),
(219,607,o),
(217,689,o),
(272,689,cs),
(284,689,o),
(328,675,o),
(328,675,c),
(290,703,l),
(293,692,o),
(295,655,o),
(295,637,c),
(293,592,l),
(367,589,l),
(387,759,l),
(342,766,o),
(320,770,o),
(285,770,cs),
(175,770,o),
(104,690,o),
(104,580,cs),
(104,465,l),
(120,497,l),
(44,482,l),
(47,419,l),
(120,419,l),
(104,450,l),
(104,163,ls),
(104,133,o),
(93,58,o),
(88,29,c),
(157,88,l),
(39,65,l),
(44,-5,l)
);
}
);
width = 386;
},
{
anchors = (
{
name = bottom;
pos = (182,0);
},
{
name = top;
pos = (182,756);
}
);
layerId = "4E6502B1-B066-4D3E-9BD1-B1D9901B4F4F";
shapes = (
{
closed = 1;
nodes = (
(75,-3,o),
(127,0,o),
(148,0,c),
(296,0,l),
(302,52,l),
(168,62,l),
(205,25,l),
(201,49,o),
(196,112,o),
(196,164,cs),
(196,460,l),
(183,442,l),
(334,442,l),
(339,494,l),
(183,494,l),
(196,485,l),
(198,614,o),
(183,720,o),
(286,720,cs),
(297,720,o),
(318,720,o),
(334,720,c),
(286,747,l),
(296,709,o),
(305,674,o),
(305,667,c),
(305,632,l),
(344,629,l),
(355,763,l),
(344,766,o),
(319,770,o),
(296,770,cs),
(181,770,o),
(121,703,o),
(121,599,cs),
(121,478,l),
(133,496,l),
(39,484,l),
(42,442,l),
(134,442,l),
(121,454,l),
(121,134,ls),
(121,109,o),
(107,44,o),
(105,29,c),
(144,66,l),
(33,43,l),
(38,-5,l)
);
}
);
width = 365;
}
);
unicode = 102;
},
{
color = 6;
glyphname = g;
kernLeft = lc_g;
kernRight = lc_g;
layers = (
{
anchors = (
{
name = top;
pos = (257,494);
}
);
layerId = "16643525-C5DD-48EC-8E99-463BF28F5E85";
shapes = (
{
closed = 1;
nodes = (
(392,-235,o),
(510,-149,o),
(510,-39,cs),
(510,10,o),
(492,41,o),
(458,54,cs),
(433,63,o),
(390,69,o),
(253,84,cs),
(193,90,o),
(170,100,o),
(170,122,cs),
(170,131,o),
(178,146,o),
(201,167,c),
(150,185,l),
(97,135,o),
(71,104,o),
(71,88,cs),
(71,39,o),
(90,4,o),
(132,-12,cs),
(173,-28,o),
(194,-33,o),
(225,-38,cs),
(355,-58,ls),
(376,-61,o),
(388,-74,o),
(388,-92,cs),
(388,-131,o),
(349,-155,o),
(286,-155,cs),
(201,-155,o),
(155,-127,o),
(155,-76,cs),
(155,-58,o),
(165,-33,o),
(186,-14,c),
(134,7,l),
(70,-26,o),
(22,-67,o),
(22,-92,cs),
(22,-186,o),
(96,-235,o),
(242,-235,cs)
);
},
{
closed = 1;
nodes = (
(381,147,o),
(467,220,o),
(467,330,cs),
(467,442,o),
(378,509,o),
(256,509,cs),
(127,509,o),
(41,436,o),
(41,326,cs),
(41,212,o),
(133,147,o),
(252,147,cs)
);
},
{
closed = 1;
nodes = (
(213,213,o),
(193,249,o),
(193,324,cs),
(193,405,o),
(214,443,o),
(256,443,cs),
(296,443,o),
(315,407,o),
(315,332,cs),
(315,251,o),
(295,213,o),
(253,213,cs)
);
},
{
closed = 1;
nodes = (
(506,504,l),
(349,479,l),
(425,418,l),
(510,418,l)
);
}
);
width = 547;
},
{
anchors = (
{
name = top;
pos = (247,494);
}
);
layerId = "4E6502B1-B066-4D3E-9BD1-B1D9901B4F4F";
shapes = (
{
closed = 1;
nodes = (
(362,-235,o),
(476,-149,o),
(476,-45,cs),
(476,3,o),
(460,33,o),
(432,42,cs),
(392,54,o),
(301,64,o),
(240,72,cs),
(163,81,o),
(145,87,o),
(145,107,cs),
(145,113,o),
(156,133,o),
(185,163,c),
(152,174,l),
(94,126,o),
(67,99,o),
(67,84,cs),
(67,46,o),
(85,23,o),
(130,9,cs),
(170,-3,o),
(189,-6,o),
(225,-11,cs),
(355,-27,ls),
(386,-31,o),
(395,-42,o),
(395,-73,cs),
(395,-137,o),
(334,-180,o),
(250,-180,cs),
(153,-180,o),
(109,-149,o),
(109,-79,cs),
(109,-58,o),
(119,-42,o),
(167,17,c),
(130,21,l),
(71,-25,o),
(28,-71,o),
(28,-90,cs),
(28,-185,o),
(95,-235,o),
(223,-235,cs)
);
},
{
closed = 1;
nodes = (
(356,140,o),
(432,212,o),
(432,321,cs),
(432,429,o),
(357,502,o),
(241,502,cs),
(126,502,o),
(50,431,o),
(50,322,cs),
(50,214,o),
(125,140,o),
(241,140,cs)
);
},
{
closed = 1;
nodes = (
(167,190,o),
(130,234,o),
(130,322,cs),
(130,408,o),
(168,453,o),
(241,453,cs),
(315,453,o),
(351,409,o),
(351,321,cs),
(351,233,o),
(315,190,o),
(241,190,cs)
);
},
{
closed = 1;
nodes = (
(476,506,l),
(317,474,l),
(379,444,l),
(484,442,l)
);
}
);
width = 515.1;
}
);
unicode = 103;
},
{
color = 6;
glyphname = gstroke;
kernLeft = lc_g;
kernRight = lc_g;
layers = (
{
anchors = (
{
name = top;
pos = (261,504);
}
);
layerId = "16643525-C5DD-48EC-8E99-463BF28F5E85";
shapes = (
{
closed = 1;
nodes = (
(387,-237,o),
(507,-149,o),
(507,-40,cs),
(507,9,o),
(490,41,o),
(457,52,cs),
(424,63,o),
(333,73,o),
(256,82,cs),
(183,91,o),
(161,98,o),
(161,119,cs),
(161,127,o),
(172,146,o),
(198,171,c),
(156,186,l),
(98,136,o),
(71,105,o),
(71,90,cs),
(71,46,o),
(90,17,o),
(134,2,cs),
(181,-14,o),
(203,-17,o),
(232,-21,cs),
(366,-40,ls),
(393,-44,o),
(404,-56,o),
(404,-81,cs),
(404,-133,o),
(351,-168,o),
(275,-168,cs),
(181,-168,o),
(135,-138,o),
(135,-76,cs),
(135,-57,o),
(145,-35,o),
(182,5,c),
(136,18,l),
(73,-23,o),
(26,-68,o),
(26,-90,cs),
(26,-186,o),
(99,-237,o),
(239,-237,cs)
);
},
{
closed = 1;
nodes = (
(72,-129,l),
(94,-119,l),
(416,-119,l),
(440,-129,l),
(570,-129,l),
(580,-65,l),
(458,-65,l),
(431,-75,l),
(98,-75,l),
(70,-65,l),
(-32,-65,l),
(-32,-129,l)
);
},
{
closed = 1;
nodes = (
(379,147,o),
(465,220,o),
(465,330,cs),
(465,442,o),
(376,509,o),
(254,509,cs),
(125,509,o),
(39,436,o),
(39,326,cs),
(39,212,o),
(131,147,o),
(250,147,cs)
);
},
{
closed = 1;
nodes = (
(211,213,o),
(191,249,o),
(191,324,cs),
(191,405,o),
(212,443,o),
(254,443,cs),
(294,443,o),
(313,407,o),
(313,332,cs),
(313,251,o),
(293,213,o),
(251,213,cs)
);
},
{
closed = 1;
nodes = (
(494,504,l),
(347,479,l),
(423,418,l),
(498,418,l)
);
}
);
width = 541;
},
{
anchors = (
{
name = top;
pos = (246,493);
}
);
layerId = "4E6502B1-B066-4D3E-9BD1-B1D9901B4F4F";
shapes = (
{
closed = 1;
nodes = (
(362,-235,o),
(475,-149,o),
(475,-44,cs),
(475,4,o),
(459,33,o),
(431,42,cs),
(397,53,o),
(318,62,o),
(237,72,cs),
(163,81,o),
(145,87,o),
(145,107,cs),
(145,114,o),
(156,133,o),
(184,162,c),
(151,174,l),
(93,126,o),
(66,98,o),
(66,83,cs),
(66,45,o),
(83,21,o),
(129,8,cs),
(168,-4,o),
(187,-7,o),
(223,-12,cs),
(353,-29,ls),
(383,-33,o),
(392,-44,o),
(392,-74,cs),
(392,-136,o),
(332,-179,o),
(250,-179,cs),
(154,-179,o),
(110,-148,o),
(110,-79,cs),
(110,-58,o),
(120,-42,o),
(167,15,c),
(128,20,l),
(70,-25,o),
(26,-71,o),
(26,-90,cs),
(26,-185,o),
(94,-235,o),
(223,-235,cs)
);
},
{
closed = 1;
nodes = (
(58,-119,l),
(80,-120,l),
(416,-120,l),
(435,-119,l),
(519,-119,l),
(524,-77,l),
(445,-77,l),
(424,-76,l),
(87,-76,l),
(60,-77,l),
(-24,-77,l),
(-24,-119,l)
);
},
{
closed = 1;
nodes = (
(355,140,o),
(431,212,o),
(431,321,cs),
(431,429,o),
(356,502,o),
(240,502,cs),
(125,502,o),
(49,431,o),
(49,322,cs),
(49,214,o),
(124,140,o),
(240,140,cs)
);
},
{
closed = 1;
nodes = (
(166,190,o),
(129,234,o),
(129,322,cs),
(129,408,o),
(167,453,o),
(240,453,cs),
(314,453,o),
(350,409,o),
(350,321,cs),
(350,233,o),
(314,190,o),
(240,190,cs)
);
},
{
closed = 1;
nodes = (
(465,506,l),
(317,474,l),
(378,444,l),
(473,442,l)
);
}
);
width = 511.3;
}
);
unicode = 485;
},
{
color = 6;
glyphname = h;
kernLeft = lc_LongStem;
kernRight = lc_Shoulder;
layers = (
{
anchors = (
{
name = bottom;
pos = (330,0);
},
{
name = center;
pos = (195,585);
},
{
name = top;
pos = (199,756);
}
);
layerId = "16643525-C5DD-48EC-8E99-463BF28F5E85";
shapes = (
{
closed = 1;
nodes = (
(65,-3,o),
(135,0,o),
(145,0,c),
(304,0,l),
(309,71,l),
(181,83,l),
(250,35,l),
(245,67,o),
(235,125,o),
(235,193,cs),
(235,265,ls),
(235,355,o),
(284,403,o),
(334,403,cs),
(386,403,o),
(408,363,o),
(408,311,cs),
(408,163,ls),
(408,148,o),
(403,67,o),
(399,31,c),
(465,90,l),
(347,65,l),
(352,-5,l),
(395,-3,o),
(457,0,o),
(472,0,cs),
(617,0,l),
(622,71,l),
(494,83,l),
(563,36,l),
(559,63,o),
(548,125,o),
(548,193,cs),
(548,325,ls),
(548,441,o),
(487,503,o),
(371,503,cs),
(296,503,o),
(247,461,o),
(210,398,c),
(235,372,l),
(235,557,ls),
(235,607,o),
(241,694,o),
(245,737,c),
(224,756,l),
(136,756,l),
(19,761,l),
(10,691,l),
(146,660,l),
(76,735,l),
(82,695,o),
(95,617,o),
(95,587,cs),
(95,163,ls),
(95,133,o),
(84,58,o),
(79,29,c),
(148,88,l),
(20,65,l),
(25,-5,l)
);
}
);
width = 643;
},
{
anchors = (
{
name = bottom;
pos = (298,0);
},
{
name = center;
pos = (180,610);
},
{
name = top;
pos = (162,719);
}
);
layerId = "4E6502B1-B066-4D3E-9BD1-B1D9901B4F4F";
shapes = (
{
closed = 1;
nodes = (
(63,-3,o),
(115,0,o),
(136,0,c),
(263,0,l),
(270,52,l),
(157,62,l),
(194,25,l),
(190,49,o),
(185,112,o),
(185,164,cs),
(185,275,ls),
(186,374,o),
(234,446,o),
(315,446,cs),
(403,446,o),
(421,360,o),
(421,273,cs),
(421,134,ls),
(421,100,o),
(412,64,o),
(406,44,c),
(443,67,l),
(343,43,l),
(348,-5,l),
(382,-3,o),
(433,0,o),
(448,0,c),
(576,0,l),
(583,52,l),
(470,62,l),
(506,35,l),
(502,61,o),
(496,115,o),
(496,164,cs),
(496,271,ls),
(496,411,o),
(468,503,o),
(328,503,cs),
(250,503,o),
(199,456,o),
(176,411,c),
(185,393,l),
(185,588,ls),
(185,635,o),
(188,708,o),
(191,738,c),
(172,756,l),
(117,756,l),
(28,759,l),
(23,709,l),
(133,685,l),
(94,731,l),
(99,701,o),
(109,643,o),
(109,618,cs),
(109,134,ls),
(109,109,o),
(96,44,o),
(93,29,c),
(133,66,l),
(21,43,l),
(26,-5,l)
);
}
);
width = 605;
}
);
unicode = 104;
},
{
color = 6;
glyphname = idotless;
kernLeft = lc_ShortStem;
kernRight = lc_ShortStem;
layers = (
{
anchors = (
{
name = bottom;
pos = (156,0);
},
{
name = ogonek;
pos = (177,0);
},
{
name = top;
pos = (162,494);
}
);
layerId = "16643525-C5DD-48EC-8E99-463BF28F5E85";
shapes = (
{
closed = 1;
nodes = (
(89,-3,o),
(159,0,o),
(169,0,c),
(328,0,l),
(333,71,l),
(205,83,l),
(274,35,l),
(269,67,o),
(259,125,o),
(259,193,cs),
(259,295,ls),
(259,345,o),
(265,432,o),
(269,475,c),
(248,494,l),
(43,494,l),
(34,419,l),
(170,398,l),
(100,473,l),
(106,433,o),
(119,355,o),
(119,325,cs),
(119,163,ls),
(119,133,o),
(108,58,o),
(103,29,c),
(172,88,l),
(44,65,l),
(49,-5,l)
);
}
);
width = 355;
},
{
anchors = (
{
name = bottom;
pos = (146,0);
},
{
name = ogonek;
pos = (173,0);
},
{
name = top;
pos = (133,494);
}
);
layerId = "4E6502B1-B066-4D3E-9BD1-B1D9901B4F4F";
shapes = (
{
closed = 1;
nodes = (
(77,-3,o),
(129,0,o),
(150,0,c),
(277,0,l),
(284,52,l),
(171,62,l),
(208,25,l),
(204,49,o),
(199,112,o),
(199,164,cs),
(199,326,ls),
(199,373,o),
(202,446,o),
(205,476,c),
(186,494,l),
(42,494,l),
(37,442,l),
(147,423,l),
(108,469,l),
(113,439,o),
(123,381,o),
(123,356,cs),
(123,134,ls),
(123,109,o),
(110,44,o),
(107,29,c),
(147,66,l),
(35,43,l),
(40,-5,l)
);
}
);
width = 305.5;
}
);
unicode = 305;
},
{
color = 6;
glyphname = idotaccent;
kernLeft = lc_ShortStem;
kernRight = lc_ShortStem;
layers = (
{
layerId = "16643525-C5DD-48EC-8E99-463BF28F5E85";
shapes = (
{
closed = 1;
nodes = (
(71,-3,o),
(114,0,o),
(148,0,cs),
(230,0,o),
(299,-3,o),
(327,-5,c),
(332,71,l),
(267,77,l),
(263,105,o),
(258,157,o),
(258,193,cs),
(258,295,ls),
(258,332,o),
(264,420,o),
(268,477,c),
(247,496,l),
(159,494,ls),
(128,494,o),
(74,499,o),
(42,503,c),
(33,429,l),
(108,412,l),
(112,383,o),
(118,340,o),
(118,325,cs),
(118,163,ls),
(118,148,o),
(113,105,o),
(109,77,c),
(43,65,l),
(48,-5,l)
);
},
{
closed = 1;
nodes = (
(236,576,o),
(264,608,o),
(264,655,cs),
(264,705,o),
(234,735,o),
(185,735,cs),
(134,735,o),
(106,702,o),
(106,655,cs),
(106,608,o),
(134,576,o),
(185,576,cs)
);
}
);
width = 355;
},
{
layerId = "4E6502B1-B066-4D3E-9BD1-B1D9901B4F4F";
shapes = (
{
closed = 1;
nodes = (
(81,-3,o),
(140,0,o),
(152,0,cs),
(208,0,o),
(256,-3,o),
(276,-5,c),
(284,52,l),
(204,59,l),
(201,83,o),
(198,128,o),
(198,164,cs),
(198,326,ls),
(198,363,o),
(201,433,o),
(204,476,c),
(185,494,l),
(130,494,ls),
(118,494,o),
(72,496,o),
(41,498,c),
(36,447,l),
(112,431,l),
(116,407,o),
(122,371,o),
(122,356,cs),
(122,134,ls),
(122,119,o),
(116,83,o),
(112,59,c),
(35,43,l),
(40,-5,l)
);
},
{
closed = 1;
nodes = (
(192,593,o),
(212,618,o),
(212,655,cs),
(212,695,o),
(191,719,o),
(155,719,cs),
(119,719,o),
(98,692,o),
(98,655,cs),
(98,618,o),
(119,593,o),
(155,593,cs)
);
}
);
width = 305.5;
}
);
},
{
color = 3;
glyphname = iogonek;
kernLeft = lc_ShortStem;
kernRight = lc_ShortStem;
layers = (
{
layerId = "16643525-C5DD-48EC-8E99-463BF28F5E85";
shapes = (
{
closed = 1;
nodes = (
(347,0,l),
(352,71,l),
(224,83,l),
(293,35,l),
(288,67,o),
(278,125,o),
(278,193,cs),
(278,295,ls),
(278,345,o),
(284,432,o),
(288,475,c),
(267,494,l),
(179,494,l),
(150,494,o),
(101,499,o),
(62,503,c),
(53,429,l),
(189,398,l),
(119,473,l),
(125,433,o),
(138,355,o),
(138,325,cs),
(138,163,ls),
(138,133,o),
(123,29,o),
(118,0,c)
);
},
{
pos = (71,20);
ref = dotaccentcomb;
},
{
pos = (-22,0);
ref = ogonekcomb;
}
);
width = 374;
},
{
layerId = "4E6502B1-B066-4D3E-9BD1-B1D9901B4F4F";
shapes = (
{
closed = 1;
nodes = (
(282,0,l),
(288,52,l),
(176,62,l),
(211,24,l),
(207,73,o),
(202,142,o),
(202,164,cs),
(202,326,ls),
(202,376,o),
(209,480,o),
(209,476,c),
(190,494,l),
(135,494,ls),
(126,494,o),
(76,496,o),
(46,498,c),
(41,447,l),
(151,423,l),
(112,464,l),
(118,428,o),
(127,372,o),
(127,356,cs),
(127,134,ls),
(127,115,o),
(115,48,o),
(108,1,c)
);
},
{
alignment = -1;
pos = (41,31);
ref = dotaccentcomb;
},
{
alignment = -1;
pos = (-28,0);
ref = ogonekcomb;
}
);
width = 311.3;
}
);
unicode = 303;
},
{
color = 6;
glyphname = jdotless;
kernLeft = lc_j;
kernRight = lc_j;
layers = (
{
anchors = (
{
name = top;
pos = (155,494);
}
);
layerId = "16643525-C5DD-48EC-8E99-463BF28F5E85";
shapes = (
{
closed = 1;
nodes = (
(149,-155,o),
(245,-39,o),
(245,-10,cs),
(245,295,ls),
(245,345,o),
(251,432,o),
(255,475,c),
(234,494,l),
(29,494,l),
(20,419,l),
(156,398,l),
(86,473,l),
(92,433,o),
(105,355,o),
(105,325,cs),
(105,117,ls),
(105,81,o),
(105,41,o),
(105,21,cs),
(105,-8,o),
(62,-127,o),
(30,-209,c),
(77,-235,l)
);
}
);
width = 323;
},
{
anchors = (
{
name = top;
pos = (118,494);
}
);
layerId = "4E6502B1-B066-4D3E-9BD1-B1D9901B4F4F";
shapes = (
{
closed = 1;
nodes = (
(117,-155,o),
(183,-39,o),
(183,-10,cs),
(183,326,ls),
(183,373,o),
(187,446,o),
(190,476,c),
(171,494,l),
(27,494,l),
(22,442,l),
(132,423,l),
(93,469,l),
(98,439,o),
(108,381,o),
(108,356,cs),
(108,117,ls),
(108,81,o),
(108,41,o),
(108,21,cs),
(108,-8,o),
(65,-131,o),
(32,-215,c),
(67,-235,l)
);
}
);
width = 264.7;
}
);
unicode = 567;
},
{
color = 6;
glyphname = k;
kernLeft = lc_LongStem;
kernRight = lc_k;
layers = (
{
anchors = (
{
name = bottom;
pos = (320,0);
},
{
name = top;
pos = (320,756);
}
);
layerId = "16643525-C5DD-48EC-8E99-463BF28F5E85";
shapes = (
{
closed = 1;
nodes = (
(65,-3,o),
(135,0,o),
(145,0,c),
(304,0,l),
(309,71,l),
(181,83,l),
(250,35,l),
(245,67,o),
(235,125,o),
(235,193,cs),
(235,557,ls),
(235,607,o),
(241,694,o),
(245,737,c),
(224,756,l),
(136,756,l),
(19,761,l),
(10,691,l),
(146,660,l),
(76,735,l),
(82,695,o),
(95,617,o),
(95,587,cs),
(95,163,ls),
(95,133,o),
(84,58,o),
(79,29,c),
(148,88,l),
(20,65,l),
(25,-5,l)
);
},
{
closed = 1;
nodes = (
(423,0,o),
(455,0,o),
(488,0,c),
(601,0,l),
(607,71,l),
(484,83,l),
(577,46,l),
(548,76,o),
(478,147,o),
(468,162,cs),
(359,333,l),
(354,230,l),
(460,366,ls),
(478,390,o),
(541,424,o),
(575,443,c),
(479,417,l),
(595,428,l),
(597,494,l),
(481,494,l),
(451,494,o),
(375,494,o),
(322,494,c),
(317,419,l),
(434,415,l),
(410,471,l),
(246,265,l),
(335,110,l),
(357,68,l),
(361,60,l),
(361,0,l)
);
}
);
width = 642;
},
{
anchors = (
{
name = bottom;
pos = (301,0);
},
{
name = top;
pos = (301,756);
}
);
layerId = "4E6502B1-B066-4D3E-9BD1-B1D9901B4F4F";
shapes = (
{
closed = 1;
nodes = (
(63,-3,o),
(115,0,o),
(136,0,c),
(263,0,l),
(270,52,l),
(157,62,l),
(194,25,l),
(190,49,o),
(185,112,o),
(185,164,cs),
(185,588,ls),
(185,635,o),
(188,708,o),
(191,738,c),
(172,756,l),
(117,756,l),
(28,759,l),
(23,709,l),
(133,685,l),
(94,731,l),
(99,701,o),
(109,643,o),
(109,618,cs),
(109,134,ls),
(109,109,o),
(96,44,o),
(93,29,c),
(133,66,l),
(21,43,l),
(26,-5,l)
);
},
{
closed = 1;
nodes = (
(370,-3,o),
(420,0,o),
(439,0,cs),
(570,0,l),
(576,52,l),
(480,61,l),
(534,44,l),
(498,68,o),
(436,111,o),
(422,126,cs),
(255,303,l),
(255,254,l),
(361,366,ls),
(384,389,o),
(449,428,o),
(478,442,c),
(429,430,l),
(539,442,l),
(536,494,l),
(407,494,l),
(388,494,o),
(354,494,o),
(328,494,c),
(323,442,l),
(398,432,l),
(388,462,l),
(196,265,l),
(343,116,l),
(397,58,l),
(334,47,l),
(339,-6,l)
);
}
);
width = 603;
}
);
unicode = 107;
},
{
color = 6;
glyphname = kgreenlandic;
kernLeft = lc_LongStem;
kernRight = lc_k;
layers = (
{
anchors = (
{
name = bottom;
pos = (324,0);
},
{
name = top;
pos = (324,494);
}
);
layerId = "16643525-C5DD-48EC-8E99-463BF28F5E85";
shapes = (
{
closed = 1;
nodes = (
(420,0,o),
(478,0,o),
(513,0,c),
(618,0,l),
(620,60,l),
(536,71,l),
(607,52,l),
(596,62,o),
(576,77,o),
(564,90,c),
(393,285,l),
(380,211,l),
(509,383,l),
(527,402,o),
(552,425,o),
(580,450,c),
(495,420,l),
(588,428,l),
(584,499,l),
(539,497,o),
(497,495,o),
(449,495,cs),
(424,495,o),
(400,497,o),
(376,499,c),
(372,433,l),
(443,421,l),
(417,484,l),
(366,406,ls),
(260,244,l),
(362,116,l),
(376,99,o),
(404,55,o),
(411,45,c),
(424,65,l),
(382,57,l),
(386,0,l)
);
},
{
closed = 1;
nodes = (
(88,-3,o),
(158,0,o),
(168,0,c),
(297,0,l),
(302,71,l),
(204,83,l),
(273,35,l),
(268,67,o),
(258,125,o),
(258,193,cs),
(258,295,ls),
(258,345,o),
(264,432,o),
(268,475,c),
(247,494,l),
(159,494,l),
(130,494,o),
(81,499,o),
(42,503,c),
(33,429,l),
(169,398,l),
(99,473,l),
(105,433,o),
(118,355,o),
(118,325,cs),
(118,163,ls),
(118,133,o),
(107,58,o),
(102,29,c),
(171,88,l),
(43,65,l),
(48,-5,l)
);
}
);
width = 647;
},
{
anchors = (
{
name = bottom;
pos = (288,0);
},
{
name = top;
pos = (288,494);
}
);
layerId = "4E6502B1-B066-4D3E-9BD1-B1D9901B4F4F";
shapes = (
{
closed = 1;
nodes = (
(371,0,o),
(426,0,o),
(444,0,c),
(542,0,l),
(547,44,l),
(468,52,l),
(526,29,l),
(512,40,o),
(464,76,o),
(450,90,c),
(276,278,l),
(274,231,l),
(392,382,l),
(440,427,o),
(452,435,o),
(473,454,c),
(428,440,l),
(512,447,l),
(509,497,l),
(473,495,o),
(433,493,o),
(400,493,cs),
(377,493,o),
(353,495,o),
(329,497,c),
(326,451,l),
(392,439,l),
(375,475,l),
(333,404,l),
(204,246,l),
(322,115,l),
(340,92,o),
(378,36,o),
(384,27,c),
(403,53,l),
(333,38,l),
(335,0,l)
);
},
{
closed = 1;
nodes = (
(76,-3,o),
(128,0,o),
(149,0,c),
(257,0,l),
(264,52,l),
(170,62,l),
(207,25,l),
(203,49,o),
(198,112,o),
(198,164,cs),
(198,326,ls),
(198,373,o),
(201,446,o),
(204,476,c),
(185,494,l),
(130,494,l),
(121,494,o),
(71,496,o),
(41,498,c),
(36,447,l),
(146,423,l),
(107,469,l),
(112,439,o),
(122,381,o),
(122,356,cs),
(122,134,ls),
(122,109,o),
(109,44,o),
(106,29,c),
(146,66,l),
(34,43,l),
(39,-5,l)
);
}
);
width = 574.4;
}
);
unicode = 312;
},
{
color = 6;
glyphname = l;
kernLeft = lc_LongStem;
kernRight = lc_LongStem;
layers = (
{
anchors = (
{
name = bottom;
pos = (163,0);
},
{
name = center;
pos = (139,382);
},
{
name = centerright;
pos = (374,410);
},
{
name = top;
pos = (136,756);
},
{
name = topright;
pos = (345,494);
}
);
background = {
shapes = (
{
closed = 1;
nodes = (
(65,-3,o),
(135,0,o),
(145,0,cs),
(304,0,l),
(309,71,l),
(181,83,l),
(250,35,l),
(245,67,o),
(235,125,o),
(235,193,cs),
(235,557,ls),
(235,607,o),
(241,694,o),
(245,737,c),
(224,756,l),
(136,756,ls),
(106,756,o),
(58,761,o),
(19,766,c),
(10,691,l),
(146,660,l),
(76,735,l),
(82,695,o),
(95,617,o),
(95,587,cs),
(95,163,ls),
(95,133,o),
(84,58,o),
(79,29,c),
(148,88,l),
(20,65,l),
(25,-5,l)
);
},
{
ref = ldot;
}
);
};
layerId = "16643525-C5DD-48EC-8E99-463BF28F5E85";
shapes = (
{
closed = 1;
nodes = (
(65,-3,o),
(135,0,o),
(145,0,cs),
(304,0,l),
(309,71,l),
(181,83,l),
(250,35,l),
(245,67,o),
(235,125,o),
(235,193,cs),
(235,557,ls),
(235,607,o),
(241,694,o),
(245,737,c),
(224,756,l),
(136,756,l),
(19,761,l),
(10,691,l),
(146,660,l),
(76,735,l),
(82,695,o),
(95,617,o),
(95,587,cs),
(95,163,ls),
(95,133,o),
(84,58,o),
(79,29,c),
(148,88,l),
(20,65,l),
(25,-5,l)
);
}
);
width = 330;
},
{
anchors = (
{
name = bottom;
pos = (148,0);
},
{
name = center;
pos = (153,382);
},
{
name = centerright;
pos = (364,410);
},
{
name = top;
pos = (133,756);
},
{
name = topright;
pos = (284,494);
}
);
background = {
shapes = (
{
ref = ldot;
}
);
};
layerId = "4E6502B1-B066-4D3E-9BD1-B1D9901B4F4F";
shapes = (
{
closed = 1;
nodes = (
(63,-3,o),
(115,0,o),
(136,0,cs),
(263,0,l),
(270,52,l),
(157,62,l),
(194,25,l),
(190,49,o),
(185,111,o),
(185,164,cs),
(185,588,ls),
(185,635,o),
(188,708,o),
(191,738,c),
(172,756,l),
(117,756,l),
(28,759,l),
(23,709,l),
(133,685,l),
(94,731,l),
(99,701,o),
(109,643,o),
(109,618,cs),
(109,134,ls),
(109,109,o),
(96,44,o),
(93,29,c),
(133,66,l),
(21,43,l),
(26,-5,l)
);
}
);
width = 292;
}
);
unicode = 108;
},
{
color = 6;
glyphname = m;
kernLeft = lc_ShortStem;
kernRight = lc_Shoulder;
layers = (
{
anchors = (
{
name = bottom;
pos = (474,0);
},
{
name = top;
pos = (474,494);
}
);
layerId = "16643525-C5DD-48EC-8E99-463BF28F5E85";
shapes = (
{
closed = 1;
nodes = (
(697,-3,o),
(767,0,o),
(777,0,c),
(922,0,l),
(927,71,l),
(799,83,l),
(865,47,l),
(863,61,o),
(853,143,o),
(853,193,cs),
(853,331,ls),
(853,447,o),
(798,509,o),
(694,509,cs),
(605,509,o),
(552,450,o),
(510,368,c),
(556,271,l),
(556,361,o),
(601,409,o),
(647,409,cs),
(694,409,o),
(713,369,o),
(713,317,cs),
(713,163,ls),
(713,153,o),
(709,83,o),
(706,47,c),
(770,90,l),
(652,65,l),
(657,-5,l)
);
},
{
closed = 1;
nodes = (
(89,-3,o),
(159,0,o),
(169,0,c),
(328,0,l),
(333,71,l),
(205,83,l),
(274,35,l),
(269,67,o),
(259,125,o),
(259,193,cs),
(259,265,l),
(229,475,l),
(208,494,l),
(43,494,l),
(34,419,l),
(170,398,l),
(101,463,l),
(105,438,o),
(119,355,o),
(119,325,cs),
(119,163,l),
(119,133,o),
(108,58,o),
(103,29,c),
(172,88,l),
(44,65,l),
(49,-5,l)
);
},
{
closed = 1;
nodes = (
(400,-3,o),
(470,0,o),
(480,0,c),
(625,0,l),
(630,71,l),
(502,83,l),
(568,47,l),
(566,61,o),
(556,143,o),
(556,193,cs),
(556,331,ls),
(556,447,o),
(501,509,o),
(397,509,cs),
(308,509,o),
(255,444,o),
(213,362,c),
(259,265,l),
(259,355,o),
(304,409,o),
(350,409,cs),
(397,409,o),
(416,369,o),
(416,317,cs),
(416,163,ls),
(416,153,o),
(412,83,o),
(409,47,c),
(473,90,l),
(355,65,l),
(360,-5,l)
);
}
);
width = 948;
},
{
anchors = (
{
name = bottom;
pos = (450,0);
},
{
name = top;
pos = (450,494);
}
);
layerId = "4E6502B1-B066-4D3E-9BD1-B1D9901B4F4F";
shapes = (
{
closed = 1;
nodes = (
(675,-3,o),
(732,0,o),
(742,0,c),
(870,0,l),
(876,52,l),
(764,62,l),
(800,40,l),
(797,57,o),
(790,114,o),
(790,164,cs),
(790,271,ls),
(790,411,o),
(765,502,o),
(636,502,cs),
(562,502,o),
(493,457,o),
(469,369,c),
(494,274,l),
(496,373,o),
(544,445,o),
(622,445,cs),
(700,445,o),
(715,359,o),
(715,272,cs),
(715,134,ls),
(715,108,o),
(706,56,o),
(701,35,c),
(737,67,l),
(637,43,l),
(642,-5,l)
);
},
{
closed = 1;
nodes = (
(77,-3,o),
(129,0,o),
(150,0,c),
(277,0,l),
(284,52,l),
(171,62,l),
(208,25,l),
(204,49,o),
(199,112,o),
(199,164,cs),
(199,329,l),
(185,476,l),
(166,494,l),
(42,494,l),
(37,442,l),
(147,423,l),
(107,469,l),
(111,448,o),
(123,381,o),
(123,356,cs),
(123,134,l),
(123,109,o),
(110,44,o),
(107,29,c),
(147,66,l),
(35,43,l),
(40,-5,l)
);
},
{
closed = 1;
nodes = (
(379,-3,o),
(436,0,o),
(446,0,c),
(574,0,l),
(581,52,l),
(468,62,l),
(504,40,l),
(501,57,o),
(494,114,o),
(494,164,cs),
(494,271,ls),
(494,411,o),
(469,502,o),
(340,502,cs),
(266,502,o),
(197,457,o),
(173,370,c),
(199,275,l),
(200,374,o),
(248,445,o),
(326,445,cs),
(404,445,o),
(419,359,o),
(419,272,cs),
(419,134,ls),
(419,108,o),
(410,56,o),
(405,35,c),
(441,67,l),
(341,43,l),
(346,-5,l)
);
}
);
width = 898.5;
}
);
unicode = 109;
},
{
color = 6;
glyphname = n;
kernLeft = lc_ShortStem;
kernRight = lc_Shoulder;
layers = (
{
anchors = (
{
name = bottom;
pos = (335,0);
},
{
name = top;
pos = (341,494);
},
{
name = topleft;
pos = (-5,537);
}
);
layerId = "16643525-C5DD-48EC-8E99-463BF28F5E85";
shapes = (
{
closed = 1;
nodes = (
(89,-3,o),
(159,0,o),
(169,0,c),
(328,0,l),
(333,71,l),
(205,83,l),
(274,35,l),
(269,67,o),
(259,125,o),
(259,193,cs),
(259,265,ls),
(259,355,o),
(308,409,o),
(358,409,cs),
(410,409,o),
(432,369,o),
(432,317,cs),
(432,163,ls),
(432,148,o),
(427,67,o),
(423,31,c),
(489,90,l),
(371,65,l),
(376,-5,l),
(416,-3,o),
(476,0,o),
(496,0,c),
(641,0,l),
(646,71,l),
(518,83,l),
(587,36,l),
(583,63,o),
(572,125,o),
(572,193,cs),
(572,331,ls),
(572,447,o),
(514,509,o),
(405,509,cs),
(312,509,o),
(257,444,o),
(213,362,c),
(255,294,l),
(229,475,l),
(208,494,l),
(43,494,l),
(34,419,l),
(170,398,l),
(101,463,l),
(105,438,o),
(119,355,o),
(119,325,cs),
(119,163,ls),
(119,133,o),
(108,58,o),
(103,29,c),
(172,88,l),
(44,65,l),
(49,-5,l)
);
}
);
width = 667;
},
{
anchors = (
{
name = bottom;
pos = (303,0);
},
{
name = top;
pos = (336,494);
},
{
name = topleft;
pos = (3,537);
}
);
layerId = "4E6502B1-B066-4D3E-9BD1-B1D9901B4F4F";
shapes = (
{
closed = 1;
nodes = (
(77,-3,o),
(129,0,o),
(150,0,c),
(277,0,l),
(284,52,l),
(171,62,l),
(208,25,l),
(204,49,o),
(199,112,o),
(199,164,cs),
(199,275,ls),
(199,374,o),
(248,445,o),
(329,445,cs),
(417,445,o),
(435,359,o),
(435,272,cs),
(435,134,ls),
(435,100,o),
(426,64,o),
(420,44,c),
(457,67,l),
(357,43,l),
(362,-5,l),
(395,-3,o),
(453,0,o),
(462,0,c),
(590,0,l),
(597,52,l),
(484,62,l),
(520,35,l),
(516,61,o),
(510,115,o),
(510,164,cs),
(510,271,ls),
(510,411,o),
(482,502,o),
(341,502,cs),
(265,502,o),
(206,459,o),
(177,384,c),
(199,326,l),
(185,476,l),
(166,494,l),
(42,494,l),
(37,442,l),
(147,423,l),
(107,469,l),
(111,448,o),
(123,381,o),
(123,356,cs),
(123,134,ls),
(123,109,o),
(110,44,o),
(107,29,c),
(147,66,l),
(35,43,l),
(40,-5,l)
);
}
);
width = 618.6;
}
);
unicode = 110;
},
{
color = 3;
glyphname = napostrophe;
kernLeft = lc_ShortStem;
kernRight = lc_Shoulder;
layers = (
{
anchors = (
{
name = bottom;
pos = (422,0);
},
{
name = top;
pos = (428,494);
},
{
name = topleft;
pos = (82,537);
}
);
layerId = "16643525-C5DD-48EC-8E99-463BF28F5E85";
shapes = (
{
closed = 1;
nodes = (
(176,-3,o),
(246,0,o),
(256,0,c),
(415,0,l),
(420,71,l),
(292,83,l),
(361,35,l),
(356,67,o),
(346,125,o),
(346,193,cs),
(346,265,ls),
(346,355,o),
(395,403,o),
(445,403,cs),
(497,403,o),
(519,363,o),
(519,311,cs),
(519,163,ls),
(519,148,o),
(514,67,o),
(510,31,c),
(576,90,l),
(458,65,l),
(463,-5,l),
(503,-3,o),
(563,0,o),
(583,0,c),
(728,0,l),
(733,71,l),
(605,83,l),
(674,36,l),
(670,63,o),
(659,125,o),
(659,193,cs),
(659,325,ls),
(659,441,o),
(601,503,o),
(492,503,cs),
(399,503,o),
(344,444,o),
(300,362,c),
(342,294,l),
(316,475,l),
(295,494,l),
(188,494,l),
(192,469,o),
(206,355,o),
(206,325,cs),
(206,163,l),
(206,133,o),
(195,58,o),
(190,29,c),
(259,88,l),
(131,65,l),
(136,-5,l)
);
},
{
pos = (-21,-160);
ref = apostrophemod;
}
);
width = 754;
},
{
anchors = (
{
name = bottom;
pos = (369,0);
},
{
name = top;
pos = (402,494);
},
{
name = topleft;
pos = (69,537);
}
);
layerId = "4E6502B1-B066-4D3E-9BD1-B1D9901B4F4F";
shapes = (
{
closed = 1;
nodes = (
(143,-3,o),
(195,0,o),
(216,0,c),
(344,0,l),
(350,52,l),
(237,62,l),
(274,25,l),
(270,49,o),
(265,112,o),
(265,164,cs),
(265,275,ls),
(265,374,o),
(314,446,o),
(396,446,cs),
(483,446,o),
(501,360,o),
(501,273,cs),
(501,134,ls),
(501,100,o),
(492,64,o),
(486,44,c),
(523,67,l),
(423,43,l),
(428,-5,l),
(461,-3,o),
(519,0,o),
(528,0,c),
(657,0,l),
(663,52,l),
(550,62,l),
(586,35,l),
(582,61,o),
(577,115,o),
(577,164,cs),
(577,271,ls),
(577,411,o),
(548,503,o),
(407,503,cs),
(331,503,o),
(273,459,o),
(243,384,c),
(265,326,l),
(251,476,l),
(232,494,l),
(173,494,l),
(177,473,o),
(190,381,o),
(190,356,cs),
(190,134,ls),
(190,109,o),
(176,44,o),
(174,29,c),
(213,66,l),
(101,43,l),
(106,-5,l)
);
},
{
alignment = -1;
pos = (-17,-160);
ref = apostrophemod;
}
);
width = 684.7;
}
);
unicode = 329;
},
{
color = 6;
glyphname = nhookleft;
kernLeft = lc_ShortStem;
kernRight = lc_Shoulder;
layers = (
{
layerId = "16643525-C5DD-48EC-8E99-463BF28F5E85";
shapes = (
{
closed = 1;
nodes = (
(105,-68,o),
(81,-109,o),
(27,-109,c),
(27,-190,l),
(191,-190,o),
(245,-81,o),
(245,30,c),
(245,265,l),
(245,355,o),
(294,403,o),
(344,403,cs),
(396,403,o),
(418,363,o),
(418,311,cs),
(418,163,ls),
(418,148,o),
(413,67,o),
(409,31,c),
(475,90,l),
(357,65,l),
(362,-5,l),
(402,-3,o),
(462,0,o),
(482,0,c),
(627,0,l),
(632,71,l),
(504,83,l),
(573,36,l),
(569,63,o),
(558,125,o),
(558,193,cs),
(558,325,ls),
(558,441,o),
(500,503,o),
(391,503,cs),
(298,503,o),
(243,444,o),
(199,362,c),
(241,294,l),
(215,475,l),
(194,494,l),
(146,494,l),
(126,494,o),
(68,499,o),
(29,503,c),
(20,429,l),
(156,398,l),
(87,463,l),
(91,438,o),
(105,355,o),
(105,325,c),
(105,13,l)
);
}
);
width = 653;
},
{
layerId = "4E6502B1-B066-4D3E-9BD1-B1D9901B4F4F";
shapes = (
{
closed = 1;
nodes = (
(106,-90,o),
(81,-144,o),
(-14,-144,c),
(-15,-194,l),
(116,-194,o),
(181,-109,o),
(181,-3,c),
(181,275,l),
(181,374,o),
(230,446,o),
(312,446,cs),
(399,446,o),
(418,360,o),
(418,273,cs),
(418,134,ls),
(418,100,o),
(409,64,o),
(402,44,c),
(440,67,l),
(339,43,l),
(344,-5,l),
(378,-3,o),
(436,0,o),
(445,0,c),
(573,0,l),
(579,52,l),
(467,62,l),
(503,35,l),
(499,61,o),
(493,115,o),
(493,164,cs),
(493,271,ls),
(493,411,o),
(465,503,o),
(324,503,cs),
(247,503,o),
(189,459,o),
(159,384,c),
(182,326,l),
(168,476,l),
(149,494,l),
(114,494,l),
(105,494,o),
(55,496,o),
(25,498,c),
(20,447,l),
(130,423,l),
(89,469,l),
(93,448,o),
(106,381,o),
(106,356,c),
(106,2,l)
);
}
);
width = 601.3;
}
);
unicode = 626;
},
{
color = 6;
glyphname = eng;
kernLeft = lc_ShortStem;
kernRight = lc_Shoulder;
layers = (
{
layerId = "16643525-C5DD-48EC-8E99-463BF28F5E85";
shapes = (
{
closed = 1;
nodes = (
(471,-155,o),
(567,-39,o),
(567,-10,cs),
(567,325,ls),
(567,441,o),
(509,503,o),
(404,503,cs),
(328,503,o),
(278,464,o),
(238,406,c),
(188,325,l),
(258,265,l),
(258,355,o),
(307,403,o),
(357,403,cs),
(405,403,o),
(427,363,o),
(427,311,cs),
(427,117,ls),
(427,81,o),
(427,41,o),
(427,21,c),
(427,-8,o),
(384,-127,o),
(352,-209,c),
(399,-235,l)
);
},
{
closed = 1;
nodes = (
(91,-3,o),
(153,0,o),
(168,0,cs),
(250,0,o),
(307,0,o),
(327,0,c),
(332,71,l),
(267,77,l),
(263,105,o),
(258,157,o),
(258,193,cs),
(258,265,l),
(228,475,l),
(207,494,l),
(159,494,ls),
(128,494,o),
(74,499,o),
(42,503,c),
(33,429,l),
(108,412,l),
(112,383,o),
(118,340,o),
(118,325,cs),
(118,163,l),
(118,148,o),
(113,105,o),
(109,77,c),
(43,65,l),
(48,-5,l)
);
}
);
width = 634;
},
{
layerId = "4E6502B1-B066-4D3E-9BD1-B1D9901B4F4F";
shapes = (
{
closed = 1;
nodes = (
(444,-155,o),
(510,-39,o),
(510,-10,cs),
(510,271,ls),
(510,411,o),
(482,503,o),
(340,503,cs),
(264,503,o),
(212,457,o),
(190,413,c),
(148,356,l),
(198,275,l),
(199,374,o),
(247,446,o),
(328,446,cs),
(416,446,o),
(435,360,o),
(435,273,cs),
(435,117,ls),
(435,81,o),
(435,41,o),
(435,21,c),
(435,-8,o),
(392,-131,o),
(359,-215,c),
(394,-235,l)
);
},
{
closed = 1;
nodes = (
(79,-3,o),
(135,0,o),
(150,0,cs),
(206,0,o),
(256,0,o),
(278,0,c),
(284,52,l),
(204,59,l),
(201,83,o),
(198,128,o),
(198,164,cs),
(198,329,l),
(184,476,l),
(165,494,l),
(130,494,ls),
(118,494,o),
(72,496,o),
(41,498,c),
(36,447,l),
(112,431,l),
(116,407,o),
(122,371,o),
(122,356,cs),
(122,129,l),
(121,112,o),
(115,79,o),
(112,59,c),
(35,43,l),
(40,-5,l)
);
}
);
width = 580.1;
}
);
unicode = 331;
},
{
color = 6;
glyphname = o;
kernLeft = lc_Round;
kernRight = lc_Round;
layers = (
{
anchors = (
{
name = bottom;
pos = (289,0);
},
{
name = center;
pos = (288,247);
},
{
name = ogonek;
pos = (387,0);
},
{
name = top;
pos = (289,494);
},
{
name = topright;
pos = (403,455);
}
);
layerId = "16643525-C5DD-48EC-8E99-463BF28F5E85";
shapes = (
{
closed = 1;
nodes = (
(448,-15,o),
(535,81,o),
(535,247,cs),
(535,413,o),
(448,508,o),
(289,508,cs),
(131,508,o),
(43,413,o),
(43,247,cs),
(43,81,o),
(131,-15,o),
(289,-15,cs)
);
},
{
closed = 1;
nodes = (
(225,69,o),
(199,125,o),
(199,247,cs),
(199,368,o),
(225,424,o),
(289,424,cs),
(353,424,o),
(380,369,o),
(380,247,cs),
(380,124,o),
(353,69,o),
(289,69,cs)
);
}
);
width = 578;
},
{
anchors = (
{
name = bottom;
pos = (276,0);
},
{
name = center;
pos = (261,247);
},
{
name = ogonek;
pos = (352,0);
},
{
name = top;
pos = (274,494);
},
{
name = topright;
pos = (381,450);
}
);
layerId = "4E6502B1-B066-4D3E-9BD1-B1D9901B4F4F";
shapes = (
{
closed = 1;
nodes = (
(426,-10,o),
(503,95,o),
(503,246,cs),
(503,400,o),
(428,503,o),
(276,503,cs),
(124,503,o),
(47,397,o),
(47,246,cs),
(47,96,o),
(124,-10,o),
(276,-10,cs)
);
},
{
closed = 1;
nodes = (
(168,44,o),
(133,145,o),
(133,246,cs),
(133,347,o),
(168,449,o),
(276,449,cs),
(384,449,o),
(417,345,o),
(417,246,cs),
(417,147,o),
(384,44,o),
(276,44,cs)
);
}
);
width = 550.5;
}
);
unicode = 111;
},
{
color = 3;
glyphname = oslash;
kernLeft = lc_Round;
kernRight = lc_Round;
layers = (
{
anchors = (
{
name = top;
pos = (274,494);
}
);
layerId = "16643525-C5DD-48EC-8E99-463BF28F5E85";
shapes = (
{
closed = 1;
nodes = (
(481,569,l),
(422,598,l),
(68,-70,l),
(125,-99,l)
);
},
{
pos = (1,0);
ref = o;
}
);
width = 579;
},
{
anchors = (
{
name = top;
pos = (281,494);
}
);
layerId = "4E6502B1-B066-4D3E-9BD1-B1D9901B4F4F";
shapes = (
{
closed = 1;
nodes = (
(469,576,l),
(431,595,l),
(74,-83,l),
(111,-102,l)
);
},
{
alignment = -1;
ref = o;
}
);
width = 550.4;
}
);
unicode = 248;
},
{
color = 6;
glyphname = oe;
kernLeft = lc_Round;
kernRight = lc_e;
layers = (
{
anchors = (
{
name = bottom;
pos = (435,0);
},
{
name = top;
pos = (435,494);
}
);
layerId = "16643525-C5DD-48EC-8E99-463BF28F5E85";
shapes = (
{
closed = 1;
nodes = (
(383,-15,o),
(455,33,o),
(486,120,c),
(438,101,l),
(472,22,o),
(530,-15,o),
(623,-15,cs),
(701,-15,o),
(767,9,o),
(819,56,c),
(784,114,l),
(763,100,o),
(716,81,o),
(663,81,cs),
(567,81,o),
(538,137,o),
(538,260,cs),
(538,379,o),
(559,424,o),
(608,424,cs),
(650,424,o),
(671,386,o),
(671,310,cs),
(671,239,l),
(734,305,l),
(522,294,l),
(522,221,l),
(807,221,l),
(828,260,l),
(837,413,o),
(760,503,o),
(619,503,cs),
(532,503,o),
(472,464,o),
(437,386,c),
(490,361,l),
(462,453,o),
(388,503,o),
(289,503,cs),
(131,503,o),
(43,410,o),
(43,247,cs),
(43,81,o),
(131,-15,o),
(289,-15,cs)
);
},
{
closed = 1;
nodes = (
(225,69,o),
(199,125,o),
(199,247,cs),
(199,365,o),
(225,419,o),
(289,419,cs),
(353,419,o),
(380,366,o),
(380,247,cs),
(380,124,o),
(353,69,o),
(289,69,cs)
);
}
);
width = 870;
},
{
anchors = (
{
name = bottom;
pos = (426,0);
},
{
name = top;
pos = (426,494);
}
);
layerId = "4E6502B1-B066-4D3E-9BD1-B1D9901B4F4F";
shapes = (
{
closed = 1;
nodes = (
(363,-10,o),
(425,24,o),
(464,82,c),
(439,81,l),
(478,25,o),
(541,-10,o),
(629,-10,cs),
(745,-10,o),
(809,54,o),
(804,49,c),
(776,94,l),
(748,76,o),
(688,52,o),
(625,52,cs),
(530,52,o),
(487,159,o),
(487,250,cs),
(494,382,o),
(529,454,o),
(612,454,cs),
(686,454,o),
(721,396,o),
(721,325,cs),
(721,271,l),
(754,307,l),
(476,286,l),
(475,239,l),
(789,239,l),
(806,271,l),
(805,410,o),
(756,503,o),
(616,503,cs),
(532,503,o),
(474,468,o),
(439,414,c),
(463,416,l),
(425,471,o),
(363,503,o),
(276,503,cs),
(124,503,o),
(47,397,o),
(47,246,cs),
(47,96,o),
(124,-10,o),
(276,-10,cs)
);
},
{
closed = 1;
nodes = (
(168,44,o),
(133,145,o),
(133,246,cs),
(133,347,o),
(168,450,o),
(276,450,cs),
(384,450,o),
(417,345,o),
(417,246,cs),
(417,147,o),
(384,44,o),
(276,44,cs)
);
}
);
width = 852.4;
}
);
unicode = 339;
},
{
color = 6;
glyphname = p;
kernLeft = lc_p;
kernRight = lc_Round;
layers = (
{
anchors = (
{
name = bottom;
pos = (311,0);
},
{
name = top;
pos = (311,494);
}
);
layerId = "16643525-C5DD-48EC-8E99-463BF28F5E85";
shapes = (
{
closed = 1;
nodes = (
(90,-231,o),
(145,-228,o),
(155,-228,c),
(329,-228,l),
(334,-167,l),
(191,-155,l),
(260,-193,l),
(255,-161,o),
(245,-103,o),
(245,-35,cs),
(245,266,ls),
(245,345,o),
(280,396,o),
(333,396,cs),
(391,396,o),
(418,349,o),
(418,247,cs),
(418,133,o),
(387,85,o),
(314,85,cs),
(291,85,o),
(261,93,o),
(226,106,c),
(228,-3,l),
(262,-7,o),
(296,-10,o),
(326,-10,cs),
(486,-10,o),
(577,88,o),
(577,260,cs),
(577,419,o),
(509,509,o),
(387,509,cs),
(301,509,o),
(247,463,o),
(199,355,c),
(234,342,l),
(215,475,l),
(194,494,l),
(29,494,l),
(20,419,l),
(156,398,l),
(87,463,l),
(91,438,o),
(105,355,o),
(105,325,cs),
(105,-65,ls),
(105,-95,o),
(94,-170,o),
(89,-199,c),
(158,-150,l),
(45,-173,l),
(50,-233,l)
);
}
);
width = 621;
},
{
anchors = (
{
name = bottom;
pos = (284,0);
},
{
name = top;
pos = (284,494);
}
);
layerId = "4E6502B1-B066-4D3E-9BD1-B1D9901B4F4F";
shapes = (
{
closed = 1;
nodes = (
(72,-231,o),
(114,-228,o),
(135,-228,c),
(284,-228,l),
(290,-175,l),
(156,-165,l),
(193,-203,l),
(189,-179,o),
(183,-116,o),
(183,-64,cs),
(183,286,ls),
(183,382,o),
(234,447,o),
(311,447,cs),
(394,447,o),
(438,381,o),
(438,255,cs),
(438,121,o),
(384,47,o),
(288,47,cs),
(250,47,o),
(209,63,o),
(169,96,c),
(168,25,l),
(209,3,o),
(253,-10,o),
(293,-10,cs),
(423,-10,o),
(521,103,o),
(521,256,cs),
(521,412,o),
(445,502,o),
(314,502,cs),
(256,502,o),
(177,448,o),
(172,395,c),
(178,379,l),
(170,476,l),
(151,494,l),
(27,494,l),
(22,442,l),
(132,423,l),
(91,469,l),
(95,448,o),
(108,381,o),
(108,356,cs),
(108,-94,ls),
(108,-119,o),
(95,-184,o),
(92,-199,c),
(132,-161,l),
(31,-184,l),
(36,-233,l)
);
}
);
width = 567.1;
}
);
unicode = 112;
},
{
color = 6;
glyphname = thorn;
kernLeft = lc_LongStem;
kernRight = lc_Round;
layers = (
{
anchors = (
{
name = bottom;
pos = (288,0);
},
{
name = top;
pos = (288,494);
}
);
layerId = "16643525-C5DD-48EC-8E99-463BF28F5E85";
shapes = (
{
closed = 1;
nodes = (
(62,-231,o),
(117,-228,o),
(127,-228,c),
(301,-228,l),
(306,-167,l),
(163,-155,l),
(232,-193,l),
(227,-161,o),
(217,-103,o),
(217,-35,cs),
(217,260,ls),
(217,345,o),
(252,390,o),
(305,390,cs),
(363,390,o),
(390,343,o),
(390,241,cs),
(390,131,o),
(359,85,o),
(286,85,cs),
(263,85,o),
(233,93,o),
(198,106,c),
(200,-3,l),
(234,-7,o),
(268,-10,o),
(298,-10,cs),
(458,-10,o),
(549,86,o),
(549,254,cs),
(549,413,o),
(481,503,o),
(359,503,cs),
(273,503,o),
(219,459,o),
(171,355,c),
(216,342,l),
(217,604,ls),
(217,628,o),
(223,693,o),
(227,737,c),
(206,756,l),
(118,756,l),
(1,761,l),
(-8,691,l),
(128,660,l),
(59,725,l),
(63,700,o),
(77,617,o),
(77,587,cs),
(77,-65,ls),
(77,-95,o),
(66,-170,o),
(61,-199,c),
(130,-150,l),
(17,-173,l),
(22,-233,l)
);
}
);
width = 593;
},
{
anchors = (
{
name = bottom;
pos = (256,0);
},
{
name = top;
pos = (256,494);
}
);
layerId = "4E6502B1-B066-4D3E-9BD1-B1D9901B4F4F";
shapes = (
{
closed = 1;
nodes = (
(46,-231,o),
(87,-228,o),
(108,-228,c),
(257,-228,l),
(263,-175,l),
(129,-165,l),
(166,-203,l),
(162,-179,o),
(157,-116,o),
(157,-64,cs),
(157,286,ls),
(157,382,o),
(207,447,o),
(284,447,cs),
(367,447,o),
(411,382,o),
(411,255,cs),
(411,121,o),
(357,47,o),
(261,47,cs),
(223,47,o),
(182,63,o),
(142,96,c),
(141,25,l),
(182,3,o),
(226,-10,o),
(266,-10,cs),
(396,-10,o),
(494,104,o),
(494,256,cs),
(494,413,o),
(418,503,o),
(288,503,cs),
(229,503,o),
(150,448,o),
(145,395,c),
(157,379,l),
(157,597,ls),
(157,637,o),
(160,691,o),
(163,738,c),
(144,756,l),
(89,756,l),
(0,759,l),
(-5,709,l),
(105,685,l),
(65,731,l),
(69,710,o),
(81,643,o),
(81,618,cs),
(81,-94,ls),
(81,-119,o),
(68,-184,o),
(65,-199,c),
(105,-161,l),
(4,-184,l),
(9,-233,l)
);
}
);
width = 540.2;
}
);
unicode = 254;
},
{
color = 6;
glyphname = q;
kernLeft = lc_Round;
kernRight = lc_q;
layers = (
{
anchors = (
{
name = bottom;
pos = (298,0);
},
{
name = top;
pos = (298,494);
}
);
layerId = "16643525-C5DD-48EC-8E99-463BF28F5E85";
shapes = (
{
closed = 1;
nodes = (
(316,-11,o),
(367,27,o),
(418,126,c),
(377,232,l),
(372,146,o),
(342,102,o),
(289,102,cs),
(231,102,o),
(204,150,o),
(204,254,cs),
(204,366,o),
(235,413,o),
(308,413,cs),
(340,413,o),
(384,400,o),
(452,371,c),
(527,472,l),
(450,495,o),
(362,508,o),
(296,508,cs),
(136,508,o),
(45,411,o),
(45,241,cs),
(45,80,o),
(113,-11,o),
(235,-11,cs)
);
},
{
closed = 1;
nodes = (
(332,-231,o),
(417,-228,o),
(427,-228,c),
(571,-228,l),
(576,-167,l),
(463,-155,l),
(532,-193,l),
(527,-161,o),
(517,-103,o),
(517,-35,cs),
(517,336,ls),
(517,356,o),
(523,429,o),
(527,472,c),
(372,428,l),
(375,388,o),
(377,349,o),
(377,319,cs),
(377,-65,ls),
(377,-95,o),
(366,-170,o),
(361,-199,c),
(430,-150,l),
(287,-173,l),
(292,-233,l)
);
}
);
width = 597;
},
{
anchors = (
{
name = bottom;
pos = (271,0);
},
{
name = top;
pos = (271,494);
}
);
layerId = "4E6502B1-B066-4D3E-9BD1-B1D9901B4F4F";
shapes = (
{
closed = 1;
nodes = (
(300,-10,o),
(375,36,o),
(391,75,c),
(384,203,l),
(384,106,o),
(334,48,o),
(252,48,cs),
(178,48,o),
(131,125,o),
(131,245,cs),
(131,365,o),
(184,446,o),
(263,446,cs),
(329,446,o),
(386,437,o),
(451,415,c),
(467,467,l),
(355,496,o),
(319,503,o),
(253,503,cs),
(132,503,o),
(48,398,o),
(48,248,cs),
(48,88,o),
(126,-10,o),
(250,-10,cs)
);
},
{
closed = 1;
nodes = (
(317,-231,o),
(388,-228,o),
(411,-228,c),
(528,-228,l),
(534,-175,l),
(430,-165,l),
(467,-203,l),
(464,-182,o),
(459,-121,o),
(459,-65,cs),
(459,311,ls),
(459,367,o),
(464,440,o),
(467,467,c),
(376,437,l),
(381,407,o),
(384,366,o),
(384,339,cs),
(384,-95,ls),
(384,-120,o),
(370,-184,o),
(368,-199,c),
(406,-161,l),
(275,-184,l),
(280,-233,l)
);
}
);
width = 539.8;
}
);
unicode = 113;
},
{
color = 6;
glyphname = r;
kernLeft = lc_ShortStem;
kernRight = lc_r;
layers = (
{
anchors = (
{
name = bottom;
pos = (187,0);
},
{
name = top;
pos = (266,494);
}
);
layerId = "16643525-C5DD-48EC-8E99-463BF28F5E85";
shapes = (
{
closed = 1;
nodes = (
(89,-3,o),
(159,0,o),
(169,0,cs),
(346,0,l),
(351,71,l),
(205,83,l),
(274,35,l),
(269,67,o),
(259,125,o),
(259,193,cs),
(259,265,ls),
(259,355,o),
(308,403,o),
(358,403,cs),
(369,403,o),
(382,401,o),
(392,399,c),
(361,421,l),
(364,408,o),
(372,356,o),
(372,350,cs),
(372,295,l),
(446,292,l),
(461,493,l),
(434,498,o),
(406,503,o),
(379,503,cs),
(282,503,o),
(236,409,o),
(205,354,c),
(255,294,l),
(229,475,l),
(208,494,l),
(43,494,l),
(34,419,l),
(170,398,l),
(101,463,l),
(105,438,o),
(119,355,o),
(119,325,cs),
(119,163,l),
(119,133,o),
(108,58,o),
(103,29,c),
(172,88,l),
(44,65,l),
(49,-5,l)
);
}
);
width = 495;
},
{
anchors = (
{
name = bottom;
pos = (171,0);
},
{
name = top;
pos = (229,494);
}
);
layerId = "4E6502B1-B066-4D3E-9BD1-B1D9901B4F4F";
shapes = (
{
closed = 1;
nodes = (
(77,-3,o),
(129,0,o),
(150,0,cs),
(299,0,l),
(305,52,l),
(171,62,l),
(208,25,l),
(204,49,o),
(199,112,o),
(199,164,cs),
(199,280,ls),
(199,375,o),
(240,437,o),
(336,437,cs),
(349,437,o),
(363,437,o),
(377,438,c),
(330,464,l),
(339,441,o),
(354,397,o),
(354,387,cs),
(354,335,l),
(411,332,l),
(420,493,l),
(398,499,o),
(376,503,o),
(354,503,cs),
(236,503,o),
(198,429,o),
(169,358,c),
(199,326,l),
(185,476,l),
(166,494,l),
(42,494,l),
(37,442,l),
(147,423,l),
(107,469,l),
(111,448,o),
(123,381,o),
(123,356,cs),
(123,134,l),
(123,109,o),
(110,44,o),
(107,29,c),
(147,66,l),
(35,43,l),
(40,-5,l)
);
}
);
width = 455.4;
}
);
unicode = 114;
},
{
color = 6;
glyphname = s;
kernLeft = lc_s;
kernRight = lc_s;
layers = (
{
anchors = (
{
name = bottom;
pos = (239,0);
},
{
name = top;
pos = (241,494);
}
);
layerId = "16643525-C5DD-48EC-8E99-463BF28F5E85";
shapes = (
{
closed = 1;
nodes = (
(349,-10,o),
(428,44,o),
(428,147,cs),
(428,265,o),
(332,299,o),
(261,327,cs),
(215,345,o),
(178,361,o),
(178,389,cs),
(178,410,o),
(197,428,o),
(243,428,cs),
(287,428,o),
(316,413,o),
(343,400,c),
(294,456,l),
(302,440,o),
(327,382,o),
(327,373,cs),
(327,330,l),
(394,325,l),
(406,484,l),
(365,497,o),
(317,508,o),
(246,508,cs),
(134,508,o),
(59,457,o),
(59,348,cs),
(59,245,o),
(153,208,o),
(218,178,cs),
(263,157,o),
(300,145,o),
(300,113,cs),
(300,84,o),
(270,69,o),
(236,69,cs),
(195,69,o),
(144,91,o),
(116,105,c),
(158,58,l),
(150,82,o),
(139,119,o),
(139,129,c),
(139,174,l),
(68,179,l),
(56,14,l),
(113,2,o),
(177,-10,o),
(233,-10,cs)
);
}
);
width = 475;
},
{
anchors = (
{
name = bottom;
pos = (212,0);
},
{
name = top;
pos = (214,494);
}
);
layerId = "4E6502B1-B066-4D3E-9BD1-B1D9901B4F4F";
shapes = (
{
closed = 1;
nodes = (
(317,-10,o),
(382,30,o),
(382,135,cs),
(382,220,o),
(307,256,o),
(239,289,cs),
(183,314,o),
(133,339,o),
(133,386,cs),
(133,429,o),
(165,453,o),
(212,453,cs),
(249,453,o),
(268,448,o),
(301,429,c),
(267,466,l),
(275,446,o),
(295,394,o),
(295,383,cs),
(295,348,l),
(352,345,l),
(353,486,l),
(306,496,o),
(255,503,o),
(211,503,cs),
(124,503,o),
(57,454,o),
(57,372,cs),
(57,284,o),
(131,249,o),
(198,217,cs),
(254,190,o),
(304,166,o),
(304,117,cs),
(304,62,o),
(269,38,o),
(216,38,cs),
(176,38,o),
(146,47,o),
(122,82,c),
(151,39,l),
(135,63,o),
(117,109,o),
(117,124,c),
(117,164,l),
(60,160,l),
(60,31,l),
(83,17,o),
(133,-10,o),
(215,-10,cs)
);
}
);
width = 429.9;
}
);
unicode = 115;
},
{
color = 6;
glyphname = germandbls;
kernLeft = lc_LongStem;
kernRight = lc_s;
layers = (
{
layerId = "16643525-C5DD-48EC-8E99-463BF28F5E85";
shapes = (
{
closed = 1;
nodes = (
(596,-10,o),
(668,51,o),
(668,153,cs),
(668,318,o),
(440,302,o),
(440,375,cs),
(440,443,o),
(595,473,o),
(595,613,cs),
(595,734,o),
(478,770,o),
(336,770,cs),
(197,770,o),
(105,718,o),
(104,580,cs),
(104,163,ls),
(104,125,o),
(95,64,o),
(88,14,c),
(157,90,l),
(39,65,l),
(44,-5,l),
(88,-2,o),
(131,0,o),
(175,0,c),
(250,0,l),
(249,30,o),
(244,143,o),
(244,193,cs),
(244,546,ls),
(244,633,o),
(256,686,o),
(336,686,cs),
(411,684,o),
(482,664,o),
(482,609,cs),
(482,494,o),
(310,482,o),
(310,347,cs),
(310,185,o),
(542,209,o),
(542,112,cs),
(542,86,o),
(516,71,o),
(485,71,cs),
(450,71,o),
(399,101,o),
(353,120,c),
(419,58,l),
(411,82,o),
(400,117,o),
(400,128,c),
(400,173,l),
(329,178,l),
(317,12,l),
(358,3,o),
(432,-10,o),
(486,-10,cs)
);
},
{
closed = 1;
nodes = (
(120,419,l),
(120,497,l),
(44,482,l),
(47,419,l)
);
}
);
width = 698;
},
{
layerId = "4E6502B1-B066-4D3E-9BD1-B1D9901B4F4F";
shapes = (
{
closed = 1;
nodes = (
(547,-10,o),
(606,28,o),
(606,130,cs),
(606,274,o),
(373,289,o),
(373,377,cs),
(373,469,o),
(524,464,o),
(524,609,cs),
(524,715,o),
(427,770,o),
(323,770,cs),
(199,770,o),
(124,700,o),
(124,577,cs),
(124,134,ls),
(124,120,o),
(117,62,o),
(111,26,c),
(148,66,l),
(34,43,l),
(39,-5,l),
(77,-3,o),
(139,0,o),
(155,0,c),
(205,0,l),
(202,54,o),
(199,114,o),
(199,164,cs),
(199,546,ls),
(199,650,o),
(215,714,o),
(323,714,cs),
(399,714,o),
(458,675,o),
(458,609,cs),
(458,494,o),
(296,507,o),
(296,372,cs),
(296,218,o),
(526,223,o),
(526,118,cs),
(526,65,o),
(494,38,o),
(444,38,cs),
(408,38,o),
(383,47,o),
(338,73,c),
(379,25,l),
(371,58,o),
(358,109,o),
(358,124,cs),
(358,161,l),
(302,164,l),
(291,31,l),
(318,13,o),
(379,-10,o),
(445,-10,cs)
);
},
{
closed = 1;
nodes = (
(140,442,l),
(139,496,l),
(41,484,l),
(44,442,l)
);
}
);
width = 639.7;
}
);
unicode = 223;
},
{
color = 6;
glyphname = t;
kernLeft = lc_t;
kernRight = lc_t;
layers = (
{
anchors = (
{
name = bottom;
pos = (223,0);
},
{
name = center;
pos = (178,270);
},
{
name = top;
pos = (191,550);
},
{
name = topright;
pos = (337,543);
}
);
layerId = "16643525-C5DD-48EC-8E99-463BF28F5E85";
shapes = (
{
closed = 1;
nodes = (
(284,-15,o),
(339,12,o),
(384,43,c),
(350,102,l),
(329,90,o),
(307,81,o),
(285,81,cs),
(250,81,o),
(234,108,o),
(234,143,cs),
(234,607,l),
(176,611,l),
(162,586,o),
(124,523,o),
(104,494,c),
(153,540,l),
(120,520,o),
(56,495,o),
(21,482,c),
(24,419,l),
(155,419,l),
(94,482,l),
(94,146,ls),
(94,46,o),
(134,-15,o),
(234,-15,cs)
);
},
{
closed = 1;
nodes = (
(350,419,l),
(359,494,l),
(214,494,l),
(214,419,l)
);
}
);
width = 410;
},
{
anchors = (
{
name = bottom;
pos = (210,0);
},
{
name = center;
pos = (148,270);
},
{
name = top;
pos = (161,539);
},
{
name = topright;
pos = (280,543);
}
);
layerId = "4E6502B1-B066-4D3E-9BD1-B1D9901B4F4F";
shapes = (
{
closed = 1;
nodes = (
(263,-15,o),
(310,4,o),
(358,43,c),
(331,86,l),
(305,63,o),
(272,48,o),
(243,48,cs),
(197,48,o),
(185,74,o),
(185,120,cs),
(185,596,l),
(149,600,l),
(141,582,o),
(102,500,o),
(90,485,c),
(124,518,l),
(100,509,o),
(47,491,o),
(22,482,c),
(25,442,l),
(141,442,l),
(109,475,l),
(109,124,ls),
(109,35,o),
(132,-15,o),
(221,-15,cs)
);
},
{
closed = 1;
nodes = (
(328,442,l),
(333,494,l),
(168,494,l),
(168,442,l)
);
}
);
width = 385.8;
}
);
unicode = 116;
},
{
color = 6;
glyphname = u;
kernLeft = lc_u;
kernRight = lc_ShortStem;
layers = (
{
anchors = (
{
name = bottom;
pos = (317,0);
},
{
name = ogonek;
pos = (560,10);
},
{
name = top;
pos = (287,494);
},
{
name = topright;
pos = (441,494);
}
);
layerId = "16643525-C5DD-48EC-8E99-463BF28F5E85";
shapes = (
{
closed = 1;
nodes = (
(346,-4,o),
(394,45,o),
(435,117,c),
(403,141,l),
(419,0,l),
(603,0,l),
(609,71,l),
(486,83,l),
(554,14,l),
(548,74,o),
(540,133,o),
(540,193,cs),
(540,295,ls),
(540,332,o),
(546,419,o),
(550,475,c),
(529,494,l),
(324,494,l),
(315,419,l),
(451,398,l),
(385,457,l),
(391,413,o),
(400,349,o),
(400,325,cs),
(400,234,ls),
(400,144,o),
(352,96,o),
(302,96,cs),
(250,96,o),
(229,136,o),
(229,188,cs),
(229,295,ls),
(229,332,o),
(235,419,o),
(239,475,c),
(218,494,l),
(33,494,l),
(24,419,l),
(140,399,l),
(73,462,l),
(79,416,o),
(89,351,o),
(89,325,cs),
(89,174,ls),
(89,58,o),
(149,-4,o),
(265,-4,cs)
);
}
);
width = 634;
},
{
anchors = (
{
name = bottom;
pos = (291,0);
},
{
name = ogonek;
pos = (519,10);
},
{
name = top;
pos = (273,494);
},
{
name = topright;
pos = (412,494);
}
);
layerId = "4E6502B1-B066-4D3E-9BD1-B1D9901B4F4F";
shapes = (
{
closed = 1;
nodes = (
(367,-11,o),
(407,62,o),
(420,87,c),
(410,111,l),
(429,0,l),
(554,0,l),
(560,52,l),
(456,63,l),
(492,26,l),
(488,72,o),
(480,119,o),
(480,164,cs),
(480,326,ls),
(480,363,o),
(483,433,o),
(486,476,c),
(467,494,l),
(328,494,l),
(324,442,l),
(428,423,l),
(391,459,l),
(397,425,o),
(404,373,o),
(404,356,cs),
(404,208,ls),
(404,129,o),
(361,50,o),
(276,50,cs),
(199,50,o),
(174,106,o),
(174,183,cs),
(174,326,ls),
(174,363,o),
(178,433,o),
(181,476,c),
(162,494,l),
(26,494,l),
(22,442,l),
(121,422,l),
(85,459,l),
(91,425,o),
(99,373,o),
(99,356,cs),
(99,221,ls),
(99,84,o),
(119,-11,o),
(260,-11,cs)
);
}
);
width = 581.2;
}
);
unicode = 117;
},
{
color = 6;
glyphname = v;
kernLeft = lc_v;
kernRight = lc_v;
layers = (
{
anchors = (
{
name = bottom;
pos = (297,0);
},
{
name = top;
pos = (297,494);
}
);
layerId = "16643525-C5DD-48EC-8E99-463BF28F5E85";
shapes = (
{
closed = 1;
nodes = (
(361,0,l),
(481,319,ls),
(500,370,o),
(527,423,o),
(553,478,c),
(467,409,l),
(573,423,l),
(568,494,l),
(352,494,l),
(347,423,l),
(455,413,l),
(409,484,l),
(398,436,o),
(389,397,o),
(375,354,cs),
(287,87,l),
(323,86,l),
(249,354,ls),
(239,389,o),
(232,436,o),
(226,485,c),
(175,413,l),
(282,423,l),
(277,494,l),
(26,494,l),
(21,419,l),
(147,407,l),
(64,481,l),
(85,430,o),
(103,380,o),
(116,344,cs),
(237,0,l)
);
}
);
width = 593;
},
{
anchors = (
{
name = bottom;
pos = (281,0);
},
{
name = top;
pos = (281,494);
}
);
layerId = "4E6502B1-B066-4D3E-9BD1-B1D9901B4F4F";
shapes = (
{
closed = 1;
nodes = (
(318,0,l),
(433,319,ls),
(451,370,o),
(472,412,o),
(496,467,c),
(449,433,l),
(539,443,l),
(536,494,l),
(330,494,l),
(325,447,l),
(436,431,l),
(411,468,l),
(402,429,o),
(396,388,o),
(383,351,cs),
(287,66,l),
(310,67,l),
(209,349,ls),
(196,386,o),
(186,425,o),
(174,467,c),
(151,432,l),
(246,443,l),
(243,494,l),
(27,494,l),
(22,442,l),
(116,430,l),
(68,466,l),
(88,426,o),
(109,387,o),
(125,344,cs),
(257,0,l)
);
}
);
width = 561.1;
}
);
unicode = 118;
},
{
glyphname = vturned;
kernLeft = lc_vturned;
kernRight = lc_vturned;
layers = (
{
anchors = (
{
name = bottom;
pos = (268,0);
},
{
name = top;
pos = (264,494);
}
);
annotations = (
{
pos = (6,74);
type = Text;
}
);
background = {
anchors = (
{
name = bottom;
pos = (268,0);
},
{
name = top;
pos = (264,494);
}
);
shapes = (
{
closed = 1;
nodes = (
(478,28,l),
(459,68,o),
(438,107,o),
(423,150,cs),
(297,494,l),
(220,494,l),
(110,175,ls),
(93,124,o),
(73,82,o),
(50,27,c),
(95,61,l),
(10,43,l),
(15,-5,l),
(52,-3,o),
(104,0,o),
(125,0,c),
(252,0,l),
(259,52,l),
(110,65,l),
(135,26,l),
(143,65,o),
(149,106,o),
(161,143,cs),
(252,428,l),
(243,427,l),
(339,145,ls),
(351,108,o),
(361,69,o),
(372,27,c),
(402,67,l),
(302,43,l),
(307,-5,l),
(340,-3,o),
(398,0,o),
(407,0,c),
(517,0,l),
(524,52,l),
(411,62,l)
);
}
);
};
layerId = "4E6502B1-B066-4D3E-9BD1-B1D9901B4F4F";
shapes = (
{
closed = 1;
nodes = (
(478,28,l),
(459,68,o),
(438,107,o),
(423,150,cs),
(297,494,l),
(220,494,l),
(110,175,ls),
(93,124,o),
(73,82,o),
(50,27,c),
(95,61,l),
(10,43,l),
(15,-5,l),
(52,-3,o),
(104,0,o),
(125,0,cs),
(252,0,l),
(259,52,l),
(110,65,l),
(135,26,l),
(143,65,o),
(149,106,o),
(161,143,cs),
(252,428,l),
(243,427,l),
(339,145,ls),
(351,108,o),
(361,69,o),
(372,27,c),
(402,67,l),
(302,43,l),
(307,-5,l),
(340,-3,o),
(374,-2,o),
(407,0,c),
(517,0,l),
(524,52,l),
(411,62,l)
);
}
);
width = 534;
},
{
anchors = (
{
name = bottom;
pos = (287,0);
},
{
name = top;
pos = (282,494);
}
);
background = {
shapes = (
{
closed = 1;
nodes = (
(520,13,l),
(499,64,o),
(481,114,o),
(468,150,cs),
(347,494,l),
(223,494,l),
(103,175,ls),
(84,124,o),
(57,71,o),
(31,16,c),
(110,83,l),
(10,65,l),
(15,-5,l),
(55,-3,o),
(125,0,o),
(135,0,c),
(232,0,l),
(237,71,l),
(129,81,l),
(175,10,l),
(186,58,o),
(195,97,o),
(209,140,cs),
(297,407,l),
(261,408,l),
(335,140,ls),
(345,105,o),
(352,58,o),
(358,9,c),
(420,90,l),
(302,65,l),
(307,-5,l),
(347,-3,o),
(407,0,o),
(427,0,c),
(558,0,l),
(563,71,l),
(435,83,l)
);
}
);
};
layerId = "16643525-C5DD-48EC-8E99-463BF28F5E85";
shapes = (
{
closed = 1;
nodes = (
(520,13,l),
(501,64,o),
(485,114,o),
(473,150,cs),
(364,494,l),
(206,494,l),
(97,175,ls),
(80,124,o),
(55,71,o),
(31,16,c),
(110,83,l),
(10,65,l),
(15,-5,l),
(55,-3,o),
(125,0,o),
(135,0,c),
(232,0,l),
(237,71,l),
(129,81,l),
(175,10,l),
(184,58,o),
(192,97,o),
(204,140,cs),
(283,407,l),
(275,408,l),
(340,140,ls),
(348,105,o),
(354,58,o),
(358,9,c),
(420,90,l),
(302,65,l),
(307,-5,l),
(347,-3,o),
(407,0,o),
(427,0,c),
(558,0,l),
(563,71,l),
(435,83,l)
);
}
);
width = 573;
}
);
unicode = 652;
},
{
color = 6;
glyphname = w;
kernLeft = lc_v;
kernRight = lc_v;
layers = (
{
anchors = (
{
name = bottom;
pos = (433,0);
},
{
name = top;
pos = (433,494);
}
);
layerId = "16643525-C5DD-48EC-8E99-463BF28F5E85";
shapes = (
{
closed = 1;
nodes = (
(352,0,l),
(455,304,l),
(417,304,l),
(511,0,l),
(638,0,l),
(755,319,ls),
(775,373,o),
(800,420,o),
(827,478,c),
(741,408,l),
(845,423,l),
(840,494,l),
(613,494,l),
(608,423,l),
(729,414,l),
(683,484,l),
(666,403,o),
(660,393,o),
(649,355,cs),
(565,87,l),
(599,86,l),
(489,494,l),
(403,494,l),
(278,87,l),
(313,86,l),
(239,353,ls),
(228,393,o),
(221,436,o),
(212,485,c),
(162,415,l),
(291,423,l),
(286,494,l),
(26,494,l),
(21,419,l),
(136,406,l),
(54,481,l),
(72,435,o),
(91,388,o),
(106,344,cs),
(226,0,l)
);
}
);
width = 865;
},
{
anchors = (
{
name = bottom;
pos = (415,0);
},
{
name = top;
pos = (415,494);
}
);
layerId = "4E6502B1-B066-4D3E-9BD1-B1D9901B4F4F";
shapes = (
{
closed = 1;
nodes = (
(297,0,l),
(425,377,l),
(403,376,l),
(536,0,l),
(598,0,l),
(713,319,ls),
(731,370,o),
(753,412,o),
(776,467,c),
(730,432,l),
(809,443,l),
(806,494,l),
(601,494,l),
(596,447,l),
(717,431,l),
(692,468,l),
(684,433,o),
(677,389,o),
(663,351,cs),
(567,66,l),
(590,67,l),
(441,494,l),
(406,494,l),
(267,66,l),
(289,67,l),
(188,349,ls),
(176,382,o),
(164,427,o),
(154,467,c),
(130,433,l),
(245,443,l),
(242,494,l),
(27,494,l),
(22,442,l),
(94,427,l),
(47,466,l),
(68,425,o),
(88,386,o),
(104,344,cs),
(236,0,l)
);
}
);
width = 830.9;
}
);
unicode = 119;
},
{
color = 6;
glyphname = x;
kernLeft = lc_x;
kernRight = lc_k;
layers = (
{
anchors = (
{
name = bottom;
pos = (307,0);
},
{
name = top;
pos = (307,494);
}
);
hints = (
{
horizontal = 1;
place = (738,100);
type = Stem;
}
);
layerId = "16643525-C5DD-48EC-8E99-463BF28F5E85";
shapes = (
{
closed = 1;
nodes = (
(365,-3,o),
(413,0,o),
(443,0,c),
(579,-1,l),
(582,64,l),
(481,89,l),
(560,53,l),
(480,136,o),
(464,155,o),
(453,169,cs),
(382,268,l),
(321,311,l),
(276,384,ls),
(244,436,o),
(242,443,o),
(222,478,c),
(192,421,l),
(300,430,l),
(295,494,l),
(43,494,l),
(38,426,l),
(131,413,l),
(54,448,l),
(141,357,o),
(157,332,o),
(163,325,cs),
(222,242,l),
(283,194,l),
(347,96,ls),
(364,70,o),
(375,48,o),
(391,19,c),
(422,79,l),
(320,67,l),
(325,-5,l)
);
},
{
closed = 1;
nodes = (
(80,-3,o),
(128,0,o),
(158,0,c),
(251,0,l),
(256,69,l),
(162,78,l),
(197,17,l),
(209,43,o),
(215,67,o),
(231,92,cs),
(297,195,l),
(384,244,l),
(435,314,ls),
(459,347,o),
(495,386,o),
(546,444,c),
(468,414,l),
(565,430,l),
(560,494,l),
(349,494,l),
(344,430,l),
(440,418,l),
(412,477,l),
(372,415,o),
(367,405,o),
(352,381,cs),
(308,309,l),
(222,263,l),
(163,181,ls),
(140,149,o),
(85,88,o),
(44,41,c),
(134,86,l),
(35,67,l),
(40,-5,l)
);
}
);
width = 613;
},
{
anchors = (
{
name = bottom;
pos = (294,0);
},
{
name = top;
pos = (294,494);
}
);
hints = (
{
horizontal = 1;
place = (-74,-10);
type = Stem;
}
);
layerId = "4E6502B1-B066-4D3E-9BD1-B1D9901B4F4F";
shapes = (
{
closed = 1;
nodes = (
(357,-3,o),
(400,0,o),
(421,0,cs),
(555,0,l),
(561,53,l),
(465,59,l),
(526,31,l),
(487,66,o),
(426,128,o),
(410,147,cs),
(316,269,l),
(301,292,l),
(227,387,ls),
(218,398,o),
(200,428,o),
(179,464,c),
(163,431,l),
(258,442,l),
(255,494,l),
(49,494,l),
(44,441,l),
(130,430,l),
(72,463,l),
(99,433,o),
(146,384,o),
(167,356,cs),
(259,238,l),
(268,224,l),
(351,117,ls),
(367,96,o),
(385,58,o),
(400,29,c),
(418,68,l),
(321,43,l),
(326,-5,l)
);
},
{
closed = 1;
nodes = (
(70,-3,o),
(113,0,o),
(134,0,cs),
(247,0,l),
(253,53,l),
(153,64,l),
(171,30,l),
(186,60,o),
(205,97,o),
(220,117,cs),
(303,235,l),
(314,237,l),
(391,357,ls),
(407,382,o),
(446,423,o),
(481,463,c),
(423,429,l),
(520,442,l),
(517,494,l),
(317,494,l),
(312,447,l),
(413,427,l),
(394,464,l),
(384,441,o),
(366,405,o),
(354,388,cs),
(284,279,l),
(270,277,l),
(178,146,ls),
(168,130,o),
(114,75,o),
(73,33,c),
(131,68,l),
(34,43,l),
(39,-5,l)
);
}
);
width = 587.7;
}
);
unicode = 120;
},
{
color = 6;
glyphname = y;
kernLeft = lc_v;
kernRight = lc_v;
layers = (
{
anchors = (
{
name = bottom;
pos = (443,-28);
},
{
name = top;
pos = (302,494);
}
);
layerId = "16643525-C5DD-48EC-8E99-463BF28F5E85";
shapes = (
{
closed = 1;
nodes = (
(493,328,ls),
(513,379,o),
(537,430,o),
(560,481,c),
(472,417,l),
(584,428,l),
(580,494,l),
(352,494,l),
(346,428,l),
(453,416,l),
(401,485,l),
(396,443,o),
(391,399,o),
(378,358,cs),
(299,98,l),
(336,98,l),
(254,356,ls),
(241,398,o),
(235,442,o),
(227,485,c),
(177,416,l),
(282,428,l),
(278,494,l),
(26,494,l),
(20,424,l),
(145,412,l),
(58,481,l),
(80,429,o),
(105,377,o),
(125,325,cs),
(271,-59,l),
(271,59,l),
(218,-90,o),
(204,-117,o),
(162,-205,c),
(169,-227,l),
(271,-245,l)
);
}
);
width = 604;
},
{
anchors = (
{
name = bottom;
pos = (381,-28);
},
{
name = top;
pos = (291,494);
}
);
layerId = "4E6502B1-B066-4D3E-9BD1-B1D9901B4F4F";
shapes = (
{
closed = 1;
nodes = (
(442,318,ls),
(461,368,o),
(486,416,o),
(509,465,c),
(462,429,l),
(549,442,l),
(546,494,l),
(347,494,l),
(342,447,l),
(451,428,l),
(427,466,l),
(416,422,o),
(405,377,o),
(389,334,cs),
(287,67,l),
(313,67,l),
(197,348,ls),
(181,387,o),
(172,428,o),
(161,467,c),
(137,431,l),
(246,442,l),
(243,494,l),
(27,494,l),
(22,442,l),
(102,425,l),
(54,463,l),
(78,420,o),
(103,378,o),
(122,334,cs),
(280,-30,l),
(278,32,l),
(235,-89,o),
(217,-141,o),
(171,-211,c),
(173,-219,l),
(235,-244,l)
);
}
);
width = 571;
}
);
unicode = 121;
},
{
color = 6;
glyphname = z;
kernLeft = lc_z;
kernRight = lc_z;
layers = (
{
anchors = (
{
name = bottom;
pos = (263,0);
},
{
name = center;
pos = (263,247);
},
{
name = top;
pos = (263,494);
}
);
layerId = "16643525-C5DD-48EC-8E99-463BF28F5E85";
shapes = (
{
closed = 1;
nodes = (
(469,17,l),
(480,171,l),
(411,177,l),
(404,133,ls),
(402,121,o),
(379,64,o),
(366,32,c),
(450,101,l),
(405,93,o),
(329,80,o),
(316,80,cs),
(172,80,l),
(206,24,l),
(226,63,o),
(256,125,o),
(267,142,cs),
(387,327,l),
(464,425,l),
(457,494,l),
(170,494,ls),
(149,494,o),
(109,496,o),
(78,497,c),
(57,477,l),
(52,307,l),
(128,304,l),
(132,361,ls),
(133,376,o),
(153,429,o),
(164,463,c),
(83,392,l),
(125,399,o),
(198,414,o),
(210,414,cs),
(352,414,l),
(319,470,l),
(299,431,o),
(272,376,o),
(256,352,cs),
(134,168,ls),
(124,152,o),
(80,103,o),
(50,70,c),
(64,0,l),
(355,0,ls),
(381,0,o),
(418,-2,o),
(449,-3,c)
);
}
);
width = 523;
},
{
anchors = (
{
name = bottom;
pos = (237,0);
},
{
name = center;
pos = (237,247);
},
{
name = top;
pos = (237,494);
}
);
layerId = "4E6502B1-B066-4D3E-9BD1-B1D9901B4F4F";
shapes = (
{
closed = 1;
nodes = (
(420,16,l),
(428,140,l),
(371,146,l),
(366,107,ls),
(362,94,o),
(343,52,o),
(330,24,c),
(376,58,l),
(346,56,o),
(297,49,o),
(285,49,cs),
(123,49,l),
(139,20,l),
(161,61,o),
(185,107,o),
(208,142,cs),
(330,327,l),
(417,437,l),
(410,494,l),
(172,494,ls),
(150,494,o),
(109,496,o),
(77,497,c),
(59,478,l),
(54,342,l),
(110,338,l),
(114,375,ls),
(115,389,o),
(138,439,o),
(152,471,c),
(106,436,l),
(135,440,o),
(175,445,o),
(191,445,cs),
(351,445,l),
(334,474,l),
(312,433,o),
(279,372,o),
(266,352,cs),
(142,168,ls),
(131,152,o),
(81,95,o),
(46,57,c),
(52,0,l),
(290,0,ls),
(310,0,o),
(405,-3,o),
(402,-3,c)
);
}
);
width = 473.5;
}
);
unicode = 122;
},
{
color = 6;
glyphname = saltillo;
kernLeft = saltillo;
kernRight = saltillo;
layers = (
{
layerId = "16643525-C5DD-48EC-8E99-463BF28F5E85";
shapes = (
{
closed = 1;
nodes = (
(158,638,l),
(140,655,l),
(30,655,l),
(37,592,o),
(58,453,o),
(57,443,cs),
(44,253,l),
(136,248,l)
);
}
);
width = 198;
},
{
layerId = "4E6502B1-B066-4D3E-9BD1-B1D9901B4F4F";
shapes = (
{
closed = 1;
nodes = (
(128,638,l),
(110,655,l),
(30,655,l),
(37,588,o),
(57,454,o),
(57,444,cs),
(50,263,l),
(106,258,l)
);
}
);
width = 168;
}
);
unicode = 42892;
},
{
color = 6;
glyphname = u.horn;
kernLeft = lc_u;
kernRight = lc_ShortStem;
layers = (
{
anchors = (
{
name = bottom;
pos = (316,0);
},
{
name = ogonek;
pos = (559,10);
},
{
name = top;
pos = (316,494);
},
{
name = topright;
pos = (440,494);
}
);
layerId = "16643525-C5DD-48EC-8E99-463BF28F5E85";
shapes = (
{
closed = 1;
nodes = (
(345,-4,o),
(393,45,o),
(434,117,c),
(402,141,l),
(418,0,l),
(602,0,l),
(608,71,l),
(485,83,l),
(553,14,l),
(547,74,o),
(539,133,o),
(539,193,cs),
(539,295,ls),
(539,332,o),
(545,419,o),
(549,475,c),
(528,494,l),
(440,494,l),
(399,494,o),
(362,494,o),
(323,494,c),
(314,429,l),
(450,398,l),
(384,457,l),
(390,413,o),
(399,349,o),
(399,325,cs),
(399,234,ls),
(399,144,o),
(351,96,o),
(301,96,cs),
(249,96,o),
(228,136,o),
(228,188,cs),
(228,295,ls),
(228,332,o),
(234,419,o),
(238,475,c),
(217,494,l),
(144,494,l),
(107,494,o),
(69,499,o),
(32,503,c),
(23,429,l),
(139,399,l),
(72,462,l),
(78,416,o),
(88,351,o),
(88,325,cs),
(88,174,ls),
(88,58,o),
(148,-4,o),
(264,-4,cs)
);
}
);
width = 633;
},
{
anchors = (
{
name = bottom;
pos = (297,0);
},
{
name = ogonek;
pos = (508,-1);
},
{
name = top;
pos = (263,494);
},
{
name = topright;
pos = (384,494);
}
);
layerId = "4E6502B1-B066-4D3E-9BD1-B1D9901B4F4F";
shapes = (
{
closed = 1;
nodes = (
(367,-11,o),
(407,62,o),
(420,87,c),
(410,111,l),
(429,0,l),
(554,0,l),
(560,52,l),
(456,63,l),
(493,26,l),
(488,72,o),
(480,119,o),
(480,164,cs),
(480,326,ls),
(480,363,o),
(483,433,o),
(486,476,c),
(468,494,l),
(413,494,l),
(406,494,o),
(357,494,o),
(329,494,c),
(324,447,l),
(428,423,l),
(391,459,l),
(397,425,o),
(405,373,o),
(405,356,cs),
(405,208,ls),
(405,129,o),
(361,50,o),
(276,50,cs),
(200,50,o),
(174,106,o),
(174,183,cs),
(174,326,ls),
(174,363,o),
(178,433,o),
(181,476,c),
(162,494,l),
(106,494,l),
(98,494,o),
(53,496,o),
(27,498,c),
(22,447,l),
(121,422,l),
(85,459,l),
(91,425,o),
(99,373,o),
(99,356,cs),
(99,221,ls),
(99,84,o),
(119,-11,o),
(260,-11,cs)
);
}
);
width = 581.3;
}
);
},
{
category = Letter;
color = 6;
glyphname = c.ss02;
kernLeft = RN_Round;
kernRight = RN_C;
layers = (
{
layerId = "16643525-C5DD-48EC-8E99-463BF28F5E85";
shapes = (
{
closed = 1;
nodes = (
(419,15,o),
(478,27,o),
(528,38,c),
(521,168,l),
(459,166,l),
(458,156,o),
(456,140,o),
(456,134,c),
(456,123,o),
(435,85,o),
(425,67,c),
(488,117,l),
(420,102,o),
(392,99,o),
(351,99,cs),
(260,99,o),
(231,175,o),
(231,266,cs),
(231,357,o),
(261,432,o),
(351,432,cs),
(399,432,o),
(426,428,o),
(481,417,c),
(420,466,l),
(429,444,o),
(443,412,o),
(443,406,cs),
(446,355,l),
(511,352,l),
(521,494,l),
(470,507,o),
(421,517,o),
(351,517,cs),
(165,517,o),
(70,414,o),
(70,266,cs),
(70,117,o),
(165,15,o),
(351,15,cs)
);
},
{
closed = 1;
nodes = (
(648,0,l),
(652,51,l),
(-1,51,l),
(3,0,l)
);
},
{
closed = 1;
nodes = (
(659,486,l),
(655,536,l),
(3,536,l),
(6,486,l)
);
}
);
userData = {
RMXScaler = {
adjustSpace = -9;
height = 76;
weight = -20;
width = 82;
};
};
width = 637;
},
{
layerId = "4E6502B1-B066-4D3E-9BD1-B1D9901B4F4F";
shapes = (
{
closed = 1;
nodes = (
(408,16,o),
(469,28,o),
(519,38,c),
(513,150,l),
(466,148,l),
(465,138,o),
(464,122,o),
(464,116,c),
(464,110,o),
(452,75,o),
(443,57,c),
(473,88,l),
(435,77,o),
(382,69,o),
(340,69,cs),
(233,69,o),
(182,157,o),
(182,267,cs),
(182,376,o),
(232,464,o),
(341,464,cs),
(381,464,o),
(432,456,o),
(466,445,c),
(438,476,l),
(443,458,o),
(455,430,o),
(455,421,cs),
(455,384,l),
(503,381,l),
(511,494,l),
(463,506,o),
(417,518,o),
(341,518,cs),
(174,518,o),
(89,414,o),
(89,266,cs),
(89,118,o),
(174,16,o),
(341,16,cs)
);
},
{
closed = 1;
nodes = (
(621,0,l),
(625,37,l),
(-13,37,l),
(-9,0,l)
);
},
{
closed = 1;
nodes = (
(625,497,l),
(621,536,l),
(-9,536,l),
(-13,497,l)
);
}
);
userData = {
RMXScaler = {
adjustSpace = 3;
height = 76;
weight = -12;
width = 82;
};
};
width = 607.3;
}
);
subCategory = Other;
userData = {
RMXScaler = {
source = C.ss02;
};
};
},
{
category = Letter;
color = 6;
glyphname = d.ss02;
kernLeft = RN_Stem;
kernRight = RN_Round;
layers = (
{
layerId = "16643525-C5DD-48EC-8E99-463BF28F5E85";
shapes = (
{
closed = 1;
nodes = (
(524,20,o),
(619,120,o),
(619,267,cs),
(619,405,o),
(526,511,o),
(343,511,cs),
(129,511,l),
(139,457,o),
(146,419,o),
(146,381,cs),
(146,153,ls),
(146,132,o),
(144,126,o),
(130,31,c),
(343,25,ls)
);
},
{
closed = 1;
nodes = (
(688,0,l),
(692,51,l),
(-22,51,l),
(-18,0,l)
);
},
{
closed = 1;
nodes = (
(288,55,o),
(284,153,o),
(284,174,cs),
(284,361,ls),
(284,388,o),
(289,468,o),
(288,478,c),
(257,435,l),
(274,438,o),
(319,441,o),
(327,441,cs),
(436,441,o),
(470,361,o),
(470,269,cs),
(470,171,o),
(438,93,o),
(325,93,cs),
(305,93,o),
(268,94,o),
(254,95,c),
(290,48,l)
);
},
{
closed = 1;
nodes = (
(692,486,l),
(688,536,l),
(-18,536,l),
(-15,486,l)
);
}
);
userData = {
RMXScaler = {
adjustSpace = -9;
height = 76;
weight = -20;
width = 82;
};
};
width = 690;
},
{
layerId = "4E6502B1-B066-4D3E-9BD1-B1D9901B4F4F";
shapes = (
{
closed = 1;
nodes = (
(450,22,o),
(550,123,o),
(550,267,cs),
(550,413,o),
(455,511,o),
(279,511,cs),
(103,511,l),
(106,475,o),
(115,418,o),
(115,404,cs),
(115,130,ls),
(115,117,o),
(107,77,o),
(100,24,c),
(279,22,l)
);
},
{
closed = 1;
nodes = (
(636,0,l),
(640,37,l),
(-20,37,l),
(-16,0,l)
);
},
{
closed = 1;
nodes = (
(203,63,o),
(198,119,o),
(198,151,cs),
(198,383,ls),
(198,411,o),
(203,472,o),
(206,486,c),
(189,459,l),
(217,460,o),
(245,461,o),
(280,461,cs),
(405,461,o),
(462,372,o),
(462,267,cs),
(462,160,o),
(406,73,o),
(279,73,cs),
(240,73,o),
(206,75,o),
(187,75,c),
(205,50,l)
);
},
{
closed = 1;
nodes = (
(640,497,l),
(636,536,l),
(-16,536,l),
(-19,497,l)
);
}
);
userData = {
RMXScaler = {
adjustSpace = 3;
height = 76;
weight = -12;
width = 82;
};
};
width = 631.7;
}
);
subCategory = Other;
userData = {
RMXScaler = {
source = D.ss02;
};
};
},
{
category = Letter;
color = 6;
glyphname = i.ss02;
kernLeft = RN_Stem;
kernRight = RN_Stem;
layers = (
{
layerId = "16643525-C5DD-48EC-8E99-463BF28F5E85";
shapes = (
{
closed = 1;
nodes = (
(301,46,l),
(296,75,o),
(287,136,o),
(287,174,cs),
(287,361,ls),
(287,399,o),
(293,442,o),
(302,498,c),
(135,495,l),
(144,459,o),
(149,403,o),
(149,381,cs),
(149,153,ls),
(149,124,o),
(140,79,o),
(135,46,c)
);
},
{
closed = 1;
nodes = (
(450,0,l),
(455,51,l),
(-21,51,l),
(-17,0,l)
);
},
{
closed = 1;
nodes = (
(453,486,l),
(449,536,l),
(-19,536,l),
(-16,486,l)
);
}
);
userData = {
RMXScaler = {
adjustSpace = -9;
height = 76;
weight = -20;
width = 82;
};
};
width = 434;
},
{
layerId = "4E6502B1-B066-4D3E-9BD1-B1D9901B4F4F";
shapes = (
{
closed = 1;
nodes = (
(243,33,l),
(240,52,o),
(233,111,o),
(233,151,cs),
(233,383,ls),
(233,417,o),
(239,481,o),
(243,508,c),
(139,506,l),
(144,485,o),
(151,421,o),
(151,404,cs),
(151,130,ls),
(151,114,o),
(143,52,o),
(139,33,c)
);
},
{
closed = 1;
nodes = (
(413,0,l),
(417,37,l),
(-20,37,l),
(-16,0,l)
);
},
{
closed = 1;
nodes = (
(417,497,l),
(413,536,l),
(-16,536,l),
(-19,497,l)
);
}
);
userData = {
RMXScaler = {
adjustSpace = 3;
height = 76;
weight = -12;
width = 82;
};
};
width = 397.7;
}
);
subCategory = Other;
userData = {
RMXScaler = {
source = I.ss02;
};
};
},
{
category = Letter;
color = 6;
glyphname = l.ss02;
kernLeft = RN_Stem;
kernRight = RN_L;
layers = (
{
layerId = "16643525-C5DD-48EC-8E99-463BF28F5E85";
shapes = (
{
closed = 1;
nodes = (
(351,26,l),
(362,26,o),
(408,24,o),
(439,23,c),
(454,42,l),
(466,171,l),
(407,174,l),
(405,162,o),
(403,156,o),
(398,139,cs),
(394,125,o),
(382,93,o),
(350,53,c),
(406,114,l),
(397,112,o),
(365,104,o),
(327,104,cs),
(228,104,l),
(267,40,l),
(262,70,o),
(254,139,o),
(254,174,cs),
(254,361,ls),
(254,397,o),
(259,443,o),
(268,501,c),
(102,498,l),
(110,464,o),
(116,406,o),
(116,381,cs),
(116,153,ls),
(116,129,o),
(107,72,o),
(102,40,c),
(102,23,l)
);
},
{
closed = 1;
nodes = (
(550,0,l),
(554,51,l),
(-23,51,l),
(-19,0,l)
);
},
{
closed = 1;
nodes = (
(555,486,l),
(551,536,l),
(-11,536,l),
(-9,486,l)
);
}
);
userData = {
RMXScaler = {
adjustSpace = -9;
height = 76;
weight = -20;
width = 82;
};
};
width = 539;
},
{
layerId = "4E6502B1-B066-4D3E-9BD1-B1D9901B4F4F";
shapes = (
{
closed = 1;
nodes = (
(321,26,l),
(332,26,o),
(378,24,o),
(410,23,c),
(423,27,l),
(436,149,l),
(391,152,l),
(390,142,o),
(383,125,o),
(379,109,cs),
(375,95,o),
(366,80,o),
(348,54,c),
(377,87,l),
(366,83,o),
(327,78,o),
(297,78,cs),
(182,78,l),
(214,43,l),
(211,59,o),
(205,113,o),
(205,151,cs),
(205,383,ls),
(205,419,o),
(211,475,o),
(214,502,c),
(111,501,l),
(116,479,o),
(123,420,o),
(123,404,cs),
(123,130,ls),
(123,113,o),
(115,64,o),
(111,43,c),
(111,23,l)
);
},
{
closed = 1;
nodes = (
(538,0,l),
(542,37,l),
(-20,37,l),
(-16,0,l)
);
},
{
closed = 1;
nodes = (
(526,497,l),
(522,536,l),
(-15,536,l),
(-19,497,l)
);
}
);
userData = {
RMXScaler = {
adjustSpace = 3;
height = 76;
weight = -12;
width = 82;
};
};
width = 520.3;
}
);
subCategory = Other;
userData = {
RMXScaler = {
source = L.ss02;
};
};
},
{
category = Letter;
color = 6;
glyphname = m.ss02;
kernLeft = RN_Stem;
kernRight = RN_Stem;
layers = (
{
layerId = "16643525-C5DD-48EC-8E99-463BF28F5E85";
shapes = (
{
closed = 1;
nodes = (
(217,40,l),
(214,81,o),
(211,128,o),
(214,174,cs),
(229,399,l),
(208,397,l),
(368,76,l),
(451,76,l),
(615,396,l),
(594,399,l),
(609,153,ls),
(610,130,o),
(604,61,o),
(603,40,c),
(749,40,l),
(745,49,o),
(733,110,o),
(727,172,cs),
(710,361,ls),
(706,408,o),
(709,471,o),
(708,511,c),
(561,508,l),
(544,495,l),
(533,464,o),
(517,420,o),
(512,408,cs),
(406,176,l),
(441,176,l),
(344,395,ls),
(335,417,o),
(318,465,o),
(309,495,c),
(292,508,l),
(127,511,l),
(131,449,o),
(136,390,o),
(135,380,cs),
(117,153,ls),
(115,128,o),
(106,87,o),
(96,40,c)
);
},
{
closed = 1;
nodes = (
(866,0,l),
(870,51,l),
(-25,51,l),
(-21,0,l)
);
},
{
closed = 1;
nodes = (
(849,486,l),
(845,536,l),
(-4,536,l),
(-1,486,l)
);
}
);
userData = {
RMXScaler = {
adjustSpace = -9;
height = 76;
weight = -20;
width = 82;
};
};
width = 845;
},
{
layerId = "4E6502B1-B066-4D3E-9BD1-B1D9901B4F4F";
shapes = (
{
closed = 1;
nodes = (
(172,30,l),
(170,48,o),
(164,119,o),
(166,151,cs),
(186,434,l),
(173,432,l),
(361,76,l),
(395,76,l),
(583,431,l),
(570,434,l),
(594,130,ls),
(596,109,o),
(586,43,o),
(584,30,c),
(694,30,l),
(689,48,o),
(675,125,o),
(672,150,cs),
(651,383,ls),
(650,388,o),
(647,417,o),
(652,511,c),
(559,508,l),
(543,495,l),
(528,460,o),
(506,409,o),
(500,398,c),
(380,158,l),
(401,158,l),
(284,390,l),
(278,405,o),
(256,458,o),
(241,494,c),
(226,508,l),
(118,511,l),
(124,468,o),
(129,422,o),
(128,404,cs),
(107,130,ls),
(106,112,o),
(88,51,o),
(84,30,c)
);
},
{
closed = 1;
nodes = (
(793,0,l),
(797,37,l),
(-20,37,l),
(-16,0,l)
);
},
{
closed = 1;
nodes = (
(796,497,l),
(792,536,l),
(-14,536,l),
(-18,497,l)
);
}
);
userData = {
RMXScaler = {
adjustSpace = 3;
height = 76;
weight = -12;
width = 82;
};
};
width = 777.9;
}
);
subCategory = Other;
userData = {
RMXScaler = {
source = M.ss02;
};
};
},
{
category = Letter;
color = 6;
glyphname = v.ss02;
kernLeft = RN_V;
kernRight = RN_V;
layers = (
{
layerId = "16643525-C5DD-48EC-8E99-463BF28F5E85";
shapes = (
{
closed = 1;
nodes = (
(388,33,l),
(548,370,ls),
(555,385,o),
(617,501,o),
(626,514,c),
(474,514,l),
(472,496,o),
(450,405,o),
(443,389,cs),
(340,169,l),
(374,169,l),
(285,377,ls),
(283,383,o),
(253,488,o),
(253,514,c),
(80,514,l),
(83,509,o),
(126,426,o),
(133,410,cs),
(300,33,l)
);
},
{
closed = 1;
nodes = (
(685,0,l),
(689,51,l),
(16,51,l),
(20,0,l)
);
},
{
closed = 1;
nodes = (
(733,486,l),
(729,536,l),
(-30,536,l),
(-27,486,l)
);
}
);
userData = {
RMXScaler = {
adjustSpace = -9;
height = 76;
weight = -20;
width = 82;
};
};
width = 703;
},
{
layerId = "4E6502B1-B066-4D3E-9BD1-B1D9901B4F4F";
shapes = (
{
closed = 1;
nodes = (
(370,19,l),
(541,405,ls),
(557,441,o),
(594,507,o),
(602,520,c),
(499,520,l),
(497,504,o),
(493,446,o),
(485,428,cs),
(348,125,l),
(369,125,l),
(231,402,ls),
(219,426,o),
(202,499,o),
(200,520,c),
(80,520,l),
(103,487,o),
(130,444,o),
(140,423,cs),
(330,19,l)
);
},
{
closed = 1;
nodes = (
(673,0,l),
(677,37,l),
(7,37,l),
(12,0,l)
);
},
{
closed = 1;
nodes = (
(711,497,l),
(707,536,l),
(-22,536,l),
(-26,497,l)
);
}
);
userData = {
RMXScaler = {
adjustSpace = 3;
height = 76;
weight = -12;
width = 82;
};
};
width = 685.4;
}
);
subCategory = Other;
userData = {
RMXScaler = {
source = V.ss02;
};
};
},
{
category = Letter;
color = 6;
glyphname = x.ss02;
kernLeft = RN_X;
kernRight = RN_X;
layers = (
{
layerId = "16643525-C5DD-48EC-8E99-463BF28F5E85";
shapes = (
{
closed = 1;
nodes = (
(251,48,o),
(268,76,o),
(279,93,cs),
(365,218,l),
(300,218,l),
(385,100,ls),
(390,93,o),
(418,52,o),
(427,35,c),
(610,39,l),
(587,63,o),
(571,76,o),
(559,93,cs),
(388,338,l),
(391,241,l),
(519,445,ls),
(530,463,o),
(544,465,o),
(570,495,c),
(448,519,l),
(426,472,o),
(420,464,o),
(408,444,cs),
(334,325,l),
(395,325,l),
(330,429,ls),
(320,445,o),
(301,475,o),
(292,495,c),
(102,495,l),
(121,471,o),
(143,450,o),
(157,430,cs),
(309,204,l),
(310,302,l),
(183,115,ls),
(171,97,o),
(129,62,o),
(115,48,c),
(243,33,l)
);
},
{
closed = 1;
nodes = (
(690,0,l),
(693,51,l),
(-22,51,l),
(-19,0,l)
);
},
{
closed = 1;
nodes = (
(693,486,l),
(690,536,l),
(-19,536,l),
(-14,486,l)
);
}
);
userData = {
RMXScaler = {
adjustSpace = -9;
height = 76;
weight = -20;
width = 82;
};
};
width = 673;
},
{
layerId = "4E6502B1-B066-4D3E-9BD1-B1D9901B4F4F";
shapes = (
{
closed = 1;
nodes = (
(193,51,o),
(208,76,o),
(220,93,cs),
(324,241,l),
(290,241,l),
(388,100,ls),
(398,86,o),
(428,37,o),
(437,21,c),
(565,21,l),
(544,41,o),
(500,83,o),
(492,93,cs),
(344,311,l),
(345,251,l),
(454,424,ls),
(462,437,o),
(509,485,o),
(522,502,c),
(436,507,l),
(426,484,o),
(409,457,o),
(400,444,cs),
(311,303,l),
(348,304,l),
(264,429,ls),
(247,454,o),
(228,493,o),
(224,503,c),
(104,502,l),
(114,488,o),
(153,449,o),
(165,430,cs),
(294,234,l),
(291,293,l),
(168,115,ls),
(155,96,o),
(86,33,o),
(77,24,c),
(177,21,l)
);
},
{
closed = 1;
nodes = (
(654,0,l),
(657,37,l),
(-20,37,l),
(-17,0,l)
);
},
{
closed = 1;
nodes = (
(657,497,l),
(654,536,l),
(-17,536,l),
(-18,497,l)
);
}
);
userData = {
RMXScaler = {
adjustSpace = 3;
height = 76;
weight = -12;
width = 82;
};
};
width = 637.8;
}
);
subCategory = Other;
userData = {
RMXScaler = {
source = X.ss02;
};
};
},
{
category = Letter;
color = 6;
export = 0;
glyphname = i.numeroRomano;
kernLeft = i.ss02;
kernRight = i.ss02;
layers = (
{
layerId = "16643525-C5DD-48EC-8E99-463BF28F5E85";
shapes = (
{
closed = 1;
nodes = (
(215,60,l),
(210,64,o),
(202,134,o),
(202,169,cs),
(202,356,ls),
(202,398,o),
(208,444,o),
(216,476,c),
(46,476,l),
(55,454,o),
(60,398,o),
(60,376,cs),
(60,149,ls),
(60,126,o),
(52,71,o),
(46,60,c)
);
}
);
userData = {
RMXScaler = {
height = 90;
verticalShift = 20;
};
};
width = 263;
},
{
layerId = "4E6502B1-B066-4D3E-9BD1-B1D9901B4F4F";
shapes = (
{
closed = 1;
nodes = (
(167,42,l),
(163,54,o),
(156,107,o),
(156,144,cs),
(156,374,ls),
(156,408,o),
(162,455,o),
(165,487,c),
(64,487,l),
(67,460,o),
(74,412,o),
(74,394,cs),
(74,124,ls),
(74,107,o),
(66,55,o),
(64,42,c)
);
}
);
userData = {
RMXScaler = {
height = 90;
verticalShift = 20;
};
};
width = 231.1;
}
);
subCategory = Other;
userData = {
RMXScaler = {
source = i.sc;
};
};
},
